SplineFontDB: 3.0
FontName: LinLibertineSlantedO
FullName: Linux Libertine Slanted O
FamilyName: Linux Libertine Slanted O
Weight: Book
Copyright: Linux Libertine by Philipp H. Poll,\nOpen Font under Terms of following Free Software Licenses:\nGPL (General Public License) with font-exception and OFL (Open Font License).\nCreated with FontForge (http://fontforge.sf.net)\nSept 2003, 2004, 2005, 2006, 2007, 2008, 2009
UComments: "2003-08-29: Created.+AAoA-2004-07-25: v(1.0) release candidate+AAoA-2005-12-28: v(1.1.0) stable+AAoA-2006-01-01: v(2.0.0) stable+AAoA-2006-09-05: v(2.2.0) stable+AAoA-2006-12-04: v(2.3.0) stable+AAoA-2007-03-11: v(2.4.0) stable+AAoA-2007-12-00: v(2.7.0) stable+AAoA-2008-06-00: v(2.8.14) stable+AAoA" 
Version: 4.5.6
ItalicAngle: 0
UnderlinePosition: -98
UnderlineWidth: 40
Ascent: 754
Descent: 246
LayerCount: 2
Layer: 0 0 "Back"  1
Layer: 1 0 "Fore"  0
NeedsXUIDChange: 1
XUID: [1021 993 1524925707 2876416]
FSType: 0
OS2Version: 0
OS2_WeightWidthSlopeOnly: 0
OS2_UseTypoMetrics: 0
CreationTime: 1156455862
ModificationTime: 1260433520
PfmFamily: 17
TTFWeight: 400
TTFWidth: 5
LineGap: 0
VLineGap: 0
OS2TypoAscent: 894
OS2TypoAOffset: 0
OS2TypoDescent: -246
OS2TypoDOffset: 0
OS2TypoLinegap: 0
OS2WinAscent: 894
OS2WinAOffset: 0
OS2WinDescent: 246
OS2WinDOffset: 0
HheadAscent: 894
HheadAOffset: 0
HheadDescent: -246
HheadDOffset: 0
OS2FamilyClass: 261
OS2Vendor: 'PfEd'
Lookup: 3 0 0 "'aalt' Alle Alternativen zeigen"  {"'aalt' Alle Alternativen zeigen 1"  } ['aalt' ('DFLT' <'dflt' > 'cyrl' <'dflt' > 'grek' <'dflt' > 'latn' <'AZE ' 'CRT ' 'DEU ' 'MOL ' 'ROM ' 'TRK ' 'dflt' > ) ]
Lookup: 1 0 0 "'locl' Localized Forms Romaenisch"  {"'locl' Localized Forms Romaenisch 1"  } ['locl' ('latn' <'MOL ' 'ROM ' > ) ]
Lookup: 1 0 0 "'smcp' Gemeine nach Kapitaelchen i > i.sc"  {"'smcp' Gemeine nach Kapitaelchen i > i.sc 1"  } ['smcp' ('DFLT' <'dflt' > 'cyrl' <'dflt' > 'grek' <'dflt' > 'latn' <'DEU ' 'MOL ' 'ROM ' 'dflt' > ) ]

StartChar: exclam
Encoding: 33 33 0
Width: 228
VWidth: 999
Flags: HW
HStem: -10 106<71.6089 156.391> 638 20G<102 126>
VStem: 61 106<0.608917 85.3911 411.697 645.75>
LayerCount: 2
Fore
SplineSet
253.862 658 m 0
 277.862 658 302.823 639 291.346 585 c 0
 277.529 520 254.802 478 226.322 392 c 0
 190.566 284 177.612 224 172.637 210 c 0
 169.299 199 164.386 190 154.386 190 c 0
 144.386 190 142.874 197 143.149 203 c 0
 145.612 224 158.743 314 167.322 392 c 0
 177.027 480 170.467 515 185.346 585 c 0
 196.823 639 229.862 658 253.862 658 c 0
70.1396 43 m 0
 76.3037 72 105.405 96 134.405 96 c 0
 163.405 96 182.304 72 176.14 43 c 0
 169.976 14 140.874 -10 111.874 -10 c 0
 82.874 -10 63.9756 14 70.1396 43 c 0
EndSplineSet
Colour: ff9ccc
EndChar

StartChar: quotedbl
Encoding: 34 34 1
Width: 336
VWidth: 999
Flags: HW
HStem: 426 218<85.8119 118.678> 427 218<211.812 244.678>
VStem: 63 86<487.695 633.98> 189 86<488.695 634.98>
LayerCount: 2
Fore
SplineSet
305.762 427 m 1
 305.762 427 313.559 586 315.471 595 c 0
 320.147 617 347.099 645 377.099 645 c 0
 403.099 645 408.485 628 405.085 612 c 0
 401.684 596 333.612 431 333.612 431 c 1
 305.762 427 l 1
179.549 426 m 1
 179.549 426 187.346 585 189.259 594 c 0
 193.935 616 220.887 644 250.887 644 c 0
 276.887 644 282.273 627 278.872 611 c 0
 275.471 595 207.399 430 207.399 430 c 1
 179.549 426 l 1
EndSplineSet
Colour: ff00ff
EndChar

StartChar: numbersign
Encoding: 35 35 2
Width: 440
VWidth: 487
Flags: HW
HStem: 183 48<32 115 156 258 299 382> 342 48<58 140 181 284 324 407>
DStem2: 88 13 121 13 0.158835 0.987305<5.24156 172.13 226.033 333.083 386.986 553.875> 232 13 265 13 0.155313 0.987865<5.12534 171.975 225.761 333.084 386.714 553.719>
LayerCount: 2
Fore
SplineSet
316.101 231 m 1
 356.694 342 l 1
 246.694 342 l 1
 205.101 231 l 1
 316.101 231 l 1
389.694 342 m 1
 348.101 231 l 1
 438.101 231 l 1
 420.897 183 l 1
 331.897 183 l 1
 267.764 13 l 1
 234.764 13 l 1
 296.897 183 l 1
 187.897 183 l 1
 123.764 13 l 1
 90.7637 13 l 1
 153.897 183 l 1
 63.8975 183 l 1
 81.1006 231 l 1
 172.101 231 l 1
 212.694 342 l 1
 122.694 342 l 1
 140.897 390 l 1
 230.897 390 l 1
 294.031 560 l 1
 328.031 560 l 1
 263.897 390 l 1
 374.897 390 l 1
 437.031 560 l 1
 470.031 560 l 1
 406.897 390 l 1
 497.897 390 l 1
 479.694 342 l 1
 389.694 342 l 1
EndSplineSet
EndChar

StartChar: dollar
Encoding: 36 36 3
Width: 440
VWidth: 999
Flags: HW
HStem: -10 33<148.6 275.43> 1 21G<58 68.5> 542 30<160.039 276.129>
VStem: 42 26<115.775 146.808> 46 64<387.132 501.756> 198 34<-81 627> 328 72<70.3563 197.557> 342 26<419.923 435>
LayerCount: 2
Fore
SplineSet
94.5508 12 m 0
 78.5508 12 79.2129 1 58.2129 1 c 1
 66.0771 38 69.1299 90 73.0332 146 c 1
 99.6709 149 l 1
 102.339 89.0996 138.248 34.0996 203.208 24.5 c 1
 254.157 264.2 l 1
 200.305 290.3 116.313 330.8 137.187 429 c 0
 155.509 515.2 243.876 563.5 319.37 571 c 1
 331.273 627 l 1
 365.273 627 l 1
 353.54 571.8 l 1
 401.806 570.7 430.382 564 467.882 564 c 1
 461.316 519 459.901 470 457.486 421 c 1
 430.636 417 l 1
 429.462 435 l 1
 423.451 499.4 399.248 534.2 346.95 540.8 c 1
 301.569 327.3 l 1
 353.657 305.6 454.755 257.6 433.159 156 c 0
 426.251 123.5 387.562 1.7002 230.045 -9.2002 c 1
 214.783 -81 l 1
 180.783 -81 l 1
 195.917 -9.7998 l 1
 138.806 -7.5 114.351 12 94.5508 12 c 0
285.33 250.9 m 1
 237.037 23.7002 l 1
 276.509 27.7998 338.861 51.0996 354.995 127 c 0
 371.936 206.7 322.472 235.1 285.33 250.9 c 1
270.546 341.3 m 1
 313.015 541.1 l 1
 263.739 535.1 215.896 498.2 203.1 438 c 0
 193.131 391.1 235.593 359.4 270.546 341.3 c 1
EndSplineSet
EndChar

StartChar: percent
Encoding: 37 37 4
Width: 637
VWidth: 999
Flags: HW
HStem: -12 29<446.826 512.932> 225 31<488.229 553.742> 303 29<126.123 191.163> 484 37<279.857 459.046> 540 31<166.506 233.537>
VStem: 59 51<340.095 479.734> 246 31<405.445 504.773> 380 52<24.9702 164.687> 568 30<93.569 210.69>
DStem2: 102 3 136 -12 0.584454 0.811427<7.70004 615.532 651.531 704.931>
LayerCount: 2
Fore
SplineSet
449.643 83 m 0
 438.589 31 461.613 17 480.613 17 c 0
 535.613 17 590.956 108 602.859 164 c 0
 613.912 216 584.825 225 570.825 225 c 0
 521.825 225 461.971 141 449.643 83 c 0
400.83 98 m 0
 416.772 173 492.414 256 566.414 256 c 0
 606.414 256 648.589 238 633.072 165 c 0
 618.83 98 551.449 -12 468.449 -12 c 0
 407.449 -12 389.565 45 400.83 98 c 0
474.742 521 m 0
 516.742 521 596.293 533 636.22 575 c 1
 664.819 559 l 1
 133.449 -12 l 1
 102.638 3 l 1
 567.916 503 l 1
 526.728 488 486.877 484 456.877 484 c 0
 433.877 484 398.003 494 381.341 505 c 1
 381.854 498 380.94 489 379.027 480 c 0
 365.424 416 297.404 303 213.404 303 c 0
 151.404 303 135.732 361 146.573 412 c 0
 162.94 489 239.37 571 311.37 571 c 0
 339.37 571 365.606 558 373.056 546 c 1
 421.742 521 456.742 521 474.742 521 c 0
194.598 398 m 0
 183.545 346 207.568 332 225.568 332 c 0
 280.568 332 335.486 421 347.814 479 c 0
 358.442 529 333.78 540 315.78 540 c 0
 266.78 540 206.926 456 194.598 398 c 0
EndSplineSet
EndChar

StartChar: parenleft
Encoding: 40 40 5
Width: 295
VWidth: 999
Flags: HW
VStem: 44 78<97.6984 405.148>
LayerCount: 2
Fore
SplineSet
97.5645 252 m 0
 137.1 438 265.597 605 406.277 707 c 1
 420.451 689 l 1
 380.8 653 231.467 515 175.564 252 c 0
 119.662 -11 209.329 -149 234.252 -187 c 1
 212.639 -204 l 1
 42.8984 -24 87.999 207 97.5645 252 c 0
EndSplineSet
Substitution2: "'c2sc' Versale nach Kapitaelchen 1" parenleft.sc
AlternateSubs2: "'aalt' Alle Alternativen zeigen 1" parenleft.sc
Substitution2: "'sinf' Wissenschaftliche Indices 1" parenleft.inferior
Substitution2: "'sups' Hochgestellte 1" parenleft.superior
Substitution2: "'case' Versalformen 1" parenleft.sc
EndChar

StartChar: parenright
Encoding: 41 41 6
Width: 295
VWidth: 999
Flags: HW
VStem: 174 78<98.852 406.302>
LayerCount: 2
Fore
SplineSet
305.564 252 m 0
 266.028 66 137.532 -101 -3.14941 -203 c 1
 -17.3232 -185 l 1
 22.3291 -149 171.662 -11 227.564 252 c 0
 283.467 515 193.8 653 168.877 691 c 1
 190.49 708 l 1
 360.229 528 315.129 297 305.564 252 c 0
EndSplineSet
Substitution2: "'c2sc' Versale nach Kapitaelchen 1" parenright.sc
AlternateSubs2: "'aalt' Alle Alternativen zeigen 1" parenright.sc
Substitution2: "'sinf' Wissenschaftliche Indices 1" parenright.inferior
Substitution2: "'sups' Hochgestellte 1" parenright.superior
Substitution2: "'case' Versalformen 1" parenright.sc
Colour: ff00ff
EndChar

StartChar: asterisk
Encoding: 42 42 7
Width: 369
VWidth: 999
Flags: HMW
LayerCount: 2
Fore
SplineSet
284.269 547 m 1
 271.906 550 258.119 551 243.119 551 c 0
 194.119 551 163.606 558 169.983 588 c 0
 172.959 602 185.36 618 209.36 618 c 0
 243.36 618 254.346 585 294.52 567 c 1
 298.81 606 285.548 633 291.075 659 c 0
 295.538 680 311.364 698 329.364 698 c 0
 347.364 698 360.026 687 354.925 663 c 0
 349.186 636 323.684 596 315.307 566 c 1
 365.559 586 388.36 618 421.36 618 c 0
 448.36 618 451.108 598 448.983 588 c 0
 442.606 558 406.119 551 372.119 551 c 0
 353.119 551 334.906 550 316.269 547 c 1
 342.404 510 389.278 500 380.776 460 c 0
 376.95 442 359.612 431 345.612 431 c 0
 306.612 431 313.428 496 296.718 535 c 1
 262.152 490 242.612 431 204.612 431 c 0
 187.612 431 178.375 444 181.563 459 c 0
 190.703 502 243.404 510 284.269 547 c 1
EndSplineSet
EndChar

StartChar: plus
Encoding: 43 43 8
Width: 527
VWidth: 999
Flags: HMW
HStem: 208 49<66 238 289 461>
VStem: 238 51<34 208 257 431>
LayerCount: 2
Fore
SplineSet
343.627 257 m 1
 515.627 257 l 1
 505.212 208 l 1
 333.212 208 l 1
 296.227 34 l 1
 245.227 34 l 1
 282.212 208 l 1
 110.212 208 l 1
 120.627 257 l 1
 292.627 257 l 1
 329.612 431 l 1
 380.612 431 l 1
 343.627 257 l 1
EndSplineSet
AlternateSubs2: "'aalt' Alle Alternativen zeigen 1" plus.superior plus.inferior uni2098
Substitution2: "'sinf' Wissenschaftliche Indices 1" plus.inferior
Substitution2: "'sups' Hochgestellte 1" plus.superior
EndChar

StartChar: slash
Encoding: 47 47 9
Width: 323
VWidth: 999
Flags: HW
HStem: 626 20G<245.277 293>
VStem: 15 278
LayerCount: 2
Fore
SplineSet
430.312 646 m 1
 43.459 -59 l 1
 2.45898 -59 l 1
 389.312 646 l 1
 430.312 646 l 1
EndSplineSet
Substitution2: "'sups' Hochgestellte 1" fraction
Ligature2: "'frac' Brueche 1" uni2215
AlternateSubs2: "'aalt' Alle Alternativen zeigen 1" uni2215
EndChar

StartChar: one
Encoding: 49 49 10
Width: 440
VWidth: 999
Flags: HMW
HStem: -2 29<107 204.896 288.977 379> 558 20G<252.333 281.75>
VStem: 211 72<33.9397 475.982>
LayerCount: 2
Fore
SplineSet
292.177 476 m 0
 273.177 476 249.401 470 199.863 451 c 1
 190.602 478 l 1
 287.316 519 340.267 543.7 402.857 578 c 1
 406.357 578 408.815 577.8 407.795 573 c 0
 403.332 560 389.065 499 376.312 439 c 2
 303.618 97 l 2
 295.966 61 301.235 33.0996 327.589 31 c 2
 378.739 27 l 2
 381.718 26.9004 386.739 27 385.464 21 c 2
 381.021 0.0996094 l 1
 378.575 -2 l 1
 341.787 -1 283 0 247 0 c 0
 211 0 143.787 -1 106.575 -2 c 1
 105.021 0.0996094 l 1
 109.464 21 l 2
 110.123 24.0996 113.496 26.7998 118.739 27 c 2
 179.589 31 l 2
 209.914 33 223.753 60 231.618 97 c 2
 299.849 418 l 2
 307.075 452 308.677 476 292.177 476 c 0
EndSplineSet
AlternateSubs2: "'aalt' Alle Alternativen zeigen 1" one.oldstyle one.superior one.fitted
Substitution2: "'sups' Hochgestellte 1" one.superior
Substitution2: "'sinf' Wissenschaftliche Indices 1" one.inferior
Substitution2: "'pnum' Proportionalziffern 1" one.fitted
Substitution2: "'onum' Minuskelziffern 1" one.taboldstyle
EndChar

StartChar: two
Encoding: 50 50 11
Width: 440
VWidth: 487
Flags: HMW
HStem: 0 62<128 338.275> 547 31<152.53 260.878>
VStem: 59 74<62 95.8822 409.442 486.625> 309 79<352.993 506.617>
DStem2: 160 194 198 176 0.718358 0.695673<-92.3927 203.456>
LayerCount: 2
Fore
SplineSet
153.162 443 m 0
 165.278 500 236.857 578 341.857 578 c 0
 418.857 578 501.931 536 480.25 434 c 0
 464.945 362 414.961 320.2 349.965 268 c 2
 235.41 176 l 2
 229.348 171 150.743 107 141.179 62 c 1
 309.179 62 l 2
 343.179 62 367.067 85 397.309 152 c 1
 421.458 148 l 1
 366.575 -2 l 1
 366.575 -2 323 0 293 0 c 2
 128 0 l 2
 98 0 52.5752 -2 52.5752 -2 c 1
 64.4785 54 88.043 99 201.236 194 c 1
 285.902 263 l 1
 354.019 320 387.434 369 400.399 430 c 0
 419.742 521 363.269 547 329.269 547 c 0
 260.269 547 233.616 511 228.515 487 c 0
 226.814 479 227.114 471 227.626 464 c 0
 228.139 457 228.65 450 226.95 442 c 0
 221.424 416 199.298 406 183.298 406 c 0
 161.298 406 148.911 423 153.162 443 c 0
EndSplineSet
AlternateSubs2: "'aalt' Alle Alternativen zeigen 1" two.oldstyle two.superior two.fitted
Substitution2: "'sups' Hochgestellte 1" two.superior
Substitution2: "'sinf' Wissenschaftliche Indices 1" two.inferior
Substitution2: "'pnum' Proportionalziffern 1" two.fitted
Substitution2: "'onum' Minuskelziffern 1" two.taboldstyle
EndChar

StartChar: three
Encoding: 51 51 12
Width: 440
VWidth: 487
Flags: HW
HStem: -10 31<144.212 243.934> 300 30<150.067 191.437> 547 31<152.591 257.64>
VStem: 48 66<425.524 509.453> 291 69<409.571 522.731> 315 80<99.0362 259.93>
LayerCount: 2
Fore
SplineSet
323.269 547 m 0
 298.269 547 227.293 533 214.327 472 c 0
 210.501 454 196.911 423 169.911 423 c 0
 146.911 423 141.95 442 144.713 455 c 0
 151.303 486 210.857 578 349.857 578 c 0
 446.857 578 469.892 517 461.39 477 c 0
 454.588 445 440.447 402 338.332 345 c 1
 338.907 343 l 1
 392.83 333.7 457.576 294.4 435.599 191 c 0
 409.028 66 292.874 -10 179.874 -10 c 0
 122.874 -10 48.1885 15 56.2656 53 c 0
 59.4541 68 83.2803 86 103.28 86 c 0
 122.28 86 128.941 75 135.179 62 c 0
 142.565 45 150.464 21 198.464 21 c 0
 231.464 21 326.053 52 352.835 178 c 0
 375.578 285 310.192 302 256.192 302 c 0
 244.192 302 231.192 302 214.767 300 c 1
 217.144 330 l 1
 304.907 343 379.636 417 389.414 463 c 0
 401.954 522 365.269 547 323.269 547 c 0
EndSplineSet
AlternateSubs2: "'aalt' Alle Alternativen zeigen 1" three.oldstyle three.superior three.fitted
Substitution2: "'sups' Hochgestellte 1" three.superior
Substitution2: "'sinf' Wissenschaftliche Indices 1" three.inferior
Substitution2: "'pnum' Proportionalziffern 1" three.fitted
Substitution2: "'onum' Minuskelziffern 1" three.taboldstyle
EndChar

StartChar: four
Encoding: 52 52 13
Width: 440
VWidth: 487
Flags: HW
HStem: -2 29<183 215 360 392> 153 45<81 259 327 419.054> 558 20G<298.806 331>
VStem: 259 68<33.8382 153 198 381.915>
DStem2: 25 196 81 198 0.576513 0.817088<33.9189 480.706>
LayerCount: 2
Fore
SplineSet
449.086 198 m 2
 459.086 198 461.811 192 459.897 183 c 0
 457.56 172 439.521 153 426.521 153 c 2
 359.521 153 l 1
 342.304 72 l 2
 336.353 44 338.311 31.0996 366.164 29 c 2
 392.739 27 l 2
 398.654 26.5996 398.676 22 398.251 20 c 2
 394.043 0.200195 l 1
 391.575 -2 l 1
 391.575 -2 329 0 288 0 c 0
 247 0 182.575 -2 182.575 -2 c 1
 181.043 0.200195 l 1
 185.251 20 l 2
 185.676 22 187.654 26.5996 193.739 27 c 2
 221.164 29 l 2
 251.432 31.2002 268.14 43 274.304 72 c 2
 291.521 153 l 1
 95.5215 153 l 2
 67.0215 153 63.5898 179.2 64.0234 193 c 0
 64.2363 194 65.4482 195 66.6611 196 c 2
 408.232 568 l 2
 412.389 572.5 418.458 578 424.857 578 c 2
 450.857 578 l 2
 456.857 578 457.582 572 453.52 567 c 0
 360.626 464 217.617 304 123.086 198 c 1
 301.086 198 l 1
 334.458 355 l 2
 335.945 362 338.646 370 348.709 375 c 1
 361.409 383 381.322 392 396.322 392 c 0
 409.322 392 407.984 381 403.732 361 c 2
 369.086 198 l 1
 449.086 198 l 2
EndSplineSet
AlternateSubs2: "'aalt' Alle Alternativen zeigen 1" four.oldstyle four.superior four.fitted
Substitution2: "'sups' Hochgestellte 1" four.superior
Substitution2: "'sinf' Wissenschaftliche Indices 1" four.inferior
Substitution2: "'pnum' Proportionalziffern 1" four.fitted
Substitution2: "'onum' Minuskelziffern 1" four.taboldstyle
EndChar

StartChar: five
Encoding: 53 53 14
Width: 440
VWidth: 487
Flags: HW
HStem: -10 31<156.531 243.367> 323 47<121.426 259.454> 505 63<139.224 352.798> 510 68<139.51 204.36 208.345 251.899 255.315 353>
VStem: 306 80<99.5265 272.992>
DStem2: 72 300 121 355 0.116419 0.9932<60.3305 219.549>
LayerCount: 2
Fore
SplineSet
344.048 179 m 0
 365.941 282 322.656 323 260.656 323 c 0
 226.656 323 189.806 319 135.767 300 c 1
 225.795 573 l 1
 258.157 570 291.732 568 326.732 568 c 0
 376.732 568 429.582 572 484.857 578 c 1
 490.22 575 l 1
 461.404 510 l 1
 421.554 506 389.341 505 361.341 505 c 0
 316.341 505 283.191 509 249.042 513 c 1
 196.458 355 l 1
 214.945 362 254.646 370 295.646 370 c 0
 401.646 370 447.216 288 427.661 196 c 0
 402.367 77 300.874 -10 183.874 -10 c 0
 129.874 -10 55.6758 22 63.9658 61 c 0
 68.0049 80 89.4053 96 107.405 96 c 0
 127.405 96 137.338 81.0996 145.816 65 c 0
 155.777 46 166.464 21 202.464 21 c 0
 259.464 21 324.918 89 344.048 179 c 0
EndSplineSet
AlternateSubs2: "'aalt' Alle Alternativen zeigen 1" five.oldstyle five.superior five.fitted
Substitution2: "'sups' Hochgestellte 1" five.superior
Substitution2: "'sinf' Wissenschaftliche Indices 1" five.inferior
Substitution2: "'pnum' Proportionalziffern 1" five.fitted
Substitution2: "'onum' Minuskelziffern 1" five.taboldstyle
EndChar

StartChar: six
Encoding: 54 54 15
Width: 440
VWidth: 487
Flags: HW
HStem: -10 30<185.001 280.275> 327 32<155.163 269.94> 558 20G<289 341>
VStem: 42 77<98.4738 336.175> 328 77<95.7322 268.757>
LayerCount: 2
Fore
SplineSet
210.262 336.2 m 1
 242.407 351 285.308 359 312.308 359 c 0
 441.308 359 462.815 272 445.599 191 c 0
 428.36 109.9 352.874 -10 228.874 -10 c 0
 155.874 -10 47.9512 28 88.7627 220 c 0
 104.704 295 151.984 381 225.038 449 c 0
 290.989 510.4 357.906 550 459.857 578 c 1
 466.795 573 468.095 565 465.756 554 c 1
 335.17 508.9 255.446 419.4 210.262 336.2 c 1
192.218 299.3 m 1
 178.856 268.9 170.141 240.6 165.125 217 c 0
 130.69 55 185.251 20 245.251 20 c 0
 291.251 20 342.879 70 364.984 174 c 0
 374.975 221 378.506 327 285.506 327 c 0
 267.806 327 231.608 325.6 192.218 299.3 c 1
EndSplineSet
AlternateSubs2: "'aalt' Alle Alternativen zeigen 1" six.oldstyle six.superior six.fitted
Substitution2: "'sups' Hochgestellte 1" six.superior
Substitution2: "'sinf' Wissenschaftliche Indices 1" six.inferior
Substitution2: "'pnum' Proportionalziffern 1" six.fitted
Substitution2: "'onum' Minuskelziffern 1" six.taboldstyle
EndChar

StartChar: seven
Encoding: 55 55 16
Width: 440
VWidth: 487
Flags: HMW
HStem: -12 21G<117 185> 506 62<104.886 328.815>
VStem: 48 27<426.222 459.789>
LayerCount: 2
Fore
SplineSet
268.554 506 m 2
 238.554 506 202.278 500 165.124 424 c 1
 138.762 427 l 1
 157.177 476 179.293 533 189.857 578 c 0
 190.368 580.4 192.096 581 194.495 581 c 0
 211.272 577.6 206.632 568 238.732 568 c 2
 433.732 568 l 2
 469.732 568 491.795 573 508.857 578 c 1
 521.52 567 l 1
 360.68 309 271.309 152 183.087 -9 c 1
 117.449 -12 l 1
 115.725 -6 l 1
 210.333 138 324.443 322 437.554 506 c 1
 268.554 506 l 2
EndSplineSet
AlternateSubs2: "'aalt' Alle Alternativen zeigen 1" seven.oldstyle seven.superior seven.fitted
Substitution2: "'sups' Hochgestellte 1" seven.superior
Substitution2: "'sinf' Wissenschaftliche Indices 1" seven.inferior
Substitution2: "'pnum' Proportionalziffern 1" seven.fitted
Substitution2: "'onum' Minuskelziffern 1" seven.taboldstyle
EndChar

StartChar: nine
Encoding: 57 57 17
Width: 440
VWidth: 487
Flags: HW
HStem: -10 20<95 147> 209 32<166.06 280.836> 548 30<155.725 250.999>
VStem: 31 77<299.243 472.268> 317 77<231.825 469.526>
LayerCount: 2
Fore
SplineSet
346.471 231.8 m 1
 314.325 217 271.424 209 244.424 209 c 0
 115.424 209 93.917 296 111.134 377 c 0
 128.372 458.1 203.857 578 327.857 578 c 0
 400.857 578 508.78 540 467.97 348 c 0
 452.028 273 404.748 187 331.694 119 c 0
 265.743 57.5996 198.826 18 96.874 -10 c 1
 89.9375 -5 88.6377 3 90.9756 14 c 1
 221.562 59.0996 301.286 148.6 346.471 231.8 c 1
364.514 268.7 m 1
 377.876 299.1 386.591 327.4 391.607 351 c 0
 426.041 513 371.481 548 311.481 548 c 0
 265.481 548 213.854 498 191.747 394 c 0
 181.757 347 178.227 241 271.227 241 c 0
 288.926 241 325.124 242.4 364.514 268.7 c 1
EndSplineSet
AlternateSubs2: "'aalt' Alle Alternativen zeigen 1" nine.oldstyle nine.superior nine.fitted
Substitution2: "'sups' Hochgestellte 1" nine.superior
Substitution2: "'sinf' Wissenschaftliche Indices 1" nine.inferior
Substitution2: "'pnum' Proportionalziffern 1" nine.fitted
Substitution2: "'onum' Minuskelziffern 1" nine.taboldstyle
Colour: ff00ff
EndChar

StartChar: colon
Encoding: 58 58 18
Width: 220
VWidth: 999
Flags: HW
HStem: 39 106<74.6089 159.391> 302 106<74.6089 159.391>
VStem: 64 106<49.6089 134.391 312.609 397.391>
LayerCount: 2
Fore
SplineSet
139.458 355 m 0
 145.622 384 174.723 408 203.723 408 c 0
 232.723 408 251.622 384 245.458 355 c 0
 239.293 326 210.192 302 181.192 302 c 0
 152.192 302 133.293 326 139.458 355 c 0
83.5557 92 m 0
 89.7197 121 118.82 145 147.82 145 c 0
 176.82 145 195.72 121 189.556 92 c 0
 183.391 63 154.29 39 125.29 39 c 0
 96.29 39 77.3906 63 83.5557 92 c 0
EndSplineSet
Colour: ff00ff
EndChar

StartChar: less
Encoding: 60 60 19
Width: 487
VWidth: 999
Flags: HW
HStem: 73 331
DStem2: 49 263 122 239 0.940425 0.34<60.4911 397.706> 122 239 49 215 0.939653 -0.34213<0 337.557>
LayerCount: 2
Fore
SplineSet
172.801 239 m 1
 465.145 123 l 1
 454.517 73 l 1
 94.6992 215 l 1
 104.902 263 l 1
 524.873 404 l 1
 514.245 354 l 1
 172.801 239 l 1
EndSplineSet
EndChar

StartChar: equal
Encoding: 61 61 20
Width: 527
VWidth: 999
Flags: HW
HStem: 144 49<66 461> 269 49<66 461>
LayerCount: 2
Fore
SplineSet
528.593 318 m 1
 518.178 269 l 1
 123.178 269 l 1
 133.593 318 l 1
 528.593 318 l 1
502.023 193 m 1
 491.608 144 l 1
 96.6084 144 l 1
 107.023 193 l 1
 502.023 193 l 1
EndSplineSet
AlternateSubs2: "'aalt' Alle Alternativen zeigen 1" equal.superior
Substitution2: "'sinf' Wissenschaftliche Indices 1" equal.inferior
Substitution2: "'sups' Hochgestellte 1" equal.superior
EndChar

StartChar: greater
Encoding: 62 62 21
Width: 487
VWidth: 999
Flags: HW
HStem: 71 331
DStem2: 366 236 439 260 0.939653 -0.34213<-337.557 0> 439 212 366 236 0.940425 0.34<-397.706 -60.4911>
LayerCount: 2
Fore
SplineSet
416.163 236 m 1
 123.82 352 l 1
 134.447 402 l 1
 494.265 260 l 1
 484.062 212 l 1
 64.0918 71 l 1
 74.7197 121 l 1
 416.163 236 l 1
EndSplineSet
Colour: ff00ff
EndChar

StartChar: question
Encoding: 63 63 22
Width: 405
VWidth: 487
Flags: HW
HStem: -10 106<137.609 222.391> 629 30<129.136 240.34>
VStem: 29 68<506.793 591.001> 127 106<0.608917 85.3911> 167 26<174.002 289.255> 294 75<434.552 579.779>
LayerCount: 2
Fore
SplineSet
218.582 572 m 0
 215.394 557 216.119 551 219.056 546 c 0
 221.993 541 222.718 535 219.954 522 c 0
 215.065 499 192.515 487 173.515 487 c 0
 157.515 487 134.216 495 141.655 530 c 0
 149.732 568 176.684 596 211.785 620 c 1
 246.099 645 291.075 659 344.075 659 c 0
 446.075 659 496.321 599 476.979 508 c 0
 460.187 429 391.834 385 337.607 351 c 0
 310.994 334 287.593 318 274.979 301 c 0
 256.666 276 246.564 252 241.463 228 c 2
 232.11 184 l 2
 230.622 177 224.984 174 216.984 174 c 0
 208.984 174 204.622 177 206.11 184 c 2
 215.888 230 l 2
 225.028 273 240.041 331.4 317.109 391 c 0
 364.975 428 391.139 457 401.129 504 c 0
 414.944 569 384.698 629 327.698 629 c 0
 270.698 629 224.959 602 218.582 572 c 0
136.14 43 m 0
 142.304 72 171.405 96 200.405 96 c 0
 229.405 96 248.304 72 242.14 43 c 0
 235.976 14 206.874 -10 177.874 -10 c 0
 148.874 -10 129.976 14 136.14 43 c 0
EndSplineSet
Colour: ff9ccc
EndChar

StartChar: at
Encoding: 64 64 23
Width: 895
VWidth: 999
Flags: HMW
HStem: -158 33<366.698 569.227> 27 43<368.151 451.044> 379 31<449.098 547.769> 580 31<358.072 546.24>
VStem: 59 80<106.897 345.025> 273 73<90.7683 252.641> 515 68<62.2365 153.555> 759 80<177.345 388.462>
LayerCount: 2
Fore
SplineSet
636.168 316 m 0
 644.245 354 620.559 379 584.559 379 c 0
 567.559 379 522.646 370 486.057 339 c 0
 424.216 288 393.612 224 380.435 162 c 0
 370.231 114 375.879 70 438.879 70 c 0
 473.879 70 534.995 127 581.512 200 c 0
 601.101 231 628.941 282 636.168 316 c 0
598.729 74 m 0
 596.604 64 605.179 62 607.179 62 c 0
 709.179 62 782.169 109 817.453 275 c 0
 861.239 481 707.283 580 582.283 580 c 0
 430.283 580 240.602 478 190.227 241 c 0
 158.343 91 188.431 -125 446.431 -125 c 0
 531.431 -125 598.319 -102 661.459 -59 c 1
 670.633 -77 l 1
 600.855 -123 533.416 -158 420.416 -158 c 0
 181.416 -158 61.126 10 106.4 223 c 0
 152.1 438 373.872 611 598.872 611 c 0
 813.872 611 938.689 469 898.941 282 c 0
 874.709 168 774.739 27 556.739 27 c 0
 527.739 27 526.053 52 529.454 68 c 0
 532.643 83 544.531 106 557.845 131 c 1
 556.058 132 l 1
 496.328 58 436.164 29 401.164 29 c 0
 301.164 29 297.019 113 305.521 153 c 0
 335.917 296 487.148 410 593.148 410 c 0
 626.148 410 656.535 393 661.008 367 c 1
 671.109 391 l 1
 726.873 404 l 1
 740.811 399 l 1
 625.971 141 l 2
 614.231 114 600.11 80.5 598.729 74 c 0
EndSplineSet
EndChar

StartChar: A
Encoding: 65 65 24
Width: 695
VWidth: 999
Flags: HW
HStem: -2 29<4 63.4383 192 227 438 472 669 688> 241 42<240.956 437> 638 20G<355.667 370>
DStem2: 106.983 102 152 79 0.392949 0.91956<-35.5134 182.05 227.744 482.534> 329.333 622.333 338 550 0.392949 0.91956<-557.738 -393.648 -343.43 -63.1089> 390 628 340 550 0.35377 -0.935333<55.2675 339.317 384.261 592.374>
AnchorPoint: "unten_punkt" 284.619 -110 basechar 0
AnchorPoint: "unten_anhang" 117.062 5 basechar 0
AnchorPoint: "top_akzent" 545.673 850 basechar 0
LayerCount: 2
Fore
SplineSet
323.153 283 m 2
 497.153 283 l 1
 456.906 550 l 1
 454.906 550 l 1
 300.78 296.3 l 2
 294.285 285.5 300.953 283 323.153 283 c 2
168.792 79 m 2
 152.231 51.9004 161.217 31.5996 198.164 29 c 2
 226.739 27 l 2
 230.675 26.7002 234.102 24 233.039 19 c 2
 229 0 l 1
 226.575 -2 l 1
 189.787 -1 137 0 96 0 c 0
 57 0 40.7871 -1 3.5752 -2 c 1
 2 0 l 1
 6.03906 19 l 2
 7.10156 24 10.6748 26.7002 15.7393 27 c 0
 59.877 30 89.1445 40.2002 128.681 102 c 2
 461.574 622.3 l 2
 478.671 649.1 488.162 658 502.862 658 c 0
 516.862 658 520.288 647.3 523.485 628 c 2
 613.28 86 l 2
 618.99 47 635.917 31.5996 674.951 28 c 2
 685.739 27 l 2
 690.633 26.5 695.102 24 694.039 19 c 2
 690 0 l 1
 687.575 -2 l 1
 650.787 -1 612 0 571 0 c 0
 532 0 474.787 -1 437.575 -2 c 1
 437 0 l 1
 441.039 19 l 2
 442.102 24 444.654 26.5996 449.739 27 c 2
 478.164 29 l 2
 516.538 31.7002 533.416 44.2998 529.304 72 c 2
 504.227 241 l 1
 296.227 241 l 2
 272.227 241 265.391 236.6 257.612 224 c 2
 168.792 79 l 2
EndSplineSet
Position2: "'cpsp' Versalabstaende 1" dx=2 dy=0 dh=5 dv=0
Substitution2: "'c2sc' Versale nach Kapitaelchen 1" a.sc
EndChar

StartChar: B
Encoding: 66 66 25
Width: 582
VWidth: 999
Flags: HW
HStem: -2 34<19 54 194.805 379.143> 332 34<187 348.649> 613 34<19 54 190.534 342.72>
VStem: 106 81<39.6512 332 366 608.096> 405 77<426.275 559.02> 452 89<97.5427 249.544>
AnchorPoint: "top_rechts" 664.592 732 basechar 0
AnchorPoint: "unten_punkt" 244.619 -110 basechar 0
AnchorPoint: "unten_anhang" 250 0 basechar 0
AnchorPoint: "top_akzent" 447.673 850 basechar 0
LayerCount: 2
Fore
SplineSet
308.157 570 m 2
 264.796 366 l 1
 338.796 366 l 2
 421.796 366 489.173 396 507.239 481 c 0
 528.921 583 460.297 613 404.297 613 c 0
 317.297 613 315.172 603 308.157 570 c 2
257.568 332 m 1
 203.579 78 l 2
 196.565 45 206.802 32 276.802 32 c 0
 428.802 32 471.556 92 487.072 165 c 0
 506.202 255 463.568 332 326.568 332 c 2
 257.568 332 l 1
21.0391 19 m 2
 22.1016 24 24.6748 26.7002 29.7393 27 c 2
 60.1641 29 l 2
 102.459 31.7998 113.652 36 121.092 71 c 2
 228.008 574 l 2
 235.234 608 227.04 613.2 184.935 616 c 2
 155.36 618 l 2
 150.424 618.3 148.998 621 149.848 625 c 2
 154.099 645 l 1
 156.524 647 l 1
 203.312 646 244.099 645 283.099 645 c 0
 323.099 645 369.524 647 404.524 647 c 0
 590.524 647 601.031 560 586.79 493 c 0
 575.248 438.7 521.444 387.4 465.945 362 c 1
 465.521 360 l 1
 547.206 335 600.516 280 580.11 184 c 0
 561.83 98 487.575 -2 288.575 -2 c 0
 199.575 -2 186 0 146 0 c 0
 107 0 65.7871 -1 18.5752 -2 c 1
 17 0 l 1
 21.0391 19 l 2
EndSplineSet
Position2: "'cpsp' Versalabstaende 1" dx=2 dy=0 dh=5 dv=0
Substitution2: "'c2sc' Versale nach Kapitaelchen 1" b.sc
EndChar

StartChar: C
Encoding: 67 67 26
Width: 644
VWidth: 999
Flags: HMW
HStem: -12 42<270 460> 621 37<278 443>
VStem: 37 87<204 436>
AnchorPoint: "top_rechts" 764.592 732 basechar 0
AnchorPoint: "unten_punkt" 339.619 -110 basechar 0
AnchorPoint: "unten_anhang" 354.512 -7 basechar 0
AnchorPoint: "top_akzent" 520.673 850 basechar 0
LayerCount: 2
Fore
SplineSet
352.874 -10 m 0
 137.874 -10 69.7334 154 103.955 315 c 0
 145.829 512 329.862 658 495.862 658 c 0
 618.862 658 648.935 616 705.297 613 c 1
 697.819 559 695.404 510 694.351 458 c 1
 663.501 454 l 1
 655.78 540 614.998 621 476.998 621 c 0
 397.998 621 238.143 537 194.994 334 c 0
 163.961 188 205.589 31 360.589 31 c 0
 453.589 31 528.179 62 615.758 140 c 1
 626.758 140 632.482 134 635.569 125 c 1
 548.652 36 449.874 -10 352.874 -10 c 0
EndSplineSet
Position2: "'cpsp' Versalabstaende 1" dx=2 dy=0 dh=5 dv=0
Substitution2: "'c2sc' Versale nach Kapitaelchen 1" c.sc
EndChar

StartChar: D
Encoding: 68 68 27
Width: 697
VWidth: 999
Flags: HW
HStem: -2 34<19 54 193.238 414.496> 613 34<19 54 194.838 370.214>
VStem: 106 81<39.3746 605.565> 562 92<179.249 418.917>
AnchorPoint: "top_rechts" 774.592 732 basechar 0
AnchorPoint: "unten_punkt" 255.619 -110 basechar 0
AnchorPoint: "unten_anhang" 279.851 4 basechar 0
AnchorPoint: "top_akzent" 486.673 850 basechar 0
LayerCount: 2
Fore
SplineSet
20.8262 18 m 2
 21.8887 23 25.6748 26.7002 29.7393 27 c 2
 60.1641 29 l 2
 95.5527 31.2998 114.928 42 121.729 74 c 2
 227.582 572 l 2
 235.234 608 224.918 613.1 184.935 616 c 2
 157.36 618 l 2
 152.445 618.4 148.998 621 150.061 626 c 2
 154.099 645 l 1
 156.524 647 l 1
 203.312 646 244.099 645 283.099 645 c 0
 323.099 645 382.524 647 446.524 647 c 0
 638.524 647 759.003 494 719.468 308 c 0
 667.179 62 467.575 -2 326.575 -2 c 0
 223.575 -2 185 0 146 0 c 0
 106 0 65.7871 -1 18.5752 -2 c 1
 17 0 l 1
 20.8262 18 l 2
202.517 73 m 2
 195.715 41 204.802 32 302.802 32 c 0
 443.802 32 579.43 82 622.366 284 c 0
 655.1 438 617.297 613 401.297 613 c 0
 352.297 613 316.447 609 309.008 574 c 2
 202.517 73 l 2
EndSplineSet
Position2: "'cpsp' Versalabstaende 1" dx=2 dy=0 dh=5 dv=0
Substitution2: "'c2sc' Versale nach Kapitaelchen 1" d.sc
EndChar

StartChar: E
Encoding: 69 69 28
Width: 549
VWidth: 999
Flags: HMW
HStem: -2 29<14 50> 0 39<183.683 419.99> 323 38<182 352.428> 605 40<183.978 390.274> 618 29<14 50>
VStem: 101 81<40.4896 323 361 603.333> 362 33<252 285 403 436> 438 29<499.793 534.305> 489 31<133.405 166.129>
AnchorPoint: "top_rechts" 674.592 732 basechar 0
AnchorPoint: "unten_anhang" 279.851 4 basechar 0
AnchorPoint: "unten_punkt" 255.619 -110 basechar 0
AnchorPoint: "top_akzent" 453.673 850 basechar 0
LayerCount: 2
Fore
SplineSet
582.312 646 m 0
 582.611 638 577.206 542 573.491 501 c 1
 543.428 496 l 1
 536.095 565 526.597 605 451.597 605 c 2
 346.597 605 l 2
 322.597 605 308.471 595 303.37 571 c 2
 258.732 361 l 1
 385.732 361 l 2
 420.732 361 435.709 375 444.66 403 c 2
 452.975 428 l 2
 453.824 432 457.675 436 461.675 436 c 2
 483.675 436 l 1
 486.824 432 l 1
 475.322 392 467.945 362 463.694 342 c 0
 459.443 322 454.704 295 449.202 255 c 1
 444.564 252 l 1
 422.564 252 l 2
 417.564 252 416.627 257 417.265 260 c 2
 419.578 285 l 2
 422.743 314 411.656 323 377.656 323 c 2
 250.656 323 l 1
 197.304 72 l 2
 191.565 45 204.29 39 226.29 39 c 2
 362.29 39 l 2
 438.29 39 489.83 98 525.135 170 c 1
 555.072 165 l 1
 532.019 113 504.628 50 482.575 -2 c 1
 482.575 -2 403 0 355 0 c 2
 141 0 l 2
 102 0 60.7871 -1 13.5752 -2 c 1
 12 0 l 1
 16.251 20 l 2
 16.8887 23 19.7393 27 25.7393 27 c 2
 56.1641 29 l 2
 95.8018 32 110.353 44 116.304 72 c 2
 222.37 571 l 2
 228.959 602 218.297 613 180.935 616 c 2
 151.36 618 l 2
 144.36 618 144.21 622 144.848 625 c 2
 149.099 645 l 1
 151.524 647 l 1
 198.312 646 239.099 645 278.099 645 c 2
 531.099 645 l 2
 555.099 645 561.312 646 578.949 649 c 0
 581.949 649 582.736 648 582.312 646 c 0
EndSplineSet
Position2: "'cpsp' Versalabstaende 1" dx=2 dy=0 dh=5 dv=0
Substitution2: "'c2sc' Versale nach Kapitaelchen 1" e.sc
EndChar

StartChar: F
Encoding: 70 70 29
Width: 477
VWidth: 999
Flags: HMW
HStem: -2 29<15 47 237 269> 323 38<182 352.428> 605 40<183.978 390.274> 618 29<14 50>
VStem: 101 81<35.9118 323 361 603.492> 362 33<252 285 403 436> 438 29<499.793 534.346>
AnchorPoint: "top_rechts" 654.592 732 basechar 0
AnchorPoint: "unten_anhang" 144.787 -1 basechar 0
AnchorPoint: "unten_punkt" 177.619 -110 basechar 0
AnchorPoint: "top_akzent" 456.673 850 basechar 0
LayerCount: 2
Fore
SplineSet
377.656 323 m 2
 250.656 323 l 1
 197.729 74 l 2
 191.14 43 204.202 32 243.164 29 c 2
 268.739 27 l 2
 273.739 27 276.102 24 275.039 19 c 2
 271 0 l 1
 268.575 -2 l 1
 221.787 -1 181 0 141 0 c 0
 102 0 61.7871 -1 14.5752 -2 c 1
 13 0 l 1
 17.0391 19 l 2
 18.1016 24 21.7393 27 26.7393 27 c 2
 53.1641 29 l 2
 96.666 32.2998 110.777 46 116.729 74 c 2
 222.37 571 l 2
 228.959 602 218.782 613.4 180.935 616 c 2
 151.36 618 l 2
 144.466 618.5 144.21 622 144.848 625 c 2
 149.099 645 l 1
 151.524 647 l 1
 198.312 646 239.099 645 278.099 645 c 2
 531.399 645 l 2
 555.599 645 561.026 645.6 579.249 649 c 0
 581.649 649 582.7 648.3 582.611 646 c 0
 582.396 638.4 577.006 542 573.491 501 c 1
 543.428 496 l 1
 536.095 565 526.597 605 451.597 605 c 2
 346.597 605 l 2
 322.597 605 308.471 595 303.37 571 c 2
 258.732 361 l 1
 385.732 361 l 2
 420.732 361 435.709 375 444.66 403 c 2
 452.975 428 l 2
 453.824 432 457.675 436 461.675 436 c 2
 483.675 436 l 1
 486.824 432 l 1
 475.322 392 467.945 362 463.694 342 c 0
 459.443 322 454.704 295 449.202 255 c 1
 444.564 252 l 1
 422.564 252 l 2
 417.564 252 416.627 257 417.265 260 c 2
 419.578 285 l 2
 422.743 314 411.656 323 377.656 323 c 2
EndSplineSet
Position2: "'cpsp' Versalabstaende 1" dx=2 dy=0 dh=5 dv=0
Substitution2: "'c2sc' Versale nach Kapitaelchen 1" f.sc
EndChar

StartChar: G
Encoding: 71 71 30
Width: 693
VWidth: 999
Flags: HW
HStem: -10 36<299.692 489.453> 271 36<453 485 626.062 672> 621 37<278.364 463.377>
VStem: 32 87<215.673 431.42> 540 81<83.4212 262.951> 585 30<457.6 492.683>
AnchorPoint: "top_rechts" 784.592 732 basechar 0
AnchorPoint: "unten_anhang" 365.425 2 basechar 0
AnchorPoint: "unten_punkt" 341.619 -110 basechar 0
AnchorPoint: "top_akzent" 543.673 850 basechar 0
LayerCount: 2
Fore
SplineSet
514.862 658 m 0
 636.862 658 663.297 613 723.297 613 c 1
 714.993 541 712.491 501 712.563 459 c 1
 681.288 453 l 1
 673.568 539 637.998 621 492.998 621 c 0
 357.998 621 225.703 502 188.506 327 c 0
 160.448 195 220.526 26 398.526 26 c 0
 452.526 26 514.928 42 555.729 74 c 1
 588.25 227 l 2
 594.84 258 581.719 265.9 542.178 269 c 2
 516.603 271 l 2
 512.667 271.3 509.24 274 510.304 279 c 2
 515.83 305 l 1
 518.255 307 l 1
 565.042 306 605.83 305 644.83 305 c 0
 684.83 305 707.042 306 737.255 307 c 1
 738.83 305 l 1
 733.304 279 l 2
 732.24 274 728.709 271.5 723.603 271 c 0
 693.965 268 676.732 262.2 669.25 227 c 2
 644.594 111 l 2
 642.256 100 645.555 92 654.643 83 c 1
 574.313 25 485.874 -10 367.874 -10 c 0
 166.874 -10 60.4824 134 97.2549 307 c 0
 144.018 527 342.862 658 514.862 658 c 0
EndSplineSet
Position2: "'cpsp' Versalabstaende 1" dx=2 dy=0 dh=5 dv=0
Substitution2: "'c2sc' Versale nach Kapitaelchen 1" g.sc
EndChar

StartChar: grave
Encoding: 96 96 31
Width: 392
VWidth: 999
Flags: HW
LayerCount: 2
Fore
SplineSet
326.577 699 m 1
 369.795 573 l 2
 372.669 563 372.182 556 370.693 549 c 0
 369.631 544 361.355 538 353.355 538 c 0
 347.355 538 341.418 543 328.606 558 c 2
 237.775 667 l 1
 242.113 678 l 1
 251.389 684 278.002 701 312.002 701 c 0
 317.002 701 322.79 700 326.577 699 c 1
EndSplineSet
Substitution2: "'case' Versalformen 1" uni0358
Colour: ff00ff
EndChar

StartChar: ograve
Encoding: 242 242 32
Width: 484
VWidth: 999
Flags: HW
HStem: -10 33<205.005 309.227> 406 33<180.317 289.2>
VStem: 36 85<119.996 319.458> 363 85<113.472 321.738>
AnchorPoint: "komb_OR" 504.173 396 basechar 0
LayerCount: 2
Fore
SplineSet
366.625 671 m 1
 409.844 545 l 2
 412.718 535 412.229 528 410.742 521 c 0
 409.679 516 401.404 510 393.404 510 c 0
 387.404 510 381.467 515 368.655 530 c 2
 277.823 639 l 1
 282.162 650 l 1
 291.438 656 318.051 673 352.051 673 c 0
 357.051 673 362.838 672 366.625 671 c 1
79.5742 205 m 0
 108.694 342 203.312 439 336.312 439 c 0
 484.312 439 515.593 318 493.487 214 c 0
 472.231 114 380.874 -10 238.874 -10 c 0
 104.874 -10 57.8936 103 79.5742 205 c 0
318.298 406 m 0
 238.298 406 187.955 315 169.463 228 c 0
 153.096 151 163.889 23 262.889 23 c 0
 307.889 23 373.628 50 401.686 182 c 0
 432.931 329 400.298 406 318.298 406 c 0
EndSplineSet
Substitution2: "'smcp' Gemeine nach Kapitaelchen 1" ograve.sc
AlternateSubs2: "'aalt' Alle Alternativen zeigen 1" ograve.sc
Colour: ff00ff
EndChar

StartChar: oacute
Encoding: 243 243 33
Width: 484
VWidth: 999
Flags: HW
HStem: -10 33<205.005 309.227> 406 33<180.317 289.2>
VStem: 36 85<119.996 319.458> 363 85<113.472 321.738>
AnchorPoint: "komb_OR" 504.173 396 basechar 0
LayerCount: 2
Fore
SplineSet
412.625 671 m 1
 415.838 672 422.051 673 427.051 673 c 0
 433.45 673 458.838 672 477.162 650 c 1
 477.823 639 l 1
 339.655 530 l 2
 321.467 515 312.616 511 305.616 511 c 0
 298.616 511 292.892 517 294.38 524 c 0
 296.761 535.2 300.91 539.2 311.731 552 c 2
 412.625 671 l 1
79.5742 205 m 0
 108.694 342 203.312 439 336.312 439 c 0
 484.312 439 515.593 318 493.487 214 c 0
 472.231 114 380.874 -10 238.874 -10 c 0
 104.874 -10 57.8936 103 79.5742 205 c 0
318.298 406 m 0
 238.298 406 187.955 315 169.463 228 c 0
 153.096 151 163.889 23 262.889 23 c 0
 307.889 23 373.628 50 401.686 182 c 0
 432.931 329 400.298 406 318.298 406 c 0
EndSplineSet
Substitution2: "'smcp' Gemeine nach Kapitaelchen 1" oacute.sc
AlternateSubs2: "'aalt' Alle Alternativen zeigen 1" oacute.sc
Colour: ff00ff
EndChar

StartChar: ocircumflex
Encoding: 244 244 34
Width: 484
VWidth: 999
Flags: HW
HStem: -10 33<205.005 309.227> 406 33<180.317 289.2>
VStem: 36 85<119.996 319.458> 115 253<517 517> 363 85<113.472 321.738>
AnchorPoint: "komb_OR" 504.173 396 basechar 0
LayerCount: 2
Fore
SplineSet
404.312 646 m 1
 423.321 599 450.394 557 477.892 517 c 1
 453.916 503 l 1
 421.08 532 393.394 557 367.046 593 c 1
 321.969 555 284.655 530 240.916 503 c 1
 223.892 517 l 1
 268.394 557 315.534 600 354.312 646 c 1
 404.312 646 l 1
79.5742 205 m 0
 108.694 342 203.312 439 336.312 439 c 0
 484.312 439 515.593 318 493.487 214 c 0
 472.231 114 380.874 -10 238.874 -10 c 0
 104.874 -10 57.8936 103 79.5742 205 c 0
318.298 406 m 0
 238.298 406 187.955 315 169.463 228 c 0
 153.096 151 163.889 23 262.889 23 c 0
 307.889 23 373.628 50 401.686 182 c 0
 432.931 329 400.298 406 318.298 406 c 0
EndSplineSet
Substitution2: "'smcp' Gemeine nach Kapitaelchen 1" ocircumflex.sc
AlternateSubs2: "'aalt' Alle Alternativen zeigen 1" ocircumflex.sc
Colour: ff00ff
EndChar

StartChar: otilde
Encoding: 245 245 35
Width: 484
VWidth: 999
Flags: HW
HStem: -10 33<205.005 309.227> 406 33<180.317 289.2> 526 44<253 340> 574 46<135 226> 613 10
VStem: 36 85<119.996 319.458> 363 85<113.472 321.738>
AnchorPoint: "komb_OR" 504.173 396 basechar 0
LayerCount: 2
Fore
SplineSet
425.157 570 m 0
 447.157 570 463.283 580 486.21 622 c 1
 508.935 616 l 1
 484.182 556 448.805 526 402.805 526 c 0
 380.805 526 362.355 538 344.331 552 c 0
 328.669 563 312.008 574 295.008 574 c 0
 269.008 574 252.819 559 235.805 526 c 1
 212.867 531 l 1
 239.408 590 268.785 620 311.785 620 c 0
 341.785 620 360.81 606 377.834 592 c 0
 391.283 580 406.157 570 425.157 570 c 0
79.5742 205 m 0
 108.694 342 203.312 439 336.312 439 c 0
 484.312 439 515.593 318 493.487 214 c 0
 472.231 114 380.874 -10 238.874 -10 c 0
 104.874 -10 57.8936 103 79.5742 205 c 0
318.298 406 m 0
 238.298 406 187.955 315 169.463 228 c 0
 153.096 151 163.889 23 262.889 23 c 0
 307.889 23 373.628 50 401.686 182 c 0
 432.931 329 400.298 406 318.298 406 c 0
EndSplineSet
Substitution2: "'smcp' Gemeine nach Kapitaelchen 1" otilde.sc
AlternateSubs2: "'aalt' Alle Alternativen zeigen 1" otilde.sc
Colour: ff00ff
EndChar

StartChar: odieresis
Encoding: 246 246 36
Width: 484
VWidth: 999
Flags: HW
HStem: -10 33<205.005 309.219> 406 33<180.317 289.2> 527 92<123.347 200.653 283.347 360.653>
VStem: 36 85<119.996 319.458> 116 92<534.347 611.653> 276 92<534.347 611.653> 363 85<113.472 321.738>
LayerCount: 2
Fore
SplineSet
237.795 573 m 0
 243.108 598 268.572 619 293.572 619 c 0
 318.572 619 335.108 598 329.795 573 c 0
 324.481 548 299.018 527 274.018 527 c 0
 249.018 527 232.481 548 237.795 573 c 0
397.795 573 m 0
 403.108 598 428.572 619 453.572 619 c 0
 478.572 619 495.108 598 489.795 573 c 0
 484.481 548 459.018 527 434.018 527 c 0
 409.018 527 392.481 548 397.795 573 c 0
79.5742 205 m 0
 108.694 342 203.312 439 336.312 439 c 0
 484.312 439 515.593 318 493.487 214 c 0
 472.231 114 380.874 -10 238.874 -10 c 0
 104.874 -10 57.8936 103 79.5742 205 c 0
318.298 406 m 0
 238.298 406 187.955 315 169.463 228 c 0
 153.096 151 163.889 23 262.889 23 c 0
 307.889 23 373.628 50 401.686 182 c 0
 432.931 329 400.298 406 318.298 406 c 0
EndSplineSet
Substitution2: "'smcp' Gemeine nach Kapitaelchen 1" odieresis.sc
AlternateSubs2: "'aalt' Alle Alternativen zeigen 1" odieresis.sc
Colour: ff00ff
EndChar

StartChar: divide
Encoding: 247 247 37
Width: 527
VWidth: 999
Flags: HW
HStem: 53.6 88.8<229.666 300.725> 208 49<66 461> 321.6 88.8<229.666 300.725>
VStem: 220.8 88.8<62.5104 133.57> 220.8 88.8<330.51 401.57>
LayerCount: 2
Fore
SplineSet
298.596 366 m 0
 303.761 390.3 328.133 410.4 352.434 410.4 c 0
 376.733 410.4 392.561 390.3 387.396 366 c 0
 382.23 341.7 357.858 321.6 333.559 321.6 c 0
 309.258 321.6 293.431 341.7 298.596 366 c 0
241.631 98 m 0
 246.796 122.3 271.168 142.4 295.468 142.4 c 0
 319.768 142.4 335.596 122.3 330.431 98 c 0
 325.266 73.7002 300.893 53.5996 276.593 53.5996 c 0
 252.293 53.5996 236.466 73.7002 241.631 98 c 0
515.627 257 m 1
 505.212 208 l 1
 110.212 208 l 1
 120.627 257 l 1
 515.627 257 l 1
EndSplineSet
Colour: ff00ff
EndChar

StartChar: ugrave
Encoding: 249 249 38
Width: 517
VWidth: 999
Flags: HW
HStem: -10 45<187.687 289.999> 30 23<453 501> 402 29<28 44 293 309>
VStem: 88 75<61.0204 394.9> 353 75<82.098 394.9>
LayerCount: 2
Fore
SplineSet
361.625 671 m 1
 404.844 545 l 2
 407.718 535 407.229 528 405.742 521 c 0
 404.679 516 396.404 510 388.404 510 c 0
 382.404 510 376.467 515 363.655 530 c 2
 272.823 639 l 1
 277.162 650 l 1
 286.438 656 313.051 673 347.051 673 c 0
 352.051 673 357.838 672 361.625 671 c 1
427.82 352 m 2
 434.834 385 427.908 395.7 394.022 400 c 2
 378.447 402 l 1
 375.873 404 l 1
 381.187 429 l 1
 384.612 431 l 1
 421.399 430 451.187 429 483.187 429 c 0
 498.187 429 513.399 430 518.612 431 c 0
 521.012 431 522.527 430.6 522.166 428.9 c 2
 522.166 428.9 504.945 362 498.568 332 c 2
 452.656 116 l 2
 442.028 66 444.396 60.2002 465.328 58 c 2
 512.266 53 l 1
 510.377 30 l 1
 446.039 19 399.275 6 373.449 -12 c 1
 350.449 -12 l 1
 368.604 64 l 1
 366.604 64 l 1
 297.851 4 251.874 -10 210.874 -10 c 0
 111.874 -10 100.115 57 114.782 126 c 2
 162.82 352 l 2
 169.834 385 162.908 395.7 129.022 400 c 2
 113.447 402 l 1
 110.873 404 l 1
 116.187 429 l 1
 119.612 431 l 1
 156.399 430 186.187 429 218.187 429 c 0
 233.187 429 248.399 430 253.612 431 c 0
 256.012 431 257.527 430.6 257.165 428.9 c 2
 257.165 428.9 239.945 362 233.568 332 c 2
 192.758 140 l 2
 173.841 51 216.439 35 246.439 35 c 0
 292.239 35 348.328 78.7002 375.105 104 c 1
 427.82 352 l 2
EndSplineSet
Substitution2: "'smcp' Gemeine nach Kapitaelchen 1" ugrave.sc
AlternateSubs2: "'aalt' Alle Alternativen zeigen 1" ugrave.sc
Colour: ff00ff
EndChar

StartChar: uacute
Encoding: 250 250 39
Width: 517
VWidth: 999
Flags: HW
HStem: -10 45<187.687 289.999> 30 23<453 501> 402 29<28 44 293 309>
VStem: 88 75<61.0204 394.9> 353 75<82.098 394.9>
LayerCount: 2
Fore
SplineSet
439.625 671 m 1
 442.838 672 449.051 673 454.051 673 c 0
 460.45 673 485.838 672 504.162 650 c 1
 504.823 639 l 1
 366.655 530 l 2
 348.467 515 339.616 511 332.616 511 c 0
 325.616 511 319.892 517 321.38 524 c 0
 323.761 535.2 327.91 539.2 338.731 552 c 2
 439.625 671 l 1
427.82 352 m 2
 434.834 385 427.908 395.7 394.022 400 c 2
 378.447 402 l 1
 375.873 404 l 1
 381.187 429 l 1
 384.612 431 l 1
 421.399 430 451.187 429 483.187 429 c 0
 498.187 429 513.399 430 518.612 431 c 0
 521.012 431 522.527 430.6 522.166 428.9 c 2
 522.166 428.9 504.945 362 498.568 332 c 2
 452.656 116 l 2
 442.028 66 444.396 60.2002 465.328 58 c 2
 512.266 53 l 1
 510.377 30 l 1
 446.039 19 399.275 6 373.449 -12 c 1
 350.449 -12 l 1
 368.604 64 l 1
 366.604 64 l 1
 297.851 4 251.874 -10 210.874 -10 c 0
 111.874 -10 100.115 57 114.782 126 c 2
 162.82 352 l 2
 169.834 385 162.908 395.7 129.022 400 c 2
 113.447 402 l 1
 110.873 404 l 1
 116.187 429 l 1
 119.612 431 l 1
 156.399 430 186.187 429 218.187 429 c 0
 233.187 429 248.399 430 253.612 431 c 0
 256.012 431 257.527 430.6 257.165 428.9 c 2
 257.165 428.9 239.945 362 233.568 332 c 2
 192.758 140 l 2
 173.841 51 216.439 35 246.439 35 c 0
 292.239 35 348.328 78.7002 375.105 104 c 1
 427.82 352 l 2
EndSplineSet
Substitution2: "'smcp' Gemeine nach Kapitaelchen 1" uacute.sc
AlternateSubs2: "'aalt' Alle Alternativen zeigen 1" uacute.sc
Colour: ff00ff
EndChar

StartChar: ucircumflex
Encoding: 251 251 40
Width: 517
VWidth: 999
Flags: HW
HStem: -10 45<187.687 290.565> 30 23<453 501> 402 29<28 44 293 309>
VStem: 88 75<61.0204 394.9> 120 253<517 517> 353 75<82.098 394.9>
LayerCount: 2
Fore
SplineSet
409.312 646 m 1
 428.321 599 455.394 557 482.892 517 c 1
 458.916 503 l 1
 426.08 532 398.394 557 372.046 593 c 1
 326.969 555 289.655 530 245.916 503 c 1
 228.892 517 l 1
 273.394 557 320.534 600 359.312 646 c 1
 409.312 646 l 1
427.82 352 m 2
 434.834 385 427.908 395.7 394.022 400 c 2
 378.447 402 l 1
 375.873 404 l 1
 381.187 429 l 1
 384.612 431 l 1
 421.399 430 451.187 429 483.187 429 c 0
 498.187 429 513.399 430 518.612 431 c 0
 521.012 431 522.527 430.6 522.166 428.9 c 2
 522.166 428.9 504.945 362 498.568 332 c 2
 452.656 116 l 2
 442.028 66 444.396 60.2002 465.328 58 c 2
 512.266 53 l 1
 510.377 30 l 1
 446.039 19 399.275 6 373.449 -12 c 1
 350.449 -12 l 1
 368.604 64 l 1
 366.604 64 l 1
 297.851 4 251.874 -10 210.874 -10 c 0
 111.874 -10 100.115 57 114.782 126 c 2
 162.82 352 l 2
 169.834 385 162.908 395.7 129.022 400 c 2
 113.447 402 l 1
 110.873 404 l 1
 116.187 429 l 1
 119.612 431 l 1
 156.399 430 186.187 429 218.187 429 c 0
 233.187 429 248.399 430 253.612 431 c 0
 256.012 431 257.527 430.6 257.165 428.9 c 2
 257.165 428.9 239.945 362 233.568 332 c 2
 192.758 140 l 2
 173.841 51 216.439 35 246.439 35 c 0
 292.239 35 348.328 78.7002 375.105 104 c 1
 427.82 352 l 2
EndSplineSet
Substitution2: "'smcp' Gemeine nach Kapitaelchen 1" ucircumflex.sc
AlternateSubs2: "'aalt' Alle Alternativen zeigen 1" ucircumflex.sc
Colour: ff00ff
EndChar

StartChar: ebreve
Encoding: 277 277 41
Width: 427
VWidth: 999
Flags: HW
HStem: -10 49<195.372 321.672> 248 39<117 314.997> 405 34<173.337 282.104> 501 57<158.968 295.898>
VStem: 34 80<137.009 248> 93 26<607.805 639.769> 315 80<259.5 367.016> 336 27<609.333 639.63>
AnchorPoint: "ogonek" 369.928 42 basechar 0
AnchorPoint: "unten_anhang" 241.575 -2 basechar 0
AnchorPoint: "unten_punkt" 212.619 -110 basechar 0
AnchorPoint: "top_akzent" 395.982 795 basechar 0
LayerCount: 2
Fore
SplineSet
257.736 648 m 1
 257.471 595 292.606 558 346.606 558 c 0
 398.606 558 451.408 590 473.736 648 c 1
 498.186 636 l 1
 467.906 550 393.491 501 334.491 501 c 0
 264.491 501 224.119 551 228.186 636 c 1
 257.736 648 l 1
178.004 287 m 1
 362.004 287 l 2
 372.004 287 377.066 292 378.979 301 c 0
 396.834 385 354.085 405 318.085 405 c 0
 295.085 405 220.022 400 178.004 287 c 1
401.193 95 m 1
 411.98 94 416.918 89 417.792 79 c 1
 368.739 27 301.874 -10 229.874 -10 c 0
 92.874 -10 51.8545 84 76.2988 199 c 0
 108.607 351 230.312 439 325.312 439 c 0
 457.312 439 469.183 349 451.327 265 c 0
 448.989 254 440.714 248 429.714 248 c 2
 166.714 248 l 1
 135.043 99 208.29 39 264.29 39 c 0
 319.29 39 358.115 57 401.193 95 c 1
EndSplineSet
Colour: ff00ff
EndChar

StartChar: Edotaccent
Encoding: 278 278 42
Width: 549
VWidth: 999
Flags: HW
HStem: -2 29<14 50> 0 39<183.683 419.99> 323 38<182 352.245> 416 20<367 392.5> 605 40<183.485 390.274> 618 28<14 50> 688 104<238.542 321.458>
VStem: 101 81<40.3443 323 361 603.225> 228 104<698.542 781.458> 361 34<252 316.054 403 436> 438 29<499.793 534.346> 489 31<128.12 166.129>
LayerCount: 2
Fore
SplineSet
385.292 740 m 0
 391.243 768 420.345 792 448.345 792 c 0
 476.345 792 495.243 768 489.292 740 c 0
 483.34 712 454.239 688 426.239 688 c 0
 398.239 688 379.34 712 385.292 740 c 0
582.312 646 m 0
 582.611 638 577.206 542 573.491 501 c 1
 543.428 496 l 1
 536.095 565 526.597 605 451.597 605 c 2
 346.597 605 l 2
 322.597 605 308.471 595 303.37 571 c 2
 258.732 361 l 1
 385.732 361 l 2
 420.732 361 435.709 375 444.66 403 c 2
 452.975 428 l 2
 453.824 432 457.675 436 461.675 436 c 2
 483.675 436 l 1
 486.824 432 l 1
 475.322 392 467.945 362 463.694 342 c 0
 459.443 322 454.704 295 449.202 255 c 1
 444.564 252 l 1
 422.564 252 l 2
 417.564 252 416.627 257 417.265 260 c 2
 419.578 285 l 2
 422.743 314 411.656 323 377.656 323 c 2
 250.656 323 l 1
 197.304 72 l 2
 191.565 45 204.29 39 226.29 39 c 2
 362.29 39 l 2
 438.29 39 489.83 98 525.135 170 c 1
 555.072 165 l 1
 532.019 113 504.628 50 482.575 -2 c 1
 482.575 -2 403 0 355 0 c 2
 141 0 l 2
 102 0 60.7871 -1 13.5752 -2 c 1
 12 0 l 1
 16.251 20 l 2
 16.8887 23 19.7393 27 25.7393 27 c 2
 56.1641 29 l 2
 95.8018 32 110.353 44 116.304 72 c 2
 222.37 571 l 2
 228.959 602 218.297 613 180.935 616 c 2
 151.36 618 l 2
 144.36 618 144.21 622 144.848 625 c 2
 149.099 645 l 1
 151.524 647 l 1
 198.312 646 239.099 645 278.099 645 c 2
 531.099 645 l 2
 555.099 645 561.312 646 578.949 649 c 0
 581.949 649 582.736 648 582.312 646 c 0
EndSplineSet
Position2: "'cpsp' Versalabstaende 1" dx=2 dy=0 dh=5 dv=0
Colour: ff00ff
EndChar

StartChar: edotaccent
Encoding: 279 279 43
Width: 427
VWidth: 999
Flags: HW
HStem: -10 49<195.372 321.672> 248 39<117 314.997> 405 34<173.337 282.104> 523 96<190.332 269.668>
VStem: 34 80<137.009 248 287 311.529> 182 96<531.332 610.668> 315 80<259.5 367.016>
AnchorPoint: "top_akzent" 398.982 795 basechar 0
AnchorPoint: "ogonek" 369.928 42 basechar 0
AnchorPoint: "unten_anhang" 241.575 -2 basechar 0
AnchorPoint: "unten_punkt" 212.619 -110 basechar 0
LayerCount: 2
Fore
SplineSet
303.37 571 m 0
 308.896 597 335.572 619 361.572 619 c 0
 387.572 619 404.896 597 399.37 571 c 0
 393.844 545 367.167 523 341.167 523 c 0
 315.167 523 297.844 545 303.37 571 c 0
178.004 287 m 1
 362.004 287 l 2
 372.004 287 377.066 292 378.979 301 c 0
 396.834 385 354.085 405 318.085 405 c 0
 295.085 405 220.022 400 178.004 287 c 1
401.193 95 m 1
 411.98 94 416.918 89 417.792 79 c 1
 368.739 27 301.874 -10 229.874 -10 c 0
 92.874 -10 51.8545 84 76.2988 199 c 0
 108.607 351 230.312 439 325.312 439 c 0
 457.312 439 469.183 349 451.327 265 c 0
 448.989 254 440.714 248 429.714 248 c 2
 166.714 248 l 1
 135.043 99 208.29 39 264.29 39 c 0
 319.29 39 358.115 57 401.193 95 c 1
EndSplineSet
Colour: ff00ff
EndChar

StartChar: Eogonek
Encoding: 280 280 44
Width: 549
VWidth: 999
Flags: HW
HStem: -200 38<372.519 455.833> -2 17<444.684 471> -2 29<14 50> 0 39<183.683 419.99> 323 38<182 352.245> 416 20<367 392.5> 605 40<183.485 390.274> 618 28<14 50>
VStem: 101 81<40.3443 323 361 603.225> 303 62<-155.299 -63.1465> 361 34<252 316.054 403 436> 438 29<499.793 534.346> 489 31<128.12 166.129>
LayerCount: 2
Fore
SplineSet
472.305 -135 m 1
 433.74 -180 389.488 -200 348.488 -200 c 0
 298.488 -200 264.74 -180 276.218 -126 c 0
 285.018 -84.5996 332.654 -27.5 398.515 -0.400391 c 1
 383.157 -0.200195 367.9 0 355 0 c 2
 141 0 l 2
 102 0 60.7871 -1 13.5752 -2 c 1
 12 0 l 1
 16.251 20 l 2
 16.8887 23 19.7393 27 25.7393 27 c 2
 56.1641 29 l 2
 95.8018 32 110.353 44 116.304 72 c 2
 222.37 571 l 2
 228.959 602 218.297 613 180.935 616 c 2
 151.36 618 l 2
 144.36 618 144.21 622 144.848 625 c 2
 149.099 645 l 1
 151.524 647 l 1
 198.312 646 239.099 645 278.099 645 c 2
 531.099 645 l 2
 555.099 645 561.312 646 578.949 649 c 0
 581.949 649 582.736 648 582.312 646 c 0
 582.611 638 577.206 542 573.491 501 c 1
 543.428 496 l 1
 536.095 565 526.597 605 451.597 605 c 2
 346.597 605 l 2
 322.597 605 308.471 595 303.37 571 c 2
 258.732 361 l 1
 385.732 361 l 2
 420.732 361 435.709 375 444.66 403 c 2
 452.975 428 l 2
 453.824 432 457.675 436 461.675 436 c 2
 483.675 436 l 1
 486.824 432 l 1
 475.322 392 467.945 362 463.694 342 c 0
 459.443 322 454.704 295 449.202 255 c 1
 444.564 252 l 1
 422.564 252 l 2
 417.564 252 416.627 257 417.265 260 c 2
 419.578 285 l 2
 422.743 314 411.656 323 377.656 323 c 2
 250.656 323 l 1
 197.304 72 l 2
 191.565 45 204.29 39 226.29 39 c 2
 362.29 39 l 2
 438.29 39 489.83 98 525.135 170 c 1
 555.072 165 l 1
 483.379 -0.0996094 l 1
 484.575 -2 l 1
 413.575 -2 350.334 -69 340.556 -115 c 0
 335.029 -141 343.565 -162 380.565 -162 c 0
 409.565 -162 428.967 -146 455.643 -124 c 1
 464.643 -124 469.793 -128 472.305 -135 c 1
EndSplineSet
Position2: "'cpsp' Versalabstaende 1" dx=2 dy=0 dh=5 dv=0
Substitution2: "'c2sc' Versale nach Kapitaelchen 1" eogonek.sc
Colour: ff9ccc
EndChar

StartChar: eogonek
Encoding: 281 281 45
Width: 427
VWidth: 999
Flags: HW
HStem: -200 38<244.519 327.833> -10 49<195.372 321.672> 248 39<117 314.997> 405 34<173.337 282.104>
VStem: 34 80<137.009 248> 175 62<-155.299 -69.1643> 315 80<259.5 367.016>
AnchorPoint: "unten_punkt" 47.0439 -108 basechar 0
AnchorPoint: "top_akzent" 368.099 645 basechar 0
LayerCount: 2
Fore
SplineSet
344.305 -135 m 1
 305.74 -180 261.488 -200 220.488 -200 c 0
 170.488 -200 136.74 -180 148.218 -126 c 0
 157.018 -84.5996 200.25 -45.4004 258.699 -8 c 1
 249.224 -9.2998 239.574 -10 229.874 -10 c 0
 92.874 -10 51.8545 84 76.2988 199 c 0
 108.607 351 230.312 439 325.312 439 c 0
 457.312 439 469.183 349 451.327 265 c 0
 448.989 254 440.714 248 429.714 248 c 2
 166.714 248 l 1
 135.043 99 208.29 39 264.29 39 c 0
 319.29 39 358.115 57 401.193 95 c 1
 411.98 94 416.918 89 417.792 79 c 1
 400.238 60.4004 380.389 43.7002 358.756 29.9004 c 1
 265.64 -35.0996 222.844 -66.5996 212.556 -115 c 0
 207.029 -141 215.565 -162 252.565 -162 c 0
 281.565 -162 300.967 -146 327.643 -124 c 1
 336.643 -124 341.793 -128 344.305 -135 c 1
178.004 287 m 1
 362.004 287 l 2
 372.004 287 377.066 292 378.979 301 c 0
 396.834 385 354.085 405 318.085 405 c 0
 295.085 405 220.022 400 178.004 287 c 1
EndSplineSet
AlternateSubs2: "'aalt' Alle Alternativen zeigen 1" eogonek.sc
Substitution2: "'smcp' Gemeine nach Kapitaelchen 1" eogonek.sc
Colour: ff00ff
EndChar

StartChar: Ecaron
Encoding: 282 282 46
Width: 549
VWidth: 999
Flags: HW
HStem: -2 29<14 50> 0 39<183.683 419.99> 323 38<182 352.245> 416 20<367 392.5> 605 40<183.485 390.274> 618 28<14 50>
VStem: 101 81<40.3443 323 361 603.225> 361 34<252 316.054 403 436> 438 29<499.793 534.346> 489 31<128.12 166.129>
LayerCount: 2
Fore
SplineSet
416.152 697 m 1
 394.017 734 365.394 764 335.345 792 c 1
 355.596 812 l 1
 390.982 795 420.944 776 448.63 751 c 1
 491.156 777 527.195 796 568.596 812 c 1
 579.345 792 l 1
 535.181 763 496.379 731 459.152 697 c 1
 416.152 697 l 1
582.312 646 m 0
 582.611 638 577.206 542 573.491 501 c 1
 543.428 496 l 1
 536.095 565 526.597 605 451.597 605 c 2
 346.597 605 l 2
 322.597 605 308.471 595 303.37 571 c 2
 258.732 361 l 1
 385.732 361 l 2
 420.732 361 435.709 375 444.66 403 c 2
 452.975 428 l 2
 453.824 432 457.675 436 461.675 436 c 2
 483.675 436 l 1
 486.824 432 l 1
 475.322 392 467.945 362 463.694 342 c 0
 459.443 322 454.704 295 449.202 255 c 1
 444.564 252 l 1
 422.564 252 l 2
 417.564 252 416.627 257 417.265 260 c 2
 419.578 285 l 2
 422.743 314 411.656 323 377.656 323 c 2
 250.656 323 l 1
 197.304 72 l 2
 191.565 45 204.29 39 226.29 39 c 2
 362.29 39 l 2
 438.29 39 489.83 98 525.135 170 c 1
 555.072 165 l 1
 532.019 113 504.628 50 482.575 -2 c 1
 482.575 -2 403 0 355 0 c 2
 141 0 l 2
 102 0 60.7871 -1 13.5752 -2 c 1
 12 0 l 1
 16.251 20 l 2
 16.8887 23 19.7393 27 25.7393 27 c 2
 56.1641 29 l 2
 95.8018 32 110.353 44 116.304 72 c 2
 222.37 571 l 2
 228.959 602 218.297 613 180.935 616 c 2
 151.36 618 l 2
 144.36 618 144.21 622 144.848 625 c 2
 149.099 645 l 1
 151.524 647 l 1
 198.312 646 239.099 645 278.099 645 c 2
 531.099 645 l 2
 555.099 645 561.312 646 578.949 649 c 0
 581.949 649 582.736 648 582.312 646 c 0
EndSplineSet
Position2: "'cpsp' Versalabstaende 1" dx=2 dy=0 dh=5 dv=0
Substitution2: "'c2sc' Versale nach Kapitaelchen 1" ecaron.sc
Colour: ff00ff
EndChar

StartChar: ecaron
Encoding: 283 283 47
Width: 427
VWidth: 999
Flags: HW
HStem: -10 49<195.372 321.672> 248 39<117 314.997> 405 34<173.337 282.104>
VStem: 34 80<137.009 248> 315 80<259.5 367.016>
LayerCount: 2
Fore
SplineSet
305.491 501 m 1
 286.481 548 259.046 593 232.123 631 c 1
 254.887 644 l 1
 287.723 615 315.408 590 341.756 554 c 1
 386.834 592 426.147 617 468.887 644 c 1
 485.123 631 l 1
 441.834 592 394.269 547 355.491 501 c 1
 305.491 501 l 1
178.004 287 m 1
 362.004 287 l 2
 372.004 287 377.066 292 378.979 301 c 0
 396.834 385 354.085 405 318.085 405 c 0
 295.085 405 220.022 400 178.004 287 c 1
401.193 95 m 1
 411.98 94 416.918 89 417.792 79 c 1
 368.739 27 301.874 -10 229.874 -10 c 0
 92.874 -10 51.8545 84 76.2988 199 c 0
 108.607 351 230.312 439 325.312 439 c 0
 457.312 439 469.183 349 451.327 265 c 0
 448.989 254 440.714 248 429.714 248 c 2
 166.714 248 l 1
 135.043 99 208.29 39 264.29 39 c 0
 319.29 39 358.115 57 401.193 95 c 1
EndSplineSet
AlternateSubs2: "'aalt' Alle Alternativen zeigen 1" ecaron.sc
Substitution2: "'smcp' Gemeine nach Kapitaelchen 1" ecaron.sc
Colour: ff00ff
EndChar

StartChar: Gcircumflex
Encoding: 284 284 48
Width: 693
VWidth: 999
Flags: HW
HStem: -10 36<299.692 489.453> 271 36<453 485 626.062 672> 621 37<278.364 463.377>
VStem: 32 87<215.673 431.42> 540 81<83.4212 262.951> 585 30<457.6 492.683>
LayerCount: 2
Fore
SplineSet
556.108 805 m 1
 578.456 769 606.867 738 637.128 711 c 1
 616.664 690 l 1
 581.49 708 551.528 727 523.843 752 c 1
 481.104 725 445.277 707 403.664 690 c 1
 394.128 711 l 1
 437.079 739 474.881 771 513.108 805 c 1
 556.108 805 l 1
514.862 658 m 0
 636.862 658 663.297 613 723.297 613 c 1
 714.993 541 712.491 501 712.563 459 c 1
 681.288 453 l 1
 673.568 539 637.998 621 492.998 621 c 0
 357.998 621 225.703 502 188.506 327 c 0
 160.448 195 220.526 26 398.526 26 c 0
 452.526 26 514.928 42 555.729 74 c 1
 588.25 227 l 2
 594.84 258 581.719 265.9 542.178 269 c 2
 516.603 271 l 2
 512.667 271.3 509.24 274 510.304 279 c 2
 515.83 305 l 1
 518.255 307 l 1
 565.042 306 605.83 305 644.83 305 c 0
 684.83 305 707.042 306 737.255 307 c 1
 738.83 305 l 1
 733.304 279 l 2
 732.24 274 728.709 271.5 723.603 271 c 0
 693.965 268 676.732 262.2 669.25 227 c 2
 644.594 111 l 2
 642.256 100 645.555 92 654.643 83 c 1
 574.313 25 485.874 -10 367.874 -10 c 0
 166.874 -10 60.4824 134 97.2549 307 c 0
 144.018 527 342.862 658 514.862 658 c 0
EndSplineSet
Position2: "'cpsp' Versalabstaende 1" dx=2 dy=0 dh=5 dv=0
Colour: ff00ff
EndChar

StartChar: gcircumflex
Encoding: 285 285 49
Width: 479
VWidth: 999
Flags: HW
HStem: -238 37<152.298 302.696> -12 61<172.809 359.728> 136 31<175.133 272.366> 408 31<167.815 264.598>
VStem: 32 66<-157.965 -57.3985> 59 78<210.052 363.612> 103 253<516 516> 308 76<209.75 368.749> 401 52<-133.448 -47.7496>
LayerCount: 2
Fore
SplineSet
392.099 645 m 1
 411.108 598 438.182 556 465.679 516 c 1
 441.703 502 l 1
 408.867 531 381.182 556 354.834 592 c 1
 309.756 554 272.442 529 228.703 502 c 1
 211.679 516 l 1
 256.182 556 303.321 599 342.099 645 c 1
 392.099 645 l 1
367.304 279 m 0
 384.945 362 360.723 408 300.723 408 c 0
 248.723 408 216.071 372 201.192 302 c 0
 187.589 238 182.497 167 262.497 167 c 0
 297.497 167 347.535 186 367.304 279 c 0
125.874 -10 m 1
 90.4346 -45 83.1211 -70 75.8945 -104 c 0
 61.4404 -172 135.276 -201 169.276 -201 c 0
 255.276 -201 366.354 -163 381.657 -91 c 0
 387.184 -65 378.702 -50.7998 345.836 -29 c 0
 321.736 -13 280.449 -12 232.449 -12 c 0
 218.649 -12 192.312 -15 162.812 -15 c 0
 150.611 -15 136.037 -13 125.874 -10 c 1
510.472 388 m 0
 494.472 388 486.385 397 484.085 405 c 1
 479.998 414 476.636 417 469.636 417 c 0
 457.636 417 435.66 403 426.535 393 c 1
 448.158 363 455.419 336 445.429 289 c 0
 424.599 191 334.907 136 250.907 136 c 0
 213.907 136 187.396 143 167.371 157 c 1
 152.758 140 142.294 119 138.043 99 c 0
 128.903 56 158.928 42 186.928 42 c 0
 191.928 42 202.14 43 216.353 44 c 0
 239.99 47 263.415 49 280.415 49 c 0
 315.415 49 383.703 48 414.401 16 c 0
 437.32 -7.90039 445.985 -33 439.184 -65 c 0
 416.228 -173 262.411 -238 133.411 -238 c 0
 60.4111 -238 -12.8496 -211 5.64258 -124 c 0
 14.7832 -81 51.5605 -35 109.362 -3 c 1
 87.126 10 75.0771 38 82.7295 74 c 0
 89.9561 108 114.096 151 146.197 175 c 1
 124.937 202 108.525 233 120.004 287 c 0
 139.559 379 231.312 439 316.312 439 c 0
 372.312 439 401.062 419 410.36 411 c 1
 442.588 445 491.201 462 516.201 462 c 0
 542.201 462 556.588 445 552.124 424 c 0
 547.447 402 530.472 388 510.472 388 c 0
EndSplineSet
Colour: ff00ff
EndChar

StartChar: Gbreve
Encoding: 286 286 50
Width: 693
VWidth: 999
Flags: HW
HStem: -10 36<299.692 489.453> 271 36<453 485 626.062 672> 621 37<278.364 463.377> 693 52<293 449>
VStem: 32 87<215.673 431.42> 236 28<766 804> 480 27<768 806> 540 81<83.4212 262.951> 585 30<457.6 492.683>
LayerCount: 2
Fore
SplineSet
679.32 806 m 1
 658.229 735 585.302 693 519.302 693 c 0
 446.302 693 397.441 736 407.32 806 c 1
 435.32 806 l 1
 435.031 767 477.354 745 530.354 745 c 0
 579.354 745 636.031 767 651.32 806 c 1
 679.32 806 l 1
514.862 658 m 0
 636.862 658 663.297 613 723.297 613 c 1
 714.993 541 712.491 501 712.563 459 c 1
 681.288 453 l 1
 673.568 539 637.998 621 492.998 621 c 0
 357.998 621 225.703 502 188.506 327 c 0
 160.448 195 220.526 26 398.526 26 c 0
 452.526 26 514.928 42 555.729 74 c 1
 588.25 227 l 2
 594.84 258 581.719 265.9 542.178 269 c 2
 516.603 271 l 2
 512.667 271.3 509.24 274 510.304 279 c 2
 515.83 305 l 1
 518.255 307 l 1
 565.042 306 605.83 305 644.83 305 c 0
 684.83 305 707.042 306 737.255 307 c 1
 738.83 305 l 1
 733.304 279 l 2
 732.24 274 728.709 271.5 723.603 271 c 0
 693.965 268 676.732 262.2 669.25 227 c 2
 644.594 111 l 2
 642.256 100 645.555 92 654.643 83 c 1
 574.313 25 485.874 -10 367.874 -10 c 0
 166.874 -10 60.4824 134 97.2549 307 c 0
 144.018 527 342.862 658 514.862 658 c 0
EndSplineSet
Position2: "'cpsp' Versalabstaende 1" dx=2 dy=0 dh=5 dv=0
Substitution2: "'c2sc' Versale nach Kapitaelchen 1" gbreve.sc
Colour: ff00ff
EndChar

StartChar: gbreve
Encoding: 287 287 51
Width: 479
VWidth: 999
Flags: HW
HStem: -238 37<152.298 302.696> -12 61<172.809 359.728> 136 31<175.133 272.366> 408 31<167.815 264.598> 497 57<150.968 287.898>
VStem: 32 66<-157.965 -57.3985> 59 78<210.052 363.612> 85 26<603.805 635.769> 308 76<209.75 368.749> 328 27<605.333 635.63> 401 52<-133.448 -47.7496>
LayerCount: 2
Fore
SplineSet
248.887 644 m 1
 248.621 591 283.756 554 337.756 554 c 0
 389.756 554 442.559 586 464.887 644 c 1
 489.336 632 l 1
 459.056 546 384.641 497 325.641 497 c 0
 255.641 497 215.269 547 219.336 632 c 1
 248.887 644 l 1
367.304 279 m 0
 384.945 362 360.723 408 300.723 408 c 0
 248.723 408 216.071 372 201.192 302 c 0
 187.589 238 182.497 167 262.497 167 c 0
 297.497 167 347.535 186 367.304 279 c 0
125.874 -10 m 1
 90.4346 -45 83.1211 -70 75.8945 -104 c 0
 61.4404 -172 135.276 -201 169.276 -201 c 0
 255.276 -201 366.354 -163 381.657 -91 c 0
 387.184 -65 378.702 -50.7998 345.836 -29 c 0
 321.736 -13 280.449 -12 232.449 -12 c 0
 218.649 -12 192.312 -15 162.812 -15 c 0
 150.611 -15 136.037 -13 125.874 -10 c 1
510.472 388 m 0
 494.472 388 486.385 397 484.085 405 c 1
 479.998 414 476.636 417 469.636 417 c 0
 457.636 417 435.66 403 426.535 393 c 1
 448.158 363 455.419 336 445.429 289 c 0
 424.599 191 334.907 136 250.907 136 c 0
 213.907 136 187.396 143 167.371 157 c 1
 152.758 140 142.294 119 138.043 99 c 0
 128.903 56 158.928 42 186.928 42 c 0
 191.928 42 202.14 43 216.353 44 c 0
 239.99 47 263.415 49 280.415 49 c 0
 315.415 49 383.703 48 414.401 16 c 0
 437.32 -7.90039 445.985 -33 439.184 -65 c 0
 416.228 -173 262.411 -238 133.411 -238 c 0
 60.4111 -238 -12.8496 -211 5.64258 -124 c 0
 14.7832 -81 51.5605 -35 109.362 -3 c 1
 87.126 10 75.0771 38 82.7295 74 c 0
 89.9561 108 114.096 151 146.197 175 c 1
 124.937 202 108.525 233 120.004 287 c 0
 139.559 379 231.312 439 316.312 439 c 0
 372.312 439 401.062 419 410.36 411 c 1
 442.588 445 491.201 462 516.201 462 c 0
 542.201 462 556.588 445 552.124 424 c 0
 547.447 402 530.472 388 510.472 388 c 0
EndSplineSet
AlternateSubs2: "'aalt' Alle Alternativen zeigen 1" gbreve.sc
Substitution2: "'smcp' Gemeine nach Kapitaelchen 1" gbreve.sc
Colour: ff00ff
EndChar

StartChar: Gdotaccent
Encoding: 288 288 52
Width: 693
VWidth: 999
Flags: HW
HStem: -10 36<299.692 489.453> 271 36<453 485 626.062 672> 621 37<278.364 463.377> 700 104<334.542 417.458>
VStem: 32 87<215.673 431.42> 324 104<710.542 793.458> 540 81<83.4212 262.951> 585 30<457.6 492.683>
LayerCount: 2
Fore
SplineSet
483.843 752 m 0
 489.794 780 518.896 804 546.896 804 c 0
 574.896 804 593.794 780 587.843 752 c 0
 581.891 724 552.79 700 524.79 700 c 0
 496.79 700 477.891 724 483.843 752 c 0
514.862 658 m 0
 636.862 658 663.297 613 723.297 613 c 1
 714.993 541 712.491 501 712.563 459 c 1
 681.288 453 l 1
 673.568 539 637.998 621 492.998 621 c 0
 357.998 621 225.703 502 188.506 327 c 0
 160.448 195 220.526 26 398.526 26 c 0
 452.526 26 514.928 42 555.729 74 c 1
 588.25 227 l 2
 594.84 258 581.719 265.9 542.178 269 c 2
 516.603 271 l 2
 512.667 271.3 509.24 274 510.304 279 c 2
 515.83 305 l 1
 518.255 307 l 1
 565.042 306 605.83 305 644.83 305 c 0
 684.83 305 707.042 306 737.255 307 c 1
 738.83 305 l 1
 733.304 279 l 2
 732.24 274 728.709 271.5 723.603 271 c 0
 693.965 268 676.732 262.2 669.25 227 c 2
 644.594 111 l 2
 642.256 100 645.555 92 654.643 83 c 1
 574.313 25 485.874 -10 367.874 -10 c 0
 166.874 -10 60.4824 134 97.2549 307 c 0
 144.018 527 342.862 658 514.862 658 c 0
EndSplineSet
Position2: "'cpsp' Versalabstaende 1" dx=2 dy=0 dh=5 dv=0
Colour: ff00ff
EndChar

StartChar: gdotaccent
Encoding: 289 289 53
Width: 479
VWidth: 999
Flags: HW
HStem: -238 37<152.298 302.696> -12 61<172.809 359.728> 136 31<175.133 272.366> 408 31<167.815 264.598> 522 96<185.332 264.668>
VStem: 32 66<-157.965 -57.3985> 59 78<210.052 363.612> 177 96<530.332 609.668> 308 76<209.75 368.749> 401 52<-133.448 -47.7496>
LayerCount: 2
Fore
SplineSet
298.157 570 m 0
 303.684 596 330.36 618 356.36 618 c 0
 382.36 618 399.684 596 394.157 570 c 0
 388.631 544 361.954 522 335.954 522 c 0
 309.954 522 292.631 544 298.157 570 c 0
367.304 279 m 0
 384.945 362 360.723 408 300.723 408 c 0
 248.723 408 216.071 372 201.192 302 c 0
 187.589 238 182.497 167 262.497 167 c 0
 297.497 167 347.535 186 367.304 279 c 0
125.874 -10 m 1
 90.4346 -45 83.1211 -70 75.8945 -104 c 0
 61.4404 -172 135.276 -201 169.276 -201 c 0
 255.276 -201 366.354 -163 381.657 -91 c 0
 387.184 -65 378.702 -50.7998 345.836 -29 c 0
 321.736 -13 280.449 -12 232.449 -12 c 0
 218.649 -12 192.312 -15 162.812 -15 c 0
 150.611 -15 136.037 -13 125.874 -10 c 1
510.472 388 m 0
 494.472 388 486.385 397 484.085 405 c 1
 479.998 414 476.636 417 469.636 417 c 0
 457.636 417 435.66 403 426.535 393 c 1
 448.158 363 455.419 336 445.429 289 c 0
 424.599 191 334.907 136 250.907 136 c 0
 213.907 136 187.396 143 167.371 157 c 1
 152.758 140 142.294 119 138.043 99 c 0
 128.903 56 158.928 42 186.928 42 c 0
 191.928 42 202.14 43 216.353 44 c 0
 239.99 47 263.415 49 280.415 49 c 0
 315.415 49 383.703 48 414.401 16 c 0
 437.32 -7.90039 445.985 -33 439.184 -65 c 0
 416.228 -173 262.411 -238 133.411 -238 c 0
 60.4111 -238 -12.8496 -211 5.64258 -124 c 0
 14.7832 -81 51.5605 -35 109.362 -3 c 1
 87.126 10 75.0771 38 82.7295 74 c 0
 89.9561 108 114.096 151 146.197 175 c 1
 124.937 202 108.525 233 120.004 287 c 0
 139.559 379 231.312 439 316.312 439 c 0
 372.312 439 401.062 419 410.36 411 c 1
 442.588 445 491.201 462 516.201 462 c 0
 542.201 462 556.588 445 552.124 424 c 0
 547.447 402 530.472 388 510.472 388 c 0
EndSplineSet
Colour: ff00ff
EndChar

StartChar: Gcommaaccent
Encoding: 290 290 54
Width: 693
VWidth: 999
Flags: HW
HStem: -226 24<326.315 356.976> -123 82<331.324 396.34> -10 36<299.692 489.453> 271 36<453 485 626.062 672> 621 37<278.364 463.377>
VStem: 32 87<215.673 431.42> 398 39<-177.408 -99.958> 540 81<83.4212 262.951> 585 30<457.6 492.683>
LayerCount: 2
Fore
SplineSet
366.285 -41 m 0
 404.285 -41 421.059 -75 410.005 -127 c 0
 397.252 -187 341.875 -217 282.962 -226 c 1
 278.237 -220 278.15 -211 280.063 -202 c 1
 331.401 -191 362.503 -167 366.329 -149 c 0
 370.58 -129 358.431 -125 340.855 -123 c 1
 324.493 -120 301.406 -111 307.146 -84 c 0
 312.247 -60 337.285 -41 366.285 -41 c 0
514.862 658 m 0
 636.862 658 663.297 613 723.297 613 c 1
 714.993 541 712.491 501 712.563 459 c 1
 681.288 453 l 1
 673.568 539 637.998 621 492.998 621 c 0
 357.998 621 225.703 502 188.506 327 c 0
 160.448 195 220.526 26 398.526 26 c 0
 452.526 26 514.928 42 555.729 74 c 1
 588.25 227 l 2
 594.84 258 581.719 265.9 542.178 269 c 2
 516.603 271 l 2
 512.667 271.3 509.24 274 510.304 279 c 2
 515.83 305 l 1
 518.255 307 l 1
 565.042 306 605.83 305 644.83 305 c 0
 684.83 305 707.042 306 737.255 307 c 1
 738.83 305 l 1
 733.304 279 l 2
 732.24 274 728.709 271.5 723.603 271 c 0
 693.965 268 676.732 262.2 669.25 227 c 2
 644.594 111 l 2
 642.256 100 645.555 92 654.643 83 c 1
 574.313 25 485.874 -10 367.874 -10 c 0
 166.874 -10 60.4824 134 97.2549 307 c 0
 144.018 527 342.862 658 514.862 658 c 0
EndSplineSet
Position2: "'cpsp' Versalabstaende 1" dx=2 dy=0 dh=5 dv=0
Colour: ff00ff
EndChar

StartChar: gcommaaccent
Encoding: 291 291 55
Width: 479
VWidth: 999
Flags: HW
HStem: -238 37<152.298 302.696> -12 61<172.809 359.728> 136 31<175.133 272.366> 408 31<167.815 264.598> 511 82<199.561 272.708> 673 17<251.498 273>
VStem: 32 66<-157.965 -57.3985> 59 78<210.052 363.612> 166 32<584 635.93> 308 76<209.75 368.749> 401 52<-133.448 -47.7496>
LayerCount: 2
Fore
SplineSet
336.616 511 m 0
 297.616 511 282.481 548 290.133 584 c 0
 295.234 608 306.91 630 327.162 650 c 0
 348.547 671.1 380.239 688 419.302 693 c 1
 422.451 689 421.538 680 420.051 673 c 1
 360.5 661 333.698 629 328.81 606 c 0
 324.644 586.4 330.846 593 355.046 593 c 0
 395.046 593 399.944 569 396.331 552 c 0
 392.931 536 371.616 511 336.616 511 c 0
367.304 279 m 0
 384.945 362 360.723 408 300.723 408 c 0
 248.723 408 216.071 372 201.192 302 c 0
 187.589 238 182.497 167 262.497 167 c 0
 297.497 167 347.535 186 367.304 279 c 0
125.874 -10 m 1
 90.4346 -45 83.1211 -70 75.8945 -104 c 0
 61.4404 -172 135.276 -201 169.276 -201 c 0
 255.276 -201 366.354 -163 381.657 -91 c 0
 387.184 -65 378.702 -50.7998 345.836 -29 c 0
 321.736 -13 280.449 -12 232.449 -12 c 0
 218.649 -12 192.312 -15 162.812 -15 c 0
 150.611 -15 136.037 -13 125.874 -10 c 1
510.472 388 m 0
 494.472 388 486.385 397 484.085 405 c 1
 479.998 414 476.636 417 469.636 417 c 0
 457.636 417 435.66 403 426.535 393 c 1
 448.158 363 455.419 336 445.429 289 c 0
 424.599 191 334.907 136 250.907 136 c 0
 213.907 136 187.396 143 167.371 157 c 1
 152.758 140 142.294 119 138.043 99 c 0
 128.903 56 158.928 42 186.928 42 c 0
 191.928 42 202.14 43 216.353 44 c 0
 239.99 47 263.415 49 280.415 49 c 0
 315.415 49 383.703 48 414.401 16 c 0
 437.32 -7.90039 445.985 -33 439.184 -65 c 0
 416.228 -173 262.411 -238 133.411 -238 c 0
 60.4111 -238 -12.8496 -211 5.64258 -124 c 0
 14.7832 -81 51.5605 -35 109.362 -3 c 1
 87.126 10 75.0771 38 82.7295 74 c 0
 89.9561 108 114.096 151 146.197 175 c 1
 124.937 202 108.525 233 120.004 287 c 0
 139.559 379 231.312 439 316.312 439 c 0
 372.312 439 401.062 419 410.36 411 c 1
 442.588 445 491.201 462 516.201 462 c 0
 542.201 462 556.588 445 552.124 424 c 0
 547.447 402 530.472 388 510.472 388 c 0
EndSplineSet
Colour: ff00ff
EndChar

StartChar: Hcircumflex
Encoding: 292 292 56
Width: 700
VWidth: 999
Flags: HW
HStem: -2 29<20 52 242 274 427 459 649 682> 321 42<187 513> 618 29<19 52 242 274 426 459 649 681>
VStem: 106 81<35.58 321 363 609.207> 513 81<35.748 321 363 609.203>
LayerCount: 2
Fore
SplineSet
528.729 74 m 2
 581.23 321 l 1
 255.23 321 l 1
 202.304 72 l 2
 195.715 41 209.123 32.0996 248.164 29 c 2
 273.739 27 l 2
 277.675 26.7002 281.102 24 280.039 19 c 2
 276 0 l 1
 273.575 -2 l 1
 223.787 -1 196 0 146 0 c 0
 96 0 69.7871 -1 19.5752 -2 c 1
 18 0 l 1
 22.0391 19 l 2
 23.1016 24 26.6748 26.7002 30.7393 27 c 2
 58.1641 29 l 2
 99.6016 32 115.353 44 121.304 72 c 2
 228.008 574 l 2
 234.384 604 220.14 613.2 182.935 616 c 2
 156.36 618 l 2
 152.424 618.3 148.998 621 150.061 626 c 2
 154.099 645 l 1
 156.524 647 l 1
 206.312 646 233.099 645 283.099 645 c 0
 333.099 645 361.312 646 411.524 647 c 1
 413.099 645 l 1
 409.061 626 l 2
 407.998 621 404.445 618.4 399.36 618 c 2
 372.935 616 l 2
 332.076 612.9 314.959 602 309.008 574 c 2
 264.158 363 l 1
 590.158 363 l 1
 635.008 574 l 2
 641.384 604 628.598 613 589.935 616 c 2
 564.36 618 l 2
 559.445 618.4 555.998 621 557.061 626 c 2
 561.099 645 l 1
 563.524 647 l 1
 613.312 646 641.099 645 691.099 645 c 0
 741.099 645 768.312 646 818.524 647 c 1
 820.099 645 l 1
 816.061 626 l 2
 814.998 621 811.445 618.4 806.36 618 c 2
 779.935 616 l 2
 738.976 612.9 721.959 602 716.008 574 c 2
 609.729 74 l 2
 603.14 43 615.223 32.0996 655.164 29 c 2
 680.739 27 l 2
 685.654 26.5996 689.102 24 688.039 19 c 2
 684 0 l 1
 681.575 -2 l 1
 631.787 -1 604 0 554 0 c 0
 504 0 476.787 -1 426.575 -2 c 1
 425 0 l 1
 429.039 19 l 2
 430.102 24 433.654 26.5996 438.739 27 c 2
 465.164 29 l 2
 508.865 32.2998 522.777 46 528.729 74 c 2
538.683 803 m 1
 561.031 767 589.441 736 619.702 709 c 1
 599.239 688 l 1
 564.064 706 534.104 725 506.417 750 c 1
 463.679 723 427.853 705 386.239 688 c 1
 376.702 709 l 1
 419.654 737 457.456 769 495.683 803 c 1
 538.683 803 l 1
EndSplineSet
Position2: "'cpsp' Versalabstaende 1" dx=2 dy=0 dh=5 dv=0
Colour: ff00ff
EndChar

StartChar: hcircumflex
Encoding: 293 293 57
Width: 520
VWidth: 999
Flags: HW
HStem: -2 29<21 45 206 231 293 318 479 504> 392 47<245.141 344.739> 678 20<140.465 157.5>
VStem: 88 75<33.5257 337.568 356 639.899> 361 75<33.5163 375.24>
LayerCount: 2
Fore
SplineSet
462.847 832 m 1
 485.195 796 513.605 765 543.867 738 c 1
 523.403 717 l 1
 488.229 735 458.268 754 430.582 779 c 1
 387.843 752 352.017 734 310.403 717 c 1
 300.867 738 l 1
 343.818 766 381.62 798 419.847 832 c 1
 462.847 832 l 1
286.921 583 m 2
 238.67 356 l 1
 319.911 423 382.312 439 421.312 439 c 0
 493.312 439 518.26 387 496.366 284 c 2
 451.304 72 l 2
 445.14 43 453.287 32.4004 485.164 29 c 2
 503.739 27 l 2
 507.654 26.5996 511.102 24 510.039 19 c 2
 506 0 l 1
 503.575 -2 l 1
 453.787 -1 438 0 397 0 c 0
 358 0 342.787 -1 292.575 -2 c 1
 291 0 l 1
 295.039 19 l 2
 296.102 24 299.633 26.5 304.739 27 c 2
 324.164 29 l 2
 358.829 32.5996 370.14 43 376.304 72 c 2
 423.704 295 l 2
 440.921 376 422.322 392 366.322 392 c 0
 337.322 392 288.796 366 230.806 319 c 1
 178.304 72 l 2
 172.14 43 180.187 32.4004 212.164 29 c 2
 230.739 27 l 2
 234.654 26.5996 238.102 24 237.039 19 c 2
 233 0 l 1
 230.575 -2 l 1
 180.787 -1 165 0 124 0 c 0
 85 0 70.7871 -1 20.5752 -2 c 1
 19 0 l 1
 23.0391 19 l 2
 24.1016 24 26.6328 26.5 31.7393 27 c 2
 51.1641 29 l 2
 86.0293 32.5996 97.1396 43 103.304 72 c 2
 207.669 563 l 2
 221.485 628 214.249 641 194.249 641 c 1
 162.674 643 l 2
 159.517 643.2 157.099 645 157.736 648 c 2
 160.838 672 l 1
 201.976 675 274.139 688 301.364 698 c 1
 310.364 698 313.727 695 312.239 688 c 2
 312.239 688 300.736 648 286.921 583 c 2
EndSplineSet
Colour: ff00ff
EndChar

StartChar: Hbar
Encoding: 294 294 58
Width: 700
VWidth: 999
Flags: HW
HStem: -2 29<20 52 242 274 427 459 649 682> 321 42<187 513> 512 34<41 656> 618 29<19 52 242 274 426 459 649 681>
VStem: 106 81<35.58 321 363 609.207> 513 81<35.748 321 363 609.203>
LayerCount: 2
Fore
SplineSet
528.729 74 m 2
 581.23 321 l 1
 255.23 321 l 1
 202.304 72 l 2
 195.715 41 209.123 32.0996 248.164 29 c 2
 273.739 27 l 2
 277.675 26.7002 281.102 24 280.039 19 c 2
 276 0 l 1
 273.575 -2 l 1
 223.787 -1 196 0 146 0 c 0
 96 0 69.7871 -1 19.5752 -2 c 1
 18 0 l 1
 22.0391 19 l 2
 23.1016 24 26.6748 26.7002 30.7393 27 c 2
 58.1641 29 l 2
 99.6016 32 115.353 44 121.304 72 c 2
 214.829 512 l 1
 149.829 512 l 1
 157.056 546 l 1
 222.056 546 l 1
 228.008 574 l 2
 234.384 604 220.14 613.2 182.935 616 c 2
 156.36 618 l 2
 152.424 618.3 148.998 621 150.061 626 c 2
 154.099 645 l 1
 156.524 647 l 1
 206.312 646 233.099 645 283.099 645 c 0
 333.099 645 361.312 646 411.524 647 c 1
 413.099 645 l 1
 409.061 626 l 2
 407.998 621 404.445 618.4 399.36 618 c 2
 372.935 616 l 2
 332.076 612.9 314.959 602 309.008 574 c 2
 303.056 546 l 1
 629.056 546 l 1
 635.008 574 l 2
 641.384 604 628.598 613 589.935 616 c 2
 564.36 618 l 2
 559.445 618.4 555.998 621 557.061 626 c 2
 561.099 645 l 1
 563.524 647 l 1
 613.312 646 641.099 645 691.099 645 c 0
 741.099 645 768.312 646 818.524 647 c 1
 820.099 645 l 1
 816.061 626 l 2
 814.998 621 811.445 618.4 806.36 618 c 2
 779.935 616 l 2
 738.976 612.9 721.959 602 716.008 574 c 2
 710.056 546 l 1
 772.056 546 l 1
 764.829 512 l 1
 702.829 512 l 1
 609.729 74 l 2
 603.14 43 615.223 32.0996 655.164 29 c 2
 680.739 27 l 2
 685.654 26.5996 689.102 24 688.039 19 c 2
 684 0 l 1
 681.575 -2 l 1
 631.787 -1 604 0 554 0 c 0
 504 0 476.787 -1 426.575 -2 c 1
 425 0 l 1
 429.039 19 l 2
 430.102 24 433.654 26.5996 438.739 27 c 2
 465.164 29 l 2
 508.865 32.2998 522.777 46 528.729 74 c 2
621.829 512 m 1
 295.829 512 l 1
 264.158 363 l 1
 590.158 363 l 1
 621.829 512 l 1
EndSplineSet
Position2: "'cpsp' Versalabstaende 1" dx=2 dy=0 dh=5 dv=0
Colour: ff9ccc
EndChar

StartChar: hbar
Encoding: 295 295 59
Width: 520
VWidth: 999
Flags: HW
HStem: -2 29<21 45 206 231 293 318 479 504> 392 47<245.141 344.739> 530 39<26 341> 678 20<140.465 157.5>
VStem: 88 75<33.5257 337.568 356 639.899> 361 75<33.5163 375.24>
LayerCount: 2
Fore
SplineSet
208.944 569 m 1
 221.056 628.8 213.648 641 194.249 641 c 1
 162.674 643 l 2
 159.517 643.2 157.099 645 157.736 648 c 2
 160.838 672 l 1
 201.976 675 274.139 688 301.364 698 c 1
 310.364 698 313.727 695 312.239 688 c 2
 312.239 688 300.736 648 286.921 583 c 2
 283.944 569 l 1
 461.944 569 l 1
 453.655 530 l 1
 275.655 530 l 1
 238.67 356 l 1
 319.911 423 382.312 439 421.312 439 c 0
 493.312 439 518.26 387 496.366 284 c 2
 451.304 72 l 2
 445.14 43 453.287 32.4004 485.164 29 c 2
 503.739 27 l 2
 507.654 26.5996 511.102 24 510.039 19 c 2
 506 0 l 1
 503.575 -2 l 1
 453.787 -1 438 0 397 0 c 0
 358 0 342.787 -1 292.575 -2 c 1
 291 0 l 1
 295.039 19 l 2
 296.102 24 299.633 26.5 304.739 27 c 2
 324.164 29 l 2
 358.829 32.5996 370.14 43 376.304 72 c 2
 423.704 295 l 2
 440.921 376 422.322 392 366.322 392 c 0
 337.322 392 288.796 366 230.806 319 c 1
 178.304 72 l 2
 172.14 43 180.187 32.4004 212.164 29 c 2
 230.739 27 l 2
 234.654 26.5996 238.102 24 237.039 19 c 2
 233 0 l 1
 230.575 -2 l 1
 180.787 -1 165 0 124 0 c 0
 85 0 70.7871 -1 20.5752 -2 c 1
 19 0 l 1
 23.0391 19 l 2
 24.1016 24 26.6328 26.5 31.7393 27 c 2
 51.1641 29 l 2
 86.0293 32.5996 97.1396 43 103.304 72 c 2
 200.655 530 l 1
 138.655 530 l 1
 146.944 569 l 1
 208.944 569 l 1
EndSplineSet
Colour: ff9ccc
EndChar

StartChar: Itilde
Encoding: 296 296 60
Width: 293
VWidth: 999
Flags: HW
HStem: -2 29<20 52 242 274> 618 29<19 52 242 274> 697 44<162 249> 745 46<44 135> 784 10
VStem: 106 81<35.3322 609.22>
LayerCount: 2
Fore
SplineSet
370.504 741 m 0
 392.504 741 408.63 751 431.558 793 c 1
 454.282 787 l 1
 429.528 727 394.152 697 348.152 697 c 0
 326.152 697 307.702 709 289.679 723 c 0
 274.017 734 257.354 745 240.354 745 c 0
 214.354 745 198.166 730 181.152 697 c 1
 158.215 702 l 1
 184.756 761 214.132 791 257.132 791 c 0
 287.132 791 306.156 777 323.181 763 c 0
 336.63 751 351.504 741 370.504 741 c 0
309.008 574 m 2
 202.092 71 l 2
 195.715 41 209.123 32.0996 248.164 29 c 2
 273.739 27 l 2
 277.675 26.7002 281.102 24 280.039 19 c 2
 276 0 l 1
 273.575 -2 l 1
 226.5 0 196.5 0 147 0 c 0
 97.5 0 69 0 19.5752 -2 c 1
 18 0 l 1
 22.0391 19 l 2
 23.1016 24 26.6748 26.7002 30.7393 27 c 2
 58.1641 29 l 2
 100.423 32.0996 115.14 43 121.092 71 c 2
 228.008 574 l 2
 234.384 604 221.618 613.1 182.935 616 c 2
 156.36 618 l 2
 152.424 618.3 148.998 621 150.061 626 c 2
 154.099 645 l 1
 156.524 647 l 1
 206.312 646 233.599 645 283.099 645 c 0
 332.999 645 362.312 646 411.524 647 c 1
 413.099 645 l 1
 409.061 626 l 2
 407.998 621 404.445 618.4 399.36 618 c 2
 372.935 616 l 2
 332.476 612.9 314.959 602 309.008 574 c 2
EndSplineSet
Position2: "'cpsp' Versalabstaende 1" dx=2 dy=0 dh=5 dv=0
Colour: ff00ff
EndChar

StartChar: itilde
Encoding: 297 297 61
Width: 267
VWidth: 999
Flags: HW
HStem: -2 29<34 59 219 245> 422 20<161.75 177.219> 526 44<138.2 216.5> 574 46<32 113.9> 613 10
VStem: 102 75<33.5056 383>
AnchorPoint: "unten_anhang" 141.575 -2 basechar 0
AnchorPoint: "unten_punkt" 112.619 -110 basechar 0
AnchorPoint: "top_akzent" 307.982 795 basechar 0
LayerCount: 2
Fore
SplineSet
305.257 570 m 0
 325.058 570 339.783 580 361.311 622 c 1
 381.635 616 l 1
 358.081 556 325.604 526 284.205 526 c 0
 264.404 526 248.056 538 232.131 552 c 0
 218.27 563 203.508 574 188.207 574 c 0
 164.808 574 149.919 559 133.904 526 c 1
 113.367 531 l 1
 138.509 590 165.585 620 204.285 620 c 0
 231.285 620 248.109 606 263.134 592 c 0
 274.982 580 288.157 570 305.257 570 c 0
273.312 439 m 2
 273.312 439 255.922 371.3 245.294 321.3 c 2
 192.304 72 l 2
 186.14 43 194.766 32.2998 225.164 29 c 2
 243.739 27 l 2
 248.633 26.5 252.102 24 251.039 19 c 2
 247 0 l 1
 244.575 -2 l 1
 204.787 -1 176 0 138 0 c 0
 102 0 73.7871 -1 33.5752 -2 c 1
 32 0 l 1
 36.0391 19 l 2
 37.1016 24 40.6328 26.5 45.7393 27 c 2
 65.1641 29 l 2
 99.6084 32.5 111.14 43 117.304 72 c 2
 170.23 321 l 2
 180.858 371 175.448 381.3 161.409 383 c 2
 119.26 387 l 1
 122.36 411 l 1
 195.199 422 239.112 431 269.95 442 c 0
 272.35 442 273.822 441.4 273.312 439 c 2
EndSplineSet
Colour: ff00ff
EndChar

StartChar: Imacron
Encoding: 298 298 62
Width: 293
VWidth: 999
Flags: HW
HStem: -2 29<20 52 242 274> 618 29<19 52 242 274> 733 44<9.0876 287.515>
VStem: 8 281<733.205 777> 106 81<35.3322 609.22>
LayerCount: 2
Fore
SplineSet
427.605 765 m 2
 183.605 765 l 2
 174.605 765 172.307 773 173.794 780 c 0
 176.345 792 190.958 809 201.958 809 c 2
 446.958 809 l 2
 456.958 809 459.258 801 457.982 795 c 0
 455.432 783 440.605 765 427.605 765 c 2
309.008 574 m 2
 202.092 71 l 2
 195.715 41 209.123 32.0996 248.164 29 c 2
 273.739 27 l 2
 277.675 26.7002 281.102 24 280.039 19 c 2
 276 0 l 1
 273.575 -2 l 1
 226.5 0 196.5 0 147 0 c 0
 97.5 0 69 0 19.5752 -2 c 1
 18 0 l 1
 22.0391 19 l 2
 23.1016 24 26.6748 26.7002 30.7393 27 c 2
 58.1641 29 l 2
 100.423 32.0996 115.14 43 121.092 71 c 2
 228.008 574 l 2
 234.384 604 221.618 613.1 182.935 616 c 2
 156.36 618 l 2
 152.424 618.3 148.998 621 150.061 626 c 2
 154.099 645 l 1
 156.524 647 l 1
 206.312 646 233.599 645 283.099 645 c 0
 332.999 645 362.312 646 411.524 647 c 1
 413.099 645 l 1
 409.061 626 l 2
 407.998 621 404.445 618.4 399.36 618 c 2
 372.935 616 l 2
 332.476 612.9 314.959 602 309.008 574 c 2
EndSplineSet
Position2: "'cpsp' Versalabstaende 1" dx=2 dy=0 dh=5 dv=0
Colour: ff00ff
EndChar

StartChar: imacron
Encoding: 299 299 63
Width: 267
VWidth: 999
Flags: HW
HStem: -2 29<34 59 219 245> 422 20<161.75 177.219> 539 44<-1.42116 249.163 -1.42116 249.163>
VStem: -2.4 252.9<539.205 583 539.205 583> 102 75<33.5056 383>
LayerCount: 2
Fore
SplineSet
343.468 539 m 2
 123.868 539 l 2
 115.768 539 113.868 547 115.356 554 c 0
 117.907 566 131.421 583 141.32 583 c 2
 361.82 583 l 2
 370.82 583 372.72 575 371.444 569 c 0
 368.894 557 355.168 539 343.468 539 c 2
273.312 439 m 2
 273.312 439 255.922 371.3 245.294 321.3 c 2
 192.304 72 l 2
 186.14 43 194.766 32.2998 225.164 29 c 2
 243.739 27 l 2
 248.633 26.5 252.102 24 251.039 19 c 2
 247 0 l 1
 244.575 -2 l 1
 204.787 -1 176 0 138 0 c 0
 102 0 73.7871 -1 33.5752 -2 c 1
 32 0 l 1
 36.0391 19 l 2
 37.1016 24 40.6328 26.5 45.7393 27 c 2
 65.1641 29 l 2
 99.6084 32.5 111.14 43 117.304 72 c 2
 170.23 321 l 2
 180.858 371 175.448 381.3 161.409 383 c 2
 119.26 387 l 1
 122.36 411 l 1
 195.199 422 239.112 431 269.95 442 c 0
 272.35 442 273.822 441.4 273.312 439 c 2
EndSplineSet
Colour: ff00ff
EndChar

StartChar: Ibreve
Encoding: 300 300 64
Width: 293
VWidth: 999
Flags: HW
HStem: -2 29<20 52 242 274> 618 29<19 52 242 274> 692 52<70 226>
VStem: 13 28<765 803> 106 81<35.3322 609.22> 257 27<767 805>
LayerCount: 2
Fore
SplineSet
456.108 805 m 1
 435.017 734 362.089 692 296.089 692 c 0
 223.089 692 174.229 735 184.108 805 c 1
 212.108 805 l 1
 211.818 766 254.142 744 307.143 744 c 0
 356.143 744 412.818 766 428.108 805 c 1
 456.108 805 l 1
309.008 574 m 2
 202.092 71 l 2
 195.715 41 209.123 32.0996 248.164 29 c 2
 273.739 27 l 2
 277.675 26.7002 281.102 24 280.039 19 c 2
 276 0 l 1
 273.575 -2 l 1
 226.5 0 196.5 0 147 0 c 0
 97.5 0 69 0 19.5752 -2 c 1
 18 0 l 1
 22.0391 19 l 2
 23.1016 24 26.6748 26.7002 30.7393 27 c 2
 58.1641 29 l 2
 100.423 32.0996 115.14 43 121.092 71 c 2
 228.008 574 l 2
 234.384 604 221.618 613.1 182.935 616 c 2
 156.36 618 l 2
 152.424 618.3 148.998 621 150.061 626 c 2
 154.099 645 l 1
 156.524 647 l 1
 206.312 646 233.599 645 283.099 645 c 0
 332.999 645 362.312 646 411.524 647 c 1
 413.099 645 l 1
 409.061 626 l 2
 407.998 621 404.445 618.4 399.36 618 c 2
 372.935 616 l 2
 332.476 612.9 314.959 602 309.008 574 c 2
EndSplineSet
Position2: "'cpsp' Versalabstaende 1" dx=2 dy=0 dh=5 dv=0
Colour: ff00ff
EndChar

StartChar: ibreve
Encoding: 301 301 65
Width: 267
VWidth: 999
Flags: HW
HStem: -2 29<34 59 219 245> 422 20<161.75 177.219> 503 57<63.2712 186.508>
VStem: 3.9 23.4<609.805 641.769> 102 75<33.5056 383> 222.6 24.3<611.333 641.63>
LayerCount: 2
Fore
SplineSet
166.361 650 m 1
 164.996 597 195.832 560 244.432 560 c 0
 291.231 560 339.434 592 360.762 650 c 1
 382.511 638 l 1
 353.432 552 285.416 503 232.316 503 c 0
 169.316 503 134.044 553 139.511 638 c 1
 166.361 650 l 1
273.312 439 m 2
 273.312 439 255.922 371.3 245.294 321.3 c 2
 192.304 72 l 2
 186.14 43 194.766 32.2998 225.164 29 c 2
 243.739 27 l 2
 248.633 26.5 252.102 24 251.039 19 c 2
 247 0 l 1
 244.575 -2 l 1
 204.787 -1 176 0 138 0 c 0
 102 0 73.7871 -1 33.5752 -2 c 1
 32 0 l 1
 36.0391 19 l 2
 37.1016 24 40.6328 26.5 45.7393 27 c 2
 65.1641 29 l 2
 99.6084 32.5 111.14 43 117.304 72 c 2
 170.23 321 l 2
 180.858 371 175.448 381.3 161.409 383 c 2
 119.26 387 l 1
 122.36 411 l 1
 195.199 422 239.112 431 269.95 442 c 0
 272.35 442 273.822 441.4 273.312 439 c 2
EndSplineSet
Colour: ff00ff
EndChar

StartChar: Iogonek
Encoding: 302 302 66
Width: 293
VWidth: 999
Flags: HW
HStem: -200 38<142.519 225.833> -2 17<214.684 241> -2 29<20 52 242 274> 618 29<19 52 242 274>
VStem: 73 62<-155.299 -63.1465> 106 81<35.3322 609.22>
AnchorPoint: "top_akzent" 326.673 850 basechar 0
LayerCount: 2
Fore
SplineSet
242.305 -135 m 1
 203.74 -180 159.488 -200 118.488 -200 c 0
 68.4883 -200 34.7402 -180 46.2178 -126 c 0
 55.0605 -84.4004 102.982 -26.9004 169.3 0 c 1
 162.2 0 154.9 0 147 0 c 0
 97.5 0 69 0 19.5752 -2 c 1
 18 0 l 1
 22.0391 19 l 2
 23.1016 24 26.6748 26.7002 30.7393 27 c 2
 58.1641 29 l 2
 100.423 32.0996 115.14 43 121.092 71 c 2
 228.008 574 l 2
 234.384 604 221.618 613.1 182.935 616 c 2
 156.36 618 l 2
 152.424 618.3 148.998 621 150.061 626 c 2
 154.099 645 l 1
 156.524 647 l 1
 206.312 646 233.599 645 283.099 645 c 0
 332.999 645 362.312 646 411.524 647 c 1
 413.099 645 l 1
 409.061 626 l 2
 407.998 621 404.445 618.4 399.36 618 c 2
 372.935 616 l 2
 332.476 612.9 314.959 602 309.008 574 c 2
 202.092 71 l 2
 195.715 41 209.123 32.0996 248.164 29 c 2
 273.739 27 l 2
 277.675 26.7002 281.102 24 280.039 19 c 2
 276 0 l 1
 273.575 -2 l 1
 266.738 -1.7002 260.281 -1.5 254.124 -1.2998 c 1
 254.575 -2 l 1
 183.575 -2 120.334 -69 110.556 -115 c 0
 105.029 -141 113.565 -162 150.565 -162 c 0
 179.565 -162 198.967 -146 225.643 -124 c 1
 234.643 -124 239.793 -128 242.305 -135 c 1
EndSplineSet
Position2: "'cpsp' Versalabstaende 1" dx=2 dy=0 dh=5 dv=0
Colour: ff9ccc
EndChar

StartChar: iogonek
Encoding: 303 303 67
Width: 267
VWidth: 999
Flags: HW
HStem: -200 38<130.519 213.833> -2 17<202.684 229> -2 29<34 59 219 245> 422 20<161.75 177.219> 522 96<94.332 173.668>
VStem: 61 62<-155.299 -63.1465> 86 96<530.332 609.668> 102 75<33.5056 383>
AnchorPoint: "top_akzent" 296.731 775 basechar 0
LayerCount: 2
Fore
SplineSet
230.305 -135 m 1
 191.74 -180 147.488 -200 106.488 -200 c 0
 56.4883 -200 22.7402 -180 34.2178 -126 c 0
 43.0391 -84.5 91.0605 -27 157.179 -0.0996094 c 1
 151 -0 144.6 0 138 0 c 0
 102 0 73.7871 -1 33.5752 -2 c 1
 32 0 l 1
 36.0391 19 l 2
 37.1016 24 40.6328 26.5 45.7393 27 c 2
 65.1641 29 l 2
 99.6084 32.5 111.14 43 117.304 72 c 2
 170.23 321 l 2
 180.858 371 175.448 381.3 161.409 383 c 2
 119.26 387 l 1
 122.36 411 l 1
 195.199 422 239.112 431 269.95 442 c 0
 272.35 442 273.822 441.4 273.312 439 c 2
 273.312 439 255.922 371.3 245.294 321.3 c 2
 192.304 72 l 2
 186.14 43 194.766 32.2998 225.164 29 c 2
 243.739 27 l 2
 248.633 26.5 252.102 24 251.039 19 c 2
 247 0 l 1
 244.575 -2 l 1
 242.596 -1.90039 l 1
 242.575 -2 l 1
 171.575 -2 108.334 -69 98.5557 -115 c 0
 93.0293 -141 101.565 -162 138.565 -162 c 0
 167.565 -162 186.967 -146 213.643 -124 c 1
 222.643 -124 227.793 -128 230.305 -135 c 1
207.157 570 m 0
 212.684 596 239.36 618 265.36 618 c 0
 291.36 618 308.684 596 303.157 570 c 0
 297.631 544 270.954 522 244.954 522 c 0
 218.954 522 201.631 544 207.157 570 c 0
EndSplineSet
Colour: ff9ccc
EndChar

StartChar: Idotaccent
Encoding: 304 304 68
Width: 293
VWidth: 999
Flags: HW
HStem: -2 29<20 52 242 274> 618 29<19 52 242 274> 698 104<104.542 187.458>
VStem: 94 104<708.542 791.458> 106 81<35.3322 609.22>
LayerCount: 2
Fore
SplineSet
253.417 750 m 0
 259.369 778 288.471 802 316.471 802 c 0
 344.471 802 363.369 778 357.417 750 c 0
 351.466 722 322.364 698 294.364 698 c 0
 266.364 698 247.466 722 253.417 750 c 0
309.008 574 m 2
 202.092 71 l 2
 195.715 41 209.123 32.0996 248.164 29 c 2
 273.739 27 l 2
 277.675 26.7002 281.102 24 280.039 19 c 2
 276 0 l 1
 273.575 -2 l 1
 226.5 0 196.5 0 147 0 c 0
 97.5 0 69 0 19.5752 -2 c 1
 18 0 l 1
 22.0391 19 l 2
 23.1016 24 26.6748 26.7002 30.7393 27 c 2
 58.1641 29 l 2
 100.423 32.0996 115.14 43 121.092 71 c 2
 228.008 574 l 2
 234.384 604 221.618 613.1 182.935 616 c 2
 156.36 618 l 2
 152.424 618.3 148.998 621 150.061 626 c 2
 154.099 645 l 1
 156.524 647 l 1
 206.312 646 233.599 645 283.099 645 c 0
 332.999 645 362.312 646 411.524 647 c 1
 413.099 645 l 1
 409.061 626 l 2
 407.998 621 404.445 618.4 399.36 618 c 2
 372.935 616 l 2
 332.476 612.9 314.959 602 309.008 574 c 2
EndSplineSet
Substitution2: "'c2sc' Versale nach Kapitaelchen 1" idotaccent.sc
Position2: "'cpsp' Versalabstaende 1" dx=2 dy=0 dh=5 dv=0
Colour: ff00ff
EndChar

StartChar: afii10057
Encoding: 1032 1032 69
Width: 371
VWidth: 999
Flags: HW
HStem: -12 31<116.593 176.094> 618 28<94 137 333 356>
VStem: 198 81<62.921 602.762>
LayerCount: 2
Fore
SplineSet
147.039 19 m 0
 196.039 19 214.792 79 234.56 172 c 2
 316.819 559 l 2
 323.195 589 307.268 613.8 267.935 616 c 2
 232.36 618 l 2
 227.424 618.3 223.998 621 225.061 626 c 2
 229.099 645 l 1
 231.312 646 l 1
 231.312 646 335.099 645 374.099 645 c 0
 409.099 645 493.312 646 493.312 646 c 1
 495.099 645 l 1
 491.061 626 l 2
 489.998 621 486.487 618.6 481.36 618 c 2
 463.935 616 l 2
 423.557 611.4 406.534 600 400.582 572 c 2
 320.236 194 l 2
 282.401 16 203.449 -12 140.449 -12 c 0
 106.449 -12 38.5752 -2 49.8408 51 c 0
 55.1543 76 75.2803 86 90.2803 86 c 0
 118.28 86 122.966 61 122.415 49 c 0
 121.652 36 125.039 19 147.039 19 c 0
EndSplineSet
EndChar

StartChar: afii10061
Encoding: 1036 1036 70
Width: 602
VWidth: 999
Flags: HW
HStem: -2 29<20 52 242 274 566 583> 323 43<187 280.713> 590 61<426.699 532.056> 618 29<19 52 242 274> 698 122
VStem: 106 81<35.3322 609.22> 288 201
LayerCount: 2
Fore
SplineSet
601.297 820 m 1
 627.069 806.7 644.071 789.3 652.243 768 c 1
 495.915 710 l 2
 473.002 701 460.364 698 451.364 698 c 0
 442.364 698 437.853 705 439.553 713 c 0
 441.041 720 444.104 725 459.017 734 c 2
 601.297 820 l 1
582.575 -2 m 1
 509.787 -1 l 2
 430.021 0.0996094 412.879 70 393.26 180 c 0
 375.416 280 366.23 321 255.656 323 c 1
 202.092 71 l 2
 195.715 41 209.123 32.0996 248.164 29 c 2
 273.739 27 l 2
 277.675 26.7002 281.102 24 280.039 19 c 2
 276 0 l 1
 273.575 -2 l 1
 226.5 0 196.5 0 147 0 c 0
 97.5 0 69 0 19.5752 -2 c 1
 18 0 l 1
 22.0391 19 l 2
 23.1016 24 26.6748 26.7002 30.7393 27 c 2
 58.1641 29 l 2
 100.423 32.0996 115.14 43 121.092 71 c 2
 228.008 574 l 2
 234.384 604 221.618 613.1 182.935 616 c 2
 156.36 618 l 2
 152.424 618.3 148.998 621 150.061 626 c 2
 154.099 645 l 1
 156.524 647 l 1
 206.312 646 233.599 645 283.099 645 c 0
 332.999 645 362.312 646 411.524 647 c 1
 413.099 645 l 1
 409.061 626 l 2
 407.998 621 404.445 618.4 399.36 618 c 2
 372.935 616 l 2
 332.476 612.9 314.959 602 309.008 574 c 2
 264.796 366 l 1
 300.796 366 346.008 367 372.984 381 c 0
 438.786 413 465.728 488 486.631 544 c 1
 506.959 602 570.374 651 640.374 651 c 0
 693.374 651 705.636 624 700.746 601 c 0
 695.433 576 668.819 559 647.819 559 c 0
 634.819 559 620.669 563 613.582 572 c 0
 605.921 583 594.408 590 581.408 590 c 0
 558.408 590 531.557 562 520.293 533 c 0
 495.901 470 457.221 368 371.907 343 c 1
 440.907 343 451.796 295.9 465.163 236 c 0
 494.894 103 537.695 31.5 571.951 28 c 2
 581.739 27 l 2
 586.633 26.5 589.102 24 588.039 19 c 2
 584 0 l 1
 582.575 -2 l 1
EndSplineSet
LCarets2: 1 0 
Colour: ff00ff
EndChar

StartChar: uni040D
Encoding: 1037 1037 71
Width: 700
VWidth: 999
Flags: HW
HStem: -2 29<20 52 242 274 427 459 649 682> 618 28<20 52 242 274 426 459 649 681>
VStem: 106 81<35.9534 78 134 609.354> 514 81<36.3852 505 561 608.905>
DStem2: 187 134 187 78 0.608002 0.793935<0 493.367>
LayerCount: 2
Fore
SplineSet
472.871 818 m 1
 576.017 734 l 2
 585.316 726 588.041 720 586.553 713 c 0
 584.853 705 576.364 698 568.364 698 c 0
 560.364 698 547.002 701 527.915 710 c 2
 387.307 773 l 1
 409.368 790.7 436.206 806.4 472.871 818 c 1
716.582 572 m 2
 610.517 73 l 2
 604.14 43 617.002 32 655.164 29 c 2
 680.739 27 l 2
 685.654 26.5996 689.102 24 688.039 19 c 2
 684 0 l 1
 681.575 -2 l 1
 681.575 -2 595 0 556 0 c 0
 520 0 426.575 -2 426.575 -2 c 1
 425 0 l 1
 429.039 19 l 2
 430.102 24 433.654 26.5996 438.739 27 c 2
 465.164 29 l 2
 506.123 32.0996 523.565 45 529.517 73 c 2
 621.341 505 l 1
 203.579 78 l 1
 202.729 74 l 2
 196.14 43 208.023 32.0996 248.164 29 c 2
 273.739 27 l 2
 277.675 26.7002 281.102 24 280.039 19 c 2
 276 0 l 1
 273.575 -2 l 1
 273.575 -2 188 0 148 0 c 0
 113 0 19.5752 -2 19.5752 -2 c 1
 18 0 l 1
 22.0391 19 l 2
 23.1016 24 26.6748 26.7002 30.7393 27 c 2
 58.1641 29 l 2
 101.123 32.0996 115.777 46 121.729 74 c 2
 227.795 573 l 2
 234.172 603 221.418 613.1 182.935 616 c 2
 156.36 618 l 2
 152.424 618.3 149.998 621 151.061 626 c 2
 155.099 645 l 1
 157.312 646 l 1
 157.312 646 242.887 644 282.887 644 c 0
 317.887 644 411.312 646 411.312 646 c 1
 413.099 645 l 1
 409.061 626 l 2
 407.998 621 404.445 618.4 399.36 618 c 2
 372.935 616 l 2
 330.955 612.8 314.746 601 308.795 573 c 2
 215.482 134 l 1
 633.244 561 l 1
 635.582 572 l 2
 642.172 603 629.076 612.9 589.935 616 c 2
 564.36 618 l 2
 559.445 618.4 555.998 621 557.061 626 c 2
 561.099 645 l 1
 563.312 646 l 1
 563.312 646 649.887 644 688.887 644 c 0
 724.887 644 818.524 647 818.524 647 c 1
 820.099 645 l 1
 816.061 626 l 2
 814.998 621 811.445 618.4 806.36 618 c 2
 779.935 616 l 2
 739.697 613 722.534 600 716.582 572 c 2
EndSplineSet
LCarets2: 1 0 
Colour: ff00ff
EndChar

StartChar: afii10062
Encoding: 1038 1038 72
Width: 580
VWidth: 999
Flags: HW
HStem: -22 62<133 229.447> 618 28<1 51.985 192 235 391 425 520.846 579> 697 31<266.536 357.309>
VStem: 187 70<735.681 802.162> 366 70<734.774 802.125>
DStem2: 170 575 88 559 0.41865 -0.908148<-32.5036 379.947> 283 136 342 161 0.370296 0.928914<-102.293 0 103.423 504.868>
LayerCount: 2
Fore
SplineSet
466.741 728 m 0
 499.741 728 526.354 745 529.968 762 c 0
 531.031 767 531.307 773 531.731 775 c 0
 534.92 790 548.108 805 571.108 805 c 0
 598.108 805 605.132 791 601.094 772 c 0
 590.041 720 526.152 697 460.152 697 c 0
 394.152 697 340.041 720 351.094 772 c 0
 355.132 791 368.108 805 395.108 805 c 0
 418.108 805 424.92 790 421.731 775 c 0
 421.307 773 419.031 767 417.968 762 c 0
 414.354 745 433.741 728 466.741 728 c 0
203.502 40 m 0
 235.502 40 264.966 61 311.907 136 c 1
 206.819 559 l 2
 201.849 578.9 188.723 615 141.36 618 c 0
 135.445 618.4 131.998 621 132.848 625 c 2
 137.099 645 l 1
 138.312 646 l 1
 138.312 646 201.099 645 242.099 645 c 0
 292.099 645 372.312 646 372.312 646 c 1
 374.099 645 l 1
 370.061 626 l 2
 368.998 621 366.424 618.3 361.36 618 c 2
 322.935 616 l 2
 290.174 614.3 285.968 601.1 292.22 575 c 2
 375.676 229 l 1
 377.676 229 l 1
 580.22 575 l 2
 600.802 610.2 595.64 613.2 555.935 616 c 2
 527.36 618 l 2
 523.424 618.3 521.998 621 522.848 625 c 2
 527.099 645 l 1
 528.312 646 l 1
 528.312 646 594.099 645 636.099 645 c 0
 668.099 645 716.312 646 716.312 646 c 1
 718.099 645 l 1
 714.061 626 l 2
 712.785 620 705.424 618.3 701.36 618 c 0
 654.223 615 642.81 606 619.307 566 c 2
 376.222 161 l 2
 310.053 52 239.324 -22 149.324 -22 c 0
 107.324 -22 66.2129 1 73.0146 33 c 0
 78.9658 61 97.792 79 129.792 79 c 0
 143.792 79 164.304 72 171.753 60 c 0
 176.841 51 189.502 40 203.502 40 c 0
EndSplineSet
LCarets2: 1 0 
Colour: ff00ff
EndChar

StartChar: afii10020
Encoding: 1043 1043 73
Width: 481
VWidth: 999
Flags: HW
HStem: -2 29<14 47 238 270> 605 40<184.437 406.492> 618 28<14 50>
VStem: 102 81<36.3415 603.635> 457 29<488.793 527.352>
LayerCount: 2
Fore
SplineSet
198.092 71 m 2
 191.715 41 204.823 32.0996 244.164 29 c 2
 269.739 27 l 2
 273.739 27 277.102 24 276.039 19 c 2
 272 0 l 1
 269.575 -2 l 1
 222 0 193 0 143 0 c 0
 93 0 65 0 15.5752 -2 c 1
 14 0 l 1
 18.0391 19 l 2
 19.1016 24 22.7393 27 26.7393 27 c 2
 54.1641 29 l 2
 96.8232 32.0996 111.14 43 117.092 71 c 2
 223.37 571 l 2
 230.81 606 222.297 613 180.935 616 c 2
 151.36 618 l 2
 147.36 618 143.998 621 144.848 625 c 2
 149.099 645 l 1
 151.524 647 l 1
 191.312 646 240.099 645 279.099 645 c 2
 483.099 645 l 1
 483.099 645 564.312 646 603.524 647 c 1
 596.046 593 590.756 554 585.152 490 c 1
 555.303 486 l 1
 548.969 555 546.597 605 471.597 605 c 2
 347.597 605 l 2
 325.597 605 310.321 599 304.795 573 c 2
 198.092 71 l 2
EndSplineSet
Colour: ff00ff
EndChar

StartChar: afii10021
Encoding: 1044 1044 74
Width: 655
VWidth: 999
Flags: HW
HStem: 0 39<182.009 462.022> 605 40<269.132 462.578> 618 29<151 187 582 617>
VStem: 34 27<-140 -94.0922> 464 81<40.4891 603.884> 595 27<-140 -98.3137>
LayerCount: 2
Fore
SplineSet
121.99 47 m 0
 153.638 73.0996 186.82 145 251.979 301 c 1
 298.211 415 332.104 518 345.495 581 c 0
 349.959 602 343.17 612.4 317.723 615 c 2
 288.36 618 l 2
 283.36 618 280.785 620 281.636 624 c 2
 286.099 645 l 1
 288.524 647 l 1
 288.524 647 358.099 645 388.099 645 c 2
 645.099 645 l 2
 675.099 645 754.524 647 754.524 647 c 1
 756.099 645 l 1
 752.061 626 l 2
 750.785 620 746.424 618.3 742.36 618 c 2
 712.935 616 l 2
 680.268 613.8 672.746 601 665.095 565 c 2
 561.579 78 l 2
 553.715 41 573.877 30 590.739 27 c 0
 611.652 23.2998 618.651 20 616.7 8 c 2
 592.242 -140 l 1
 565.242 -140 565.029 -141 565.029 -141 c 1
 564.933 -85 547 0 467 0 c 2
 181 0 l 2
 98 0 53.082 -89 31.0293 -141 c 1
 4.24219 -140 l 1
 42.7002 8 l 2
 45.8516 20 57.5205 25.5 67.7393 27 c 0
 87.877 30 104.408 32.5 121.99 47 c 0
555.597 605 m 2
 432.597 605 l 2
 405.597 605 392.621 591 385.307 566 c 0
 355.739 465 317.732 361 291.279 293 c 0
 244.41 176 198.367 77 193.903 56 c 0
 191.353 44 203.29 39 217.29 39 c 2
 436.29 39 l 2
 460.29 39 472.928 42 480.792 79 c 2
 584.307 566 l 2
 590.896 597 586.597 605 555.597 605 c 2
EndSplineSet
EndChar

StartChar: afii10024
Encoding: 1046 1046 75
Width: 855
VWidth: 999
Flags: HW
HStem: -2 29<24 67.4219 301 333 523 555 788.578 832> 323 43<297.65 388 468 558.35> 590 61<70.0265 164.818 691.182 785.974> 618 29<300 333 523 555>
VStem: 387 81<35.3322 609.22>
LayerCount: 2
Fore
SplineSet
831.575 -2 m 1
 765.787 -1 l 2
 694.021 0.0996094 680.879 70 665.26 180 c 0
 650.819 281.9 643.656 323 536.656 323 c 1
 483.092 71 l 2
 476.715 41 490.123 32.0996 529.164 29 c 2
 554.739 27 l 2
 558.675 26.7002 562.102 24 561.039 19 c 2
 557 0 l 1
 554.575 -2 l 1
 507.5 0 477.5 0 428 0 c 0
 378.5 0 350 0 300.575 -2 c 1
 299 0 l 1
 303.039 19 l 2
 304.102 24 307.675 26.7002 311.739 27 c 2
 339.164 29 l 2
 381.423 32.0996 396.14 43 402.092 71 c 2
 455.656 323 l 1
 349.492 322.7 324.855 281.6 267.26 180 c 0
 204.879 70 162.021 0.0996094 89.7871 -1 c 2
 23.5752 -2 l 1
 23 0 l 1
 27.0391 19 l 2
 28.1016 24 31.7393 27 35.7393 27 c 2
 45.7393 27 l 2
 77.7393 27 145.894 103 225.163 236 c 0
 261.917 296 290.907 343 352.907 343 c 1
 286.221 368 291.901 470 295.293 533 c 0
 297.457 562 284.408 590 264.408 590 c 0
 252.408 590 238.921 583 227.582 572 c 0
 217.669 563 202.819 559 191.819 559 c 0
 172.819 559 155.433 576 160.746 601 c 0
 165.636 624 188.374 651 235.374 651 c 0
 298.374 651 335.959 602 330.631 544 c 1
 326.728 488 320.786 413 366.984 381 c 0
 387.617 366.1 430.896 366 464.796 366 c 1
 509.008 574 l 2
 515.384 604 502.618 613.1 463.935 616 c 2
 437.36 618 l 2
 433.424 618.3 429.998 621 431.061 626 c 2
 435.099 645 l 1
 437.524 647 l 1
 487.312 646 514.599 645 564.099 645 c 0
 613.999 645 643.312 646 692.524 647 c 1
 694.099 645 l 1
 690.061 626 l 2
 688.998 621 685.445 618.4 680.36 618 c 2
 653.935 616 l 2
 613.476 612.9 595.959 602 590.008 574 c 2
 545.796 366 l 1
 578.796 366 623.796 366 650.984 381 c 0
 710.786 413 736.728 488 756.631 544 c 1
 775.959 602 834.374 651 897.374 651 c 0
 944.374 651 955.636 624 950.746 601 c 0
 945.433 576 920.819 559 901.819 559 c 0
 889.819 559 877.669 563 871.582 572 c 0
 864.921 583 854.408 590 842.408 590 c 0
 822.408 590 797.457 562 787.293 533 c 0
 763.901 470 726.221 368 648.907 343 c 1
 710.907 343 719.917 296 731.163 236 c 0
 753.894 103 789.739 27 821.739 27 c 2
 831.739 27 l 2
 835.739 27 838.102 24 837.039 19 c 2
 833 0 l 1
 831.575 -2 l 1
EndSplineSet
Colour: ff9ccc
EndChar

StartChar: afii10025
Encoding: 1047 1047 76
Width: 542
VWidth: 999
Flags: HW
HStem: -12 37<172.536 324.196> 336 37<158.005 306.843> 469 21G<49 91> 624 34<165.85 309.892>
VStem: 49 30<470.533 513.383> 375 80<432.684 569.184> 405 92<100.605 254.446>
LayerCount: 2
Fore
SplineSet
253.313 25 m 0
 323.313 25 419.454 68 442.41 176 c 0
 453.25 227 437.419 336 320.419 336 c 2
 247.419 336 l 2
 236.419 336 230.907 343 233.245 354 c 0
 235.583 365 244.283 373 255.283 373 c 2
 302.283 373 l 2
 421.283 373 470.863 451 482.554 506 c 0
 496.795 573 443.636 624 381.636 624 c 0
 258.636 624 219.906 550 178.689 469 c 1
 149.114 471 l 1
 206.312 646 l 1
 293.312 646 330.862 658 390.862 658 c 0
 483.862 658 584.872 611 564.68 516 c 0
 547.887 437 494.26 387 416.521 360 c 1
 483.27 340 560.555 299 537.811 192 c 0
 505.715 41 360.449 -12 242.449 -12 c 0
 161.449 -12 119.039 19 93.1396 43 c 0
 70.6035 64 55.3428 91 61.082 118 c 0
 66.6084 144 82.0723 165 105.072 165 c 0
 133.072 165 140.309 152 144.507 120 c 0
 152.541 59 177.313 25 253.313 25 c 0
EndSplineSet
EndChar

StartChar: afii10026
Encoding: 1048 1048 77
Width: 700
VWidth: 999
Flags: HW
HStem: -2 29<20 52 242 274 427 459 649 682> 618 28<20 52 242 274 426 459 649 681>
VStem: 106 81<35.9534 78 134 609.354> 514 81<36.3852 505 561 608.905>
DStem2: 187 134 187 78 0.608002 0.793935<0 493.367>
LayerCount: 2
Fore
SplineSet
716.582 572 m 2
 610.517 73 l 2
 604.14 43 617.002 32 655.164 29 c 2
 680.739 27 l 2
 685.654 26.5996 689.102 24 688.039 19 c 2
 684 0 l 1
 681.575 -2 l 1
 681.575 -2 595 0 556 0 c 0
 520 0 426.575 -2 426.575 -2 c 1
 425 0 l 1
 429.039 19 l 2
 430.102 24 433.654 26.5996 438.739 27 c 2
 465.164 29 l 2
 506.123 32.0996 523.565 45 529.517 73 c 2
 621.341 505 l 1
 203.579 78 l 1
 202.729 74 l 2
 196.14 43 208.023 32.0996 248.164 29 c 2
 273.739 27 l 2
 277.675 26.7002 281.102 24 280.039 19 c 2
 276 0 l 1
 273.575 -2 l 1
 273.575 -2 188 0 148 0 c 0
 113 0 19.5752 -2 19.5752 -2 c 1
 18 0 l 1
 22.0391 19 l 2
 23.1016 24 26.6748 26.7002 30.7393 27 c 2
 58.1641 29 l 2
 101.123 32.0996 115.777 46 121.729 74 c 2
 227.795 573 l 2
 234.172 603 221.418 613.1 182.935 616 c 2
 156.36 618 l 2
 152.424 618.3 149.998 621 151.061 626 c 2
 155.099 645 l 1
 157.312 646 l 1
 157.312 646 242.887 644 282.887 644 c 0
 317.887 644 411.312 646 411.312 646 c 1
 413.099 645 l 1
 409.061 626 l 2
 407.998 621 404.445 618.4 399.36 618 c 2
 372.935 616 l 2
 330.955 612.8 314.746 601 308.795 573 c 2
 215.482 134 l 1
 633.244 561 l 1
 635.582 572 l 2
 642.172 603 629.076 612.9 589.935 616 c 2
 564.36 618 l 2
 559.445 618.4 555.998 621 557.061 626 c 2
 561.099 645 l 1
 563.312 646 l 1
 563.312 646 649.887 644 688.887 644 c 0
 724.887 644 818.524 647 818.524 647 c 1
 820.099 645 l 1
 816.061 626 l 2
 814.998 621 811.445 618.4 806.36 618 c 2
 779.935 616 l 2
 739.697 613 722.534 600 716.582 572 c 2
EndSplineSet
EndChar

StartChar: afii10027
Encoding: 1049 1049 78
Width: 700
VWidth: 999
Flags: HW
HStem: -2 29<20 52 242 274 427 459 649 682> 618 28<20 52 242 274 426 459 649 681> 697 31<305.536 396.309>
VStem: 106 81<35.9534 78 134 609.354> 226 70<735.681 802.162> 405 70<734.774 802.125> 514 81<36.3852 505 561 608.905>
DStem2: 187 134 187 78 0.608002 0.793935<0 493.367>
LayerCount: 2
Fore
SplineSet
505.741 728 m 0
 538.741 728 565.354 745 568.968 762 c 0
 570.031 767 570.307 773 570.731 775 c 0
 573.92 790 587.108 805 610.108 805 c 0
 637.108 805 644.132 791 640.094 772 c 0
 629.041 720 565.152 697 499.152 697 c 0
 433.152 697 379.041 720 390.094 772 c 0
 394.132 791 407.108 805 434.108 805 c 0
 457.108 805 463.92 790 460.731 775 c 0
 460.307 773 458.031 767 456.968 762 c 0
 453.354 745 472.741 728 505.741 728 c 0
716.582 572 m 2
 610.517 73 l 2
 604.14 43 617.002 32 655.164 29 c 2
 680.739 27 l 2
 685.654 26.5996 689.102 24 688.039 19 c 2
 684 0 l 1
 681.575 -2 l 1
 681.575 -2 595 0 556 0 c 0
 520 0 426.575 -2 426.575 -2 c 1
 425 0 l 1
 429.039 19 l 2
 430.102 24 433.654 26.5996 438.739 27 c 2
 465.164 29 l 2
 506.123 32.0996 523.565 45 529.517 73 c 2
 621.341 505 l 1
 203.579 78 l 1
 202.729 74 l 2
 196.14 43 208.023 32.0996 248.164 29 c 2
 273.739 27 l 2
 277.675 26.7002 281.102 24 280.039 19 c 2
 276 0 l 1
 273.575 -2 l 1
 273.575 -2 188 0 148 0 c 0
 113 0 19.5752 -2 19.5752 -2 c 1
 18 0 l 1
 22.0391 19 l 2
 23.1016 24 26.6748 26.7002 30.7393 27 c 2
 58.1641 29 l 2
 101.123 32.0996 115.777 46 121.729 74 c 2
 227.795 573 l 2
 234.172 603 221.418 613.1 182.935 616 c 2
 156.36 618 l 2
 152.424 618.3 149.998 621 151.061 626 c 2
 155.099 645 l 1
 157.312 646 l 1
 157.312 646 242.887 644 282.887 644 c 0
 317.887 644 411.312 646 411.312 646 c 1
 413.099 645 l 1
 409.061 626 l 2
 407.998 621 404.445 618.4 399.36 618 c 2
 372.935 616 l 2
 330.955 612.8 314.746 601 308.795 573 c 2
 215.482 134 l 1
 633.244 561 l 1
 635.582 572 l 2
 642.172 603 629.076 612.9 589.935 616 c 2
 564.36 618 l 2
 559.445 618.4 555.998 621 557.061 626 c 2
 561.099 645 l 1
 563.312 646 l 1
 563.312 646 649.887 644 688.887 644 c 0
 724.887 644 818.524 647 818.524 647 c 1
 820.099 645 l 1
 816.061 626 l 2
 814.998 621 811.445 618.4 806.36 618 c 2
 779.935 616 l 2
 739.697 613 722.534 600 716.582 572 c 2
EndSplineSet
LCarets2: 1 0 
Colour: ff00ff
EndChar

StartChar: afii10033
Encoding: 1055 1055 79
Width: 667
VWidth: 999
Flags: HW
HStem: -2 29<19 51 241 269 398 426 616 648> 604 41<188.871 477.86> 618 29<19 55 613 648>
VStem: 106 81<36.6226 602.463> 480 81<36.4035 602.445>
LayerCount: 2
Fore
SplineSet
495.729 74 m 2
 599.031 560 l 2
 604.983 588 604.384 604 572.384 604 c 2
 351.384 604 l 2
 320.384 604 313.046 593 306.031 560 c 2
 202.729 74 l 2
 196.14 43 209.408 32.5 247.164 29 c 2
 268.739 27 l 2
 272.654 26.5996 276.102 24 275.039 19 c 2
 271 0 l 1
 268.575 -2 l 1
 229.787 -1 185 0 146 0 c 0
 107 0 57.7871 -1 18.5752 -2 c 1
 17 0 l 1
 21.0391 19 l 2
 22.1016 24 25.6543 26.5996 30.7393 27 c 2
 57.1641 29 l 2
 96.4014 32 115.777 46 121.729 74 c 2
 227.582 572 l 2
 235.447 609 214.231 614.1 185.935 616 c 2
 156.36 618 l 2
 150.445 618.4 149.21 622 149.848 625 c 2
 154.099 645 l 1
 156.524 647 l 1
 195.312 646 244.099 645 283.099 645 c 2
 657.099 645 l 2
 696.099 645 746.312 646 785.524 647 c 1
 787.099 645 l 1
 783.061 626 l 2
 782.21 622 778.424 618.3 773.36 618 c 2
 743.935 616 l 2
 714.81 614 688.959 602 682.582 572 c 2
 576.729 74 l 2
 570.14 43 583.202 32 622.164 29 c 2
 647.739 27 l 2
 651.675 26.7002 655.102 24 654.039 19 c 2
 650 0 l 1
 647.575 -2 l 1
 608.787 -1 559 0 520 0 c 0
 481 0 436.787 -1 397.575 -2 c 1
 396 0 l 1
 400.039 19 l 2
 401.102 24 404.633 26.5 409.739 27 c 2
 432.164 29 l 2
 474.472 32.7998 489.777 46 495.729 74 c 2
EndSplineSet
Colour: ff00ff
EndChar

StartChar: afii10034
Encoding: 1056 1056 80
Width: 521
VWidth: 999
Flags: HW
HStem: -2 29<19 51 241 284> 282 34<187.781 340.715> 618 29<19 62> 620 34<195.845 345.973>
VStem: 106 81<35.7894 292 318.002 609.994> 409 88<393.808 563.937>
LayerCount: 2
Fore
SplineSet
309.008 574 m 2
 255.23 321 l 1
 265.593 318 300.168 316 325.168 316 c 0
 422.168 316 485.521 360 508.477 468 c 0
 535.471 595 469.785 620 400.785 620 c 0
 328.785 620 315.172 603 309.008 574 c 2
121.092 71 m 2
 228.008 574 l 2
 234.81 606 209.644 615.1 192.935 616 c 2
 154.36 618 l 2
 150.402 618.2 148.785 620 149.636 624 c 2
 154.099 645 l 1
 156.524 647 l 1
 193.312 646 244.099 645 284.099 645 c 0
 324.099 645 389.012 654 415.012 654 c 0
 600.012 654 612.844 545 600.303 486 c 0
 582.235 401 504.941 282 322.941 282 c 0
 287.941 282 269.578 285 249.066 292 c 1
 202.092 71 l 2
 195.715 41 208.61 31.0996 247.164 29 c 2
 283.739 27 l 2
 287.675 26.7002 291.102 24 290.039 19 c 2
 286 0 l 1
 283.575 -2 l 1
 236.787 -1 187 0 147 0 c 0
 106 0 55.7871 -1 18.5752 -2 c 1
 17 0 l 1
 21.0391 19 l 2
 22.1016 24 25.6543 26.5996 30.7393 27 c 2
 57.1641 29 l 2
 97.9229 32.0996 115.14 43 121.092 71 c 2
EndSplineSet
Colour: ff00ff
EndChar

StartChar: afii10035
Encoding: 1057 1057 81
Width: 644
VWidth: 999
Flags: HW
HStem: -12 42<270 460> 621 37<278 443>
VStem: 37 87<204 436>
LayerCount: 2
Fore
SplineSet
352.874 -10 m 0
 137.874 -10 69.7334 154 103.955 315 c 0
 145.829 512 329.862 658 495.862 658 c 0
 618.862 658 648.935 616 705.297 613 c 1
 697.819 559 695.404 510 694.351 458 c 1
 663.501 454 l 1
 655.78 540 614.998 621 476.998 621 c 0
 397.998 621 238.143 537 194.994 334 c 0
 163.961 188 205.589 31 360.589 31 c 0
 453.589 31 528.179 62 615.758 140 c 1
 626.758 140 632.482 134 635.569 125 c 1
 548.652 36 449.874 -10 352.874 -10 c 0
EndSplineSet
Colour: ff00ff
EndChar

StartChar: afii10036
Encoding: 1058 1058 82
Width: 567
VWidth: 999
Flags: HW
HStem: -2 29<171 247.597 347.774 426> 606 39<65.5576 254.216 341.115 506.744>
VStem: 257 81<32.7827 603.107>
LayerCount: 2
Fore
SplineSet
214.099 645 m 2
 637.099 645 l 2
 658.099 645 662.713 662 663.988 668 c 1
 690.838 672 l 1
 680.423 623 673.944 569 671.104 518 c 1
 640.041 513 l 1
 639.408 590 635.81 606 580.81 606 c 2
 514.81 606 l 2
 478.81 606 465.108 598 457.882 564 c 2
 353.304 72 l 2
 346.715 41 360.502 32 399.164 29 c 2
 424.739 27 l 2
 429.654 26.5996 433.102 24 432.039 19 c 2
 428 0 l 1
 425.575 -2 l 1
 378.787 -1 338 0 298 0 c 0
 257 0 217.787 -1 170.575 -2 c 1
 169 0 l 1
 173.039 19 l 2
 174.102 24 177.654 26.5996 182.739 27 c 2
 209.164 29 l 2
 252.044 32.2002 266.353 44 272.304 72 c 2
 377.52 567 l 2
 384.108 598 373.81 606 336.81 606 c 2
 253.81 606 l 2
 198.81 606 183.046 593 146.042 513 c 1
 117.104 518 l 1
 140.37 571 157.423 623 171.838 672 c 1
 197.987 668 l 1
 196.713 662 193.099 645 214.099 645 c 2
EndSplineSet
Colour: ff00ff
EndChar

StartChar: afii10037
Encoding: 1059 1059 83
Width: 580
VWidth: 999
Flags: HW
HStem: -22 62<133 229.447> 618 28<1 51.985 192 235 391 425 520.846 579>
DStem2: 170 575 88 559 0.41865 -0.908148<-32.5036 379.947> 283 136 342 161 0.370296 0.928914<-102.293 0 103.423 504.868>
LayerCount: 2
Fore
SplineSet
203.502 40 m 0
 235.502 40 264.966 61 311.907 136 c 1
 206.819 559 l 2
 201.849 578.9 188.723 615 141.36 618 c 0
 135.445 618.4 131.998 621 132.848 625 c 2
 137.099 645 l 1
 138.312 646 l 1
 138.312 646 201.099 645 242.099 645 c 0
 292.099 645 372.312 646 372.312 646 c 1
 374.099 645 l 1
 370.061 626 l 2
 368.998 621 366.424 618.3 361.36 618 c 2
 322.935 616 l 2
 290.174 614.3 285.968 601.1 292.22 575 c 2
 375.676 229 l 1
 377.676 229 l 1
 580.22 575 l 2
 600.802 610.2 595.64 613.2 555.935 616 c 2
 527.36 618 l 2
 523.424 618.3 521.998 621 522.848 625 c 2
 527.099 645 l 1
 528.312 646 l 1
 528.312 646 594.099 645 636.099 645 c 0
 668.099 645 716.312 646 716.312 646 c 1
 718.099 645 l 1
 714.061 626 l 2
 712.785 620 705.424 618.3 701.36 618 c 0
 654.223 615 642.81 606 619.307 566 c 2
 376.222 161 l 2
 310.053 52 239.324 -22 149.324 -22 c 0
 107.324 -22 66.2129 1 73.0146 33 c 0
 78.9658 61 97.792 79 129.792 79 c 0
 143.792 79 164.304 72 171.753 60 c 0
 176.841 51 189.502 40 203.502 40 c 0
EndSplineSet
EndChar

StartChar: afii10039
Encoding: 1061 1061 84
Width: 655
VWidth: 999
Flags: HW
HStem: -2 29<4 64.0181 178 200 420 443 600.782 650> 618 29<17 64.6875 433 468 565.231 629>
DStem2: 129 104 163 77 0.593199 0.805056<-37.1488 242.53 346.726 618.122> 201 572 262 344 0.578967 -0.815351<-37.4198 228.231 307.823 589.683>
LayerCount: 2
Fore
SplineSet
145.848 625 m 2
 149.887 644 l 1
 153.524 647 l 1
 193.312 646 232.099 645 256.099 645 c 0
 280.099 645 331.312 646 378.524 647 c 1
 378.524 647 378.887 644 379.887 644 c 1
 375.848 625 l 2
 374.785 620 372.103 618.2 369.36 618 c 2
 336.935 616 l 2
 304.01 614 308.942 599.1 322.582 572 c 2
 404.173 396 l 2
 407.685 389 410.834 385 413.834 385 c 0
 416.834 385 421.685 389 429.385 397 c 2
 595.582 572 l 2
 619.324 597.6 627.91 614 598.935 616 c 2
 569.36 618 l 2
 565.424 618.3 562.785 620 563.848 625 c 2
 568.099 645 l 1
 570.524 647 l 1
 610.312 646 646.099 645 669.099 645 c 0
 692.099 645 726.312 646 766.524 647 c 1
 769.099 645 l 1
 764.848 625 l 2
 764.21 622 762.424 618.3 754.36 618 c 0
 693.435 616 664.983 588 630.331 552 c 2
 461.709 375 l 2
 450.236 362.9 444.245 354 442.332 345 c 0
 440.206 335 444.081 325 451.317 312 c 2
 560.681 102 l 1
 579.391 63 606.877 30 650.739 27 c 0
 655.675 26.7002 656.889 23 656.251 20 c 2
 652 0 l 1
 649.575 -2 l 1
 609.787 -1 568 0 545 0 c 0
 522 0 466.787 -1 419.575 -2 c 1
 417 0 l 1
 421.251 20 l 2
 422.102 24 424.654 26.5996 428.739 27 c 2
 449.164 29 l 2
 490.114 33 489.189 39 471.517 73 c 2
 379.478 261 l 2
 375.178 269 371.815 272 367.815 272 c 0
 364.815 272 357.54 266 349.84 258 c 2
 179.367 77 l 2
 157.665 53 145.936 33.0996 184.164 29 c 2
 202.739 27 l 2
 207.732 26.5 207.889 23 207.251 20 c 2
 203 0 l 1
 199.575 -2 l 1
 152.787 -1 127 0 88 0 c 0
 58 0 33.7871 -1 3.5752 -2 c 1
 3 0 l 1
 7.25098 20 l 2
 8.31348 25 13.6748 26.7002 19.7393 27 c 0
 78.377 30 122.729 74 151.105 104 c 2
 327.854 291 l 2
 335.555 299 341.468 308 342.743 314 c 0
 344.868 324 341.781 333 335.119 344 c 1
 234.693 549 l 2
 206.021 607 177.223 615 160.36 618 c 0
 150.821 619.7 144.998 621 145.848 625 c 2
EndSplineSet
Colour: ff00ff
EndChar

StartChar: afii10040
Encoding: 1062 1062 85
Width: 639
VWidth: 487
Flags: HMW
HStem: -2 29<20 52> 0 37<175.296 460.197> 618 28<19 52 211 245 391 424 582 614>
VStem: 92 81<37.9463 613.762> 463 81<38.9907 613.347>
LayerCount: 2
Fore
SplineSet
458 0 m 2
 172 0 l 2
 157 0 142 0 127 0 c 2
 19.5752 -2 l 1
 17 0 l 1
 20.6133 17 l 2
 21.6758 22 26.6543 26.5996 31.7393 27 c 2
 58.1641 29 l 2
 91.4951 31.5 99.4395 35 107.941 75 c 2
 213.157 570 l 2
 221.447 609 216.346 613.7 182.935 616 c 2
 153.36 618 l 2
 150.402 618.2 148.572 619 149.423 623 c 2
 154.099 645 l 1
 156.312 646 l 1
 264.099 645 l 1
 382.312 646 l 1
 384.099 645 l 1
 379.423 623 l 2
 378.785 620 376.424 618.3 372.36 618 c 2
 341.935 616 l 2
 309.067 613.8 302.659 610 294.157 570 c 2
 190.643 83 l 2
 181.928 42 187.864 37 218.864 37 c 2
 431.864 37 l 2
 466.864 37 473.841 51 480.643 83 c 2
 584.157 570 l 2
 590.959 602 590.925 613.6 554.935 616 c 2
 525.36 618 l 2
 522.402 618.2 520.572 619 521.423 623 c 2
 526.099 645 l 1
 528.312 646 l 1
 636.099 645 l 1
 751.312 646 l 1
 754.099 645 l 1
 749.423 623 l 2
 748.785 620 746.424 618.3 742.36 618 c 2
 712.935 616 l 2
 675.504 613.5 672.172 603 665.157 570 c 2
 560.367 77 l 2
 555.053 52 566.377 30 589.739 27 c 0
 613.88 23.9004 616.4 16 615.488 7 c 2
 590.029 -141 l 1
 562.817 -142 l 1
 563.908 -71 535 0 458 0 c 2
EndSplineSet
EndChar

StartChar: afii10041
Encoding: 1063 1063 86
Width: 633
VWidth: 999
Flags: HW
HStem: -2 29<362 394 584 617> 250 58<211.228 364.049> 618 28<10 42 232 265 361 394 584 616>
VStem: 97 81<342.847 609.08> 449 80<35.9646 317 342.244 608.625>
LayerCount: 2
Fore
SplineSet
218.37 571 m 2
 224.959 602 212.076 612.9 172.935 616 c 2
 147.36 618 l 2
 143.424 618.3 139.998 621 141.061 626 c 2
 145.099 645 l 1
 147.312 646 l 1
 147.312 646 234.099 645 273.099 645 c 0
 308.099 645 402.312 646 402.312 646 c 1
 404.099 645 l 1
 400.061 626 l 2
 398.998 621 395.445 618.4 390.36 618 c 2
 362.935 616 l 2
 320.476 612.9 305.321 599 299.37 571 c 2
 266.636 417 l 2
 249.206 335 285.468 308 357.468 308 c 0
 386.468 308 451.317 312 524.458 355 c 1
 570.582 572 l 2
 576.959 602 562.897 613 524.935 616 c 2
 499.36 618 l 2
 494.445 618.4 490.998 621 492.061 626 c 2
 496.099 645 l 1
 498.312 646 l 1
 498.312 646 585.099 645 624.099 645 c 0
 660.099 645 753.312 646 753.312 646 c 1
 755.099 645 l 1
 751.061 626 l 2
 749.998 621 746.445 618.4 741.36 618 c 2
 714.935 616 l 2
 674.276 612.9 656.534 600 650.582 572 c 2
 544.517 73 l 2
 538.14 43 551.023 32.0996 590.164 29 c 2
 615.739 27 l 2
 620.654 26.5996 624.102 24 623.039 19 c 2
 619 0 l 1
 616.575 -2 l 1
 616.575 -2 530 0 491 0 c 0
 455 0 361.575 -2 361.575 -2 c 1
 360 0 l 1
 364.039 19 l 2
 365.102 24 368.654 26.5996 373.739 27 c 2
 400.164 29 l 2
 443.466 32.2998 458.565 45 464.517 73 c 2
 516.381 317 l 1
 432.54 266 361.139 250 303.139 250 c 0
 189.139 250 166.931 329 187.975 428 c 2
 218.37 571 l 2
EndSplineSet
EndChar

StartChar: afii10042
Encoding: 1064 1064 87
Width: 962
VWidth: 487
Flags: HW
HStem: -2 29<34 101.198 861.703 930> 0 34<190.019 436.591 525.39 772.361> 618 28<19 52 242 271 355 386 576 605 691 722 912 944>
VStem: 106 81<35.9437 608.51> 440 81<35.9512 608.88> 776 81<35.6524 608.179>
LayerCount: 2
Fore
SplineSet
978.582 572 m 2
 872.092 71 l 2
 864.652 36 870.285 29.0996 901.951 28 c 2
 931.739 27 l 2
 935.718 26.9004 937.313 25 936.676 22 c 2
 932 0 l 1
 929.575 -2 l 1
 815 0 l 1
 180 0 l 1
 33.5752 -2 l 1
 32 0 l 1
 36.6758 22 l 2
 37.3135 25 39.7178 26.9004 42.7393 27 c 2
 72.9512 28 l 2
 106.085 29.0996 113.864 37 122.154 76 c 2
 227.582 572 l 2
 233.959 602 219.939 613.2 182.935 616 c 2
 156.36 618 l 2
 152.424 618.3 148.998 621 150.061 626 c 2
 154.099 645 l 1
 156.312 646 l 1
 156.312 646 243.099 645 282.099 645 c 0
 318.099 645 408.312 646 408.312 646 c 1
 410.099 645 l 1
 406.061 626 l 2
 404.998 621 402.445 618.4 397.36 618 c 2
 372.935 616 l 2
 332.134 612.7 314.534 600 308.582 572 c 2
 204.643 83 l 2
 197.841 51 194.527 34 233.227 34 c 2
 414.227 34 l 2
 445.227 34 451.053 52 457.643 83 c 2
 561.582 572 l 2
 567.959 602 553.876 612.9 516.935 616 c 2
 493.36 618 l 2
 488.445 618.4 485.998 621 487.061 626 c 2
 491.099 645 l 1
 492.312 646 l 1
 492.312 646 577.099 645 616.099 645 c 0
 652.099 645 742.312 646 742.312 646 c 1
 744.099 645 l 1
 740.061 626 l 2
 738.998 621 735.424 618.3 731.36 618 c 2
 706.935 616 l 2
 662.67 612.4 648.534 600 642.582 572 c 2
 538.643 83 l 2
 532.266 53 532.227 34 565.227 34 c 2
 744.227 34 l 2
 777.227 34 785.353 44 793.643 83 c 2
 897.582 572 l 2
 903.959 602 886.14 613.2 852.935 616 c 2
 829.36 618 l 2
 824.445 618.4 820.998 621 822.061 626 c 2
 826.099 645 l 1
 828.312 646 l 1
 828.312 646 913.099 645 952.099 645 c 0
 988.099 645 1081.31 646 1081.31 646 c 1
 1083.1 645 l 1
 1079.06 626 l 2
 1078 621 1074.45 618.4 1069.36 618 c 2
 1042.93 616 l 2
 1004.42 613.1 984.534 600 978.582 572 c 2
EndSplineSet
EndChar

StartChar: afii10043
Encoding: 1065 1065 88
Width: 965
VWidth: 487
Flags: HMW
HStem: -2 29<34 67> 0 34<191.235 436.719 525.256 772.56> 618 28<19 52 242 271 355 386 576 605 691 722 869.125 944>
VStem: 106 81<36.2848 608.73> 440 81<36.9391 608.603> 776 81<35.7084 609.461>
LayerCount: 2
Fore
SplineSet
308.582 572 m 2
 204.643 83 l 2
 198.266 53 197.227 34 233.227 34 c 2
 406.227 34 l 2
 444.227 34 449.99 47 457.643 83 c 2
 561.582 572 l 2
 567.959 602 554.055 612.8 516.935 616 c 2
 493.36 618 l 2
 488.445 618.4 485.998 621 487.061 626 c 2
 491.099 645 l 1
 492.312 646 l 1
 492.312 646 577.099 645 616.099 645 c 0
 652.099 645 742.312 646 742.312 646 c 1
 744.099 645 l 1
 740.061 626 l 2
 738.998 621 735.424 618.3 731.36 618 c 2
 706.935 616 l 2
 665.412 612.6 648.534 600 642.582 572 c 2
 538.643 83 l 2
 530.99 47 533.227 34 576.227 34 c 2
 744.227 34 l 2
 779.227 34 785.99 47 793.643 83 c 2
 897.582 572 l 2
 903.959 602 891.934 612.7 852.935 616 c 2
 829.36 618 l 2
 824.445 618.4 820.998 621 822.061 626 c 2
 826.099 645 l 1
 828.312 646 l 1
 828.312 646 913.099 645 952.099 645 c 0
 988.099 645 1081.31 646 1081.31 646 c 1
 1083.1 645 l 1
 1079.06 626 l 2
 1078 621 1074.45 618.4 1069.36 618 c 2
 1042.93 616 l 1
 1001.93 616 984.534 600 978.582 572 c 2
 874.217 81 l 2
 865.928 42 888.377 30 902.739 27 c 0
 919.695 23.5 930.464 21 927.851 4 c 2
 904.029 -141 l 1
 875.817 -142 l 1
 878.17 -98 861 0 775 0 c 2
 147 0 l 1
 33.5752 -2 l 1
 32 0 l 1
 36.6758 22 l 2
 37.3135 25 39.6963 26.7998 42.7393 27 c 2
 73.1641 29 l 2
 105.311 31.0996 113.015 33 121.304 72 c 2
 227.582 572 l 2
 233.959 602 220.918 613.1 182.935 616 c 2
 156.36 618 l 2
 152.424 618.3 148.998 621 150.061 626 c 2
 154.099 645 l 1
 156.312 646 l 1
 156.312 646 243.099 645 282.099 645 c 0
 318.099 645 408.312 646 408.312 646 c 1
 410.099 645 l 1
 406.061 626 l 2
 404.998 621 402.445 618.4 397.36 618 c 2
 372.935 616 l 2
 331.412 612.6 314.534 600 308.582 572 c 2
EndSplineSet
EndChar

StartChar: afii10044
Encoding: 1066 1066 89
Width: 717
VWidth: 999
Flags: HMW
HStem: -2 29<178 210 354.52 491.526> 333 40<346 514.567> 469 21G<26 60> 605 40<115.773 261.594> 618 28<400 433>
VStem: 26 30<472.833 516.776> 265 81<36.7694 333 373 602.051> 592 89<103.56 266.225>
LayerCount: 2
Fore
SplineSet
416.781 333 m 1
 362.792 79 l 2
 355.777 46 356.739 27 410.739 27 c 0
 562.739 27 617.72 121 630.897 183 c 0
 643.651 243 632.781 333 503.781 333 c 2
 416.781 333 l 1
441.099 645 m 2
 476.099 645 570.312 646 570.312 646 c 1
 572.099 645 l 1
 568.061 626 l 2
 566.998 621 563.445 618.4 558.36 618 c 2
 530.935 616 l 2
 491.719 613.1 473.534 600 467.582 572 c 2
 425.283 373 l 1
 485.283 373 l 2
 731.283 373 738.815 272 719.897 183 c 0
 684.4 16 523.575 -2 402.575 -2 c 0
 366.575 -2 336 0 307 0 c 0
 271 0 177.575 -2 177.575 -2 c 1
 176 0 l 1
 180.039 19 l 2
 181.102 24 184.654 26.5996 189.739 27 c 2
 216.164 29 l 2
 256.401 32 274.777 46 280.729 74 c 2
 384.882 564 l 2
 390.621 591 382.597 605 354.597 605 c 2
 292.597 605 l 2
 226.597 605 172.829 512 155.689 469 c 1
 126.752 474 l 1
 147.655 530 163.921 583 179.099 645 c 1
 266.099 645 441.099 645 441.099 645 c 2
EndSplineSet
EndChar

StartChar: afii10045
Encoding: 1067 1067 90
Width: 786
VWidth: 999
Flags: HW
HStem: -2 29<19 51 195.157 332.526> -1 29<512 544 734 766> 333 40<187 350.404> 618 28<19 51 241 274> 619 29<511 544 734 766>
VStem: 106 81<36.115 333 373 608.659> 433 89<103.56 259.16> 598 81<36.3322 610.22>
LayerCount: 2
Fore
SplineSet
801.22 575 m 2
 694.304 72 l 2
 687.928 42 701.336 33.0996 740.377 30 c 2
 765.951 28 l 2
 769.888 27.7002 773.313 25 772.251 20 c 2
 768.213 1 l 1
 765.787 -1 l 1
 718.713 1 688.713 1 639.213 1 c 0
 589.713 1 561.213 1 511.787 -1 c 1
 510.213 1 l 1
 514.251 20 l 2
 515.313 25 518.888 27.7002 522.951 28 c 2
 550.377 30 l 2
 592.636 33.0996 607.353 44 613.304 72 c 2
 720.22 575 l 2
 726.597 605 713.831 614.1 675.147 617 c 2
 648.572 619 l 2
 644.637 619.3 641.21 622 642.273 627 c 2
 646.312 646 l 1
 648.736 648 l 1
 698.524 647 725.812 646 775.312 646 c 0
 825.212 646 854.524 647 903.736 648 c 1
 905.312 646 l 1
 901.273 627 l 2
 900.21 622 896.657 619.4 891.572 619 c 2
 865.147 617 l 2
 824.688 613.9 807.172 603 801.22 575 c 2
227.582 572 m 2
 233.534 600 221.276 612.9 181.935 616 c 2
 156.36 618 l 2
 151.36 618 148.998 621 150.061 626 c 2
 154.099 645 l 1
 156.312 646 l 1
 156.312 646 249.099 645 285.099 645 c 0
 324.099 645 411.312 646 411.312 646 c 1
 413.099 645 l 1
 409.061 626 l 2
 407.998 621 403.36 618 399.36 618 c 2
 371.935 616 l 2
 333.297 613 314.959 602 308.582 572 c 2
 266.283 373 l 1
 356.283 373 l 2
 575.283 373 579.815 272 560.897 183 c 0
 525.4 16 364.575 -2 243.575 -2 c 0
 207.575 -2 177 0 148 0 c 0
 120 0 18.5752 -2 18.5752 -2 c 1
 17 0 l 1
 21.0391 19 l 2
 22.1016 24 25.7393 27 30.7393 27 c 2
 57.1641 29 l 2
 98.8447 32.2002 115.777 46 121.729 74 c 2
 227.582 572 l 2
257.781 333 m 1
 203.792 79 l 2
 196.777 46 196.739 27 251.739 27 c 0
 403.739 27 458.72 121 471.897 183 c 0
 484.651 243 462.781 333 334.781 333 c 2
 257.781 333 l 1
EndSplineSet
Colour: ff00ff
EndChar

StartChar: afii10046
Encoding: 1068 1068 91
Width: 558
VWidth: 999
Flags: HW
HStem: -2 29<19 51 195.157 332.526> 333 40<187 350.404> 618 28<19 51 241 274>
VStem: 106 81<36.115 333 373 608.659> 433 89<103.56 259.16>
LayerCount: 2
Fore
SplineSet
227.582 572 m 2
 233.534 600 221.276 612.9 181.935 616 c 2
 156.36 618 l 2
 151.36 618 148.998 621 150.061 626 c 2
 154.099 645 l 1
 156.312 646 l 1
 156.312 646 249.099 645 285.099 645 c 0
 324.099 645 411.312 646 411.312 646 c 1
 413.099 645 l 1
 409.061 626 l 2
 407.998 621 403.36 618 399.36 618 c 2
 371.935 616 l 2
 333.297 613 314.959 602 308.582 572 c 2
 266.283 373 l 1
 356.283 373 l 2
 575.283 373 579.815 272 560.897 183 c 0
 525.4 16 364.575 -2 243.575 -2 c 0
 207.575 -2 177 0 148 0 c 0
 120 0 18.5752 -2 18.5752 -2 c 1
 17 0 l 1
 21.0391 19 l 2
 22.1016 24 25.7393 27 30.7393 27 c 2
 57.1641 29 l 2
 98.8447 32.2002 115.777 46 121.729 74 c 2
 227.582 572 l 2
257.781 333 m 1
 203.792 79 l 2
 196.777 46 196.739 27 251.739 27 c 0
 403.739 27 458.72 121 471.897 183 c 0
 484.651 243 462.781 333 334.781 333 c 2
 257.781 333 l 1
EndSplineSet
EndChar

StartChar: afii10047
Encoding: 1069 1069 92
Width: 604
VWidth: 999
Flags: HMW
HStem: -12 34<194 359> 273 56<309 422> 311 49<155 284> 621 37<189 346>
VStem: 472 89<186 307 344 460>
LayerCount: 2
Fore
SplineSet
537.255 307 m 1
 475.028 273 431.028 273 418.028 273 c 0
 356.028 273 321.105 311 262.105 311 c 0
 224.105 311 204.704 295 196.704 295 c 0
 192.704 295 188.342 298 190.255 307 c 0
 195.568 332 264.521 360 323.521 360 c 0
 389.521 360 411.931 329 469.931 329 c 0
 498.931 329 523.206 335 544.119 344 c 1
 577.906 550 483.998 621 402.998 621 c 0
 307.998 621 212.78 540 168.501 454 c 1
 139.351 458 l 1
 161.616 511 179.606 558 193.297 613 c 1
 251.935 616 313.862 658 418.862 658 c 0
 583.862 658 677.906 550 631.781 333 c 0
 585.019 113 442.449 -12 272.449 -12 c 0
 186.449 -12 137.039 19 111.14 43 c 0
 88.6035 64 74.1934 95 79.9316 122 c 0
 85.458 148 101.072 165 119.072 165 c 0
 148.072 165 157.309 152 160.507 120 c 0
 169.203 48 218.464 21 290.464 21 c 0
 417.464 21 506.922 169 537.255 307 c 1
EndSplineSet
EndChar

StartChar: afii10048
Encoding: 1070 1070 93
Width: 905
VWidth: 999
Flags: HW
HStem: -12 34<522.79 654.127> -2 29<20 52 242 274> 305 39<187 285> 618 28<19 52 242 274> 624 34<500.207 639.641>
VStem: 106 81<35.8732 305 344 608.613> 285 91<191.359 305 344 446.869> 775 91<190.414 458.78>
LayerCount: 2
Fore
SplineSet
935.931 329 m 0
 893.42 129 749.449 -12 571.449 -12 c 0
 413.449 -12 310.594 111 349.83 305 c 1
 251.83 305 l 1
 202.517 73 l 2
 196.14 43 209.023 32.0996 248.164 29 c 2
 273.739 27 l 2
 277.675 26.7002 281.102 24 280.039 19 c 2
 276 0 l 1
 273.575 -2 l 1
 273.575 -2 188 0 148 0 c 0
 113 0 19.5752 -2 19.5752 -2 c 1
 18 0 l 1
 22.0391 19 l 2
 23.1016 24 26.6748 26.7002 30.7393 27 c 2
 58.1641 29 l 2
 99.6016 32 115.565 45 121.517 73 c 2
 227.582 572 l 2
 233.959 602 221.118 613.1 182.935 616 c 2
 156.36 618 l 2
 152.424 618.3 148.998 621 150.061 626 c 2
 154.099 645 l 1
 156.312 646 l 1
 156.312 646 243.099 645 282.099 645 c 0
 318.099 645 411.312 646 411.312 646 c 1
 413.099 645 l 1
 409.061 626 l 2
 407.998 621 404.445 618.4 399.36 618 c 2
 372.935 616 l 2
 331.976 612.9 314.534 600 308.582 572 c 2
 260.119 344 l 1
 359.119 344 l 1
 410.167 523 556.862 658 712.862 658 c 0
 880.862 658 978.018 527 935.931 329 c 0
694.636 624 m 0
 610.636 624 490.143 537 445.506 327 c 0
 404.695 135 488.676 22 596.676 22 c 0
 699.676 22 802.845 131 840.893 310 c 0
 885.104 518 819.636 624 694.636 624 c 0
EndSplineSet
EndChar

StartChar: afii10049
Encoding: 1071 1071 94
Width: 561
VWidth: 999
Flags: HW
HStem: -2 29<11 26 286 318 508 541> 323 39<287.282 373> 611 35<199.954 371.324> 618 28<507 544>
VStem: 69 81<416.932 568.061> 373 81<35.9306 323 362 607.704>
LayerCount: 2
Fore
SplineSet
441.656 323 m 1
 335.656 323 312.02 281.9 254.26 180 c 0
 191.879 70 148.021 0.0996094 76.7871 -1 c 2
 10.5752 -2 l 1
 10 0 l 1
 14.0391 19 l 2
 15.1016 24 18.6543 26.5996 22.7393 27 c 2
 31.9512 28 l 2
 64.1953 31.5 130.894 103 212.163 236 c 0
 237.157 276.9 258.105 311 287.931 329 c 1
 222.057 339 150.834 385 172.515 487 c 0
 187.182 556 240.312 646 426.312 646 c 0
 461.312 646 520.099 645 553.099 645 c 0
 584.099 645 681.312 646 681.312 646 c 1
 676.848 625 l 2
 675.998 621 673.424 618.3 668.36 618 c 2
 637.935 616 l 2
 595.439 613.2 582.81 606 575.582 572 c 2
 469.517 73 l 2
 463.14 43 474.202 32 514.164 29 c 2
 540.739 27 l 2
 544.675 26.7002 548.102 24 547.039 19 c 2
 543 0 l 1
 540.575 -2 l 1
 540.575 -2 454 0 415 0 c 0
 379 0 285.575 -2 285.575 -2 c 1
 284 0 l 1
 288.039 19 l 2
 289.102 24 292.654 26.5996 297.739 27 c 2
 324.164 29 l 2
 366.444 32.2002 382.565 45 388.517 73 c 2
 441.656 323 l 1
495.22 575 m 2
 502.234 608 498.872 611 411.872 611 c 0
 355.872 611 276.471 595 256.703 502 c 0
 234.173 396 288.945 362 371.945 362 c 2
 449.945 362 l 1
 495.22 575 l 2
EndSplineSet
EndChar

StartChar: afii10089
Encoding: 1095 1095 95
Width: 510
VWidth: 999
Flags: HW
HStem: -2 29<274 294 450 470> 146 35<165.488 293.187> 402 29<18 30 186 206 275 294 415.352 480>
VStem: 71 75<194.637 397.49> 335 75<32.4718 189 207.909 398.291>
LayerCount: 2
Fore
SplineSet
410.032 353 m 2
 418.322 392 413.546 398.7 379.235 401 c 2
 364.447 402 l 2
 360.512 402.3 358.66 403 359.511 407 c 2
 364.187 429 l 1
 366.612 431 l 1
 366.612 431 422.887 429 459.187 429 c 0
 502.887 429 571.612 431 571.612 431 c 1
 572.187 429 l 1
 567.511 407 l 2
 566.873 404 564.469 402.1 561.447 402 c 2
 535.235 401 l 2
 504.08 399.8 493.747 394 485.032 353 c 2
 426.579 78 l 2
 418.502 40 420.479 33.2998 456.164 29 c 2
 472.739 27 l 2
 475.654 26.5996 477.313 25 476.676 22 c 2
 472 0 l 1
 469.575 -2 l 1
 469.575 -2 411 0 374 0 c 0
 333 0 273.575 -2 273.575 -2 c 1
 272 0 l 1
 276.464 21 l 2
 277.313 25 279.633 26.5 283.739 27 c 2
 300.164 29 l 2
 337.32 33.5 343.29 39 351.579 78 c 2
 375.173 189 l 1
 330.009 160 295.033 146 235.033 146 c 0
 137.033 146 111.599 191 134.129 297 c 2
 146.245 354 l 2
 154.322 392 148.621 396.7 115.235 401 c 2
 107.447 402 l 2
 104.533 402.4 102.66 403 103.511 407 c 2
 108.187 429 l 1
 109.612 431 l 1
 109.612 431 162.887 429 197.187 429 c 0
 236.187 429 297.612 431 297.612 431 c 1
 298.187 429 l 1
 293.723 408 l 2
 292.873 404 290.512 402.3 286.447 402 c 2
 271.235 401 l 2
 237.968 398.8 229.109 391 222.308 359 c 2
 208.279 293 l 2
 191.699 215 191.473 181 253.473 181 c 0
 302.473 181 344.023 193 382.825 225 c 1
 410.032 353 l 2
EndSplineSet
EndChar

StartChar: afii10090
Encoding: 1096 1096 96
Width: 818
VWidth: 999
Flags: HW
HStem: -2 29<33 63 750 784> 0 34<182.117 365.221 449.273 630.268> 402 29<33 63 219 242 305 329 484 513 565 594 750 775>
VStem: 103 75<35.9712 397.122> 369 75<36.284 396.916> 635 75<36.4002 397.278>
CounterMasks: 1 1c
LayerCount: 2
Fore
SplineSet
785.032 353 m 2
 725.092 71 l 2
 717.439 35 723.711 31.0996 756.164 29 c 2
 786.739 27 l 2
 790.675 26.7002 792.102 24 791.464 21 c 2
 787 0 l 1
 783.575 -2 l 1
 783.575 -2 700 0 670 0 c 2
 137 0 l 2
 107 0 32.5752 -2 32.5752 -2 c 1
 32 0 l 1
 36.6758 22 l 2
 37.3135 25 38.6328 26.5 42.7393 27 c 2
 69.1641 29 l 2
 104.538 31.7002 111.29 39 118.304 72 c 2
 178.032 353 l 2
 186.109 391 183.327 397.2 148.022 400 c 2
 122.447 402 l 2
 119.49 402.2 117.66 403 118.511 407 c 2
 123.187 429 l 1
 124.612 431 l 1
 232.187 429 l 1
 333.612 431 l 1
 335.187 429 l 1
 330.723 408 l 2
 329.873 404 327.533 402.4 323.447 402 c 2
 304.022 400 l 2
 269.879 396.5 261.747 394 253.032 353 c 2
 196.067 85 l 2
 187.565 45 191.227 34 226.227 34 c 2
 336.227 34 l 2
 371.227 34 378.99 47 386.854 84 c 2
 443.82 352 l 2
 452.109 391 446.121 396.7 414.022 400 c 2
 394.447 402 l 2
 391.512 402.3 389.66 403 390.511 407 c 2
 395.187 429 l 1
 396.612 431 l 1
 496.187 429 l 1
 604.612 431 l 1
 605.187 429 l 1
 600.511 407 l 2
 599.873 404 597.512 402.3 593.447 402 c 2
 569.022 400 l 2
 537.87 397.4 527.535 393 518.82 352 c 2
 462.067 85 l 2
 453.14 43 463.227 34 491.227 34 c 2
 602.227 34 l 2
 639.227 34 646.479 54 653.067 85 c 2
 710.032 353 l 2
 718.109 391 714.985 397 679.022 400 c 2
 655.447 402 l 2
 651.512 402.3 649.66 403 650.511 407 c 2
 655.187 429 l 1
 656.612 431 l 1
 760.187 429 l 1
 866.612 431 l 1
 867.187 429 l 1
 862.723 408 l 2
 861.873 404 859.512 402.3 856.447 402 c 2
 835.022 400 l 2
 802.785 397 793.747 394 785.032 353 c 2
EndSplineSet
EndChar

StartChar: afii10091
Encoding: 1097 1097 97
Width: 809
VWidth: 999
Flags: HMW
HStem: -2 29<33 63> 0 34<181.744 365.221 448.881 630.687> 402 29<33 63 219 242 305 329 484 513 565 594 750 775>
VStem: 104 74<35.7845 397.151> 369 75<36.1619 397.035> 635 74<36.5977 397.021>
CounterMasks: 1 1c
LayerCount: 2
Fore
SplineSet
784.032 353 m 2
 724.729 74 l 2
 719.415 49 729.377 30 751.739 27 c 0
 764.277 25.2998 777.889 23 775.062 5 c 2
 752.793 -128 l 1
 727.58 -129 l 1
 725.995 -80 716 0 636 0 c 2
 137 0 l 2
 107 0 32.5752 -2 32.5752 -2 c 1
 32 0 l 1
 36.4639 21 l 2
 37.3135 25 38.6328 26.5 42.7393 27 c 2
 69.1641 29 l 2
 103.117 31.5996 111.864 37 119.304 72 c 2
 179.032 353 l 2
 187.109 391 182.349 397.3 148.022 400 c 2
 122.447 402 l 2
 119.49 402.2 117.66 403 118.511 407 c 2
 123.187 429 l 1
 124.612 431 l 1
 231.187 429 l 1
 333.612 431 l 1
 335.187 429 l 1
 330.723 408 l 2
 329.873 404 327.533 402.4 323.447 402 c 2
 304.022 400 l 2
 269.879 396.5 261.747 394 253.032 353 c 2
 195.643 83 l 2
 187.353 44 191.227 34 226.227 34 c 2
 336.227 34 l 2
 371.227 34 378.777 46 386.643 83 c 2
 443.82 352 l 2
 452.109 391 446.821 396.7 414.022 400 c 2
 394.447 402 l 2
 391.512 402.3 389.66 403 390.511 407 c 2
 395.187 429 l 1
 396.612 431 l 1
 497.187 429 l 1
 604.612 431 l 1
 605.187 429 l 1
 600.511 407 l 2
 599.873 404 597.512 402.3 593.447 402 c 2
 569.022 400 l 2
 533.406 397.1 527.535 393 518.82 352 c 2
 461.643 83 l 2
 452.928 42 463.227 34 492.227 34 c 2
 601.227 34 l 2
 638.227 34 645.841 51 652.854 84 c 2
 710.032 353 l 2
 718.109 391 711.049 397.3 679.022 400 c 2
 655.447 402 l 2
 651.512 402.3 649.66 403 650.511 407 c 2
 655.187 429 l 1
 656.612 431 l 1
 758.187 429 l 1
 866.612 431 l 1
 867.187 429 l 1
 862.723 408 l 2
 861.873 404 859.512 402.3 856.447 402 c 2
 835.022 400 l 2
 799.421 396.7 792.747 394 784.032 353 c 2
EndSplineSet
EndChar

StartChar: afii10092
Encoding: 1098 1098 98
Width: 537
VWidth: 999
Flags: HMW
HStem: -2 31<128 153 280.978 394.853> 224 32<271 396.312> 392 37<95.6091 193.705> 402 29<311 345>
VStem: 196 75<35.7372 224 256 391.315> 431 75<61.062 196.916>
LayerCount: 2
Fore
SplineSet
211.729 74 m 2
 269.757 347 l 2
 277.622 384 272.322 392 250.322 392 c 0
 168.322 392 145.883 357 111.453 275 c 1
 85.5156 280 l 1
 102.293 326 115.858 371 129.187 429 c 1
 325.187 429 l 1
 436.612 431 l 1
 438.187 429 l 1
 433.511 407 l 2
 432.66 403 430.49 402.2 427.447 402 c 2
 396.022 400 l 2
 359.634 397.7 354.322 392 346.883 357 c 2
 325.414 256 l 1
 382.414 256 l 2
 478.414 256 554.888 230 534.908 136 c 0
 517.053 52 444.575 -2 332.575 -2 c 1
 332.575 -2 270.8 0 231 0 c 0
 190.8 0 127.575 -2 127.575 -2 c 1
 126 0 l 1
 130.039 19 l 2
 131.102 24 134.633 26.5 139.739 27 c 2
 159.164 29 l 2
 195.771 32.7998 205.565 45 211.729 74 c 2
457.782 126 m 0
 469.048 179 456.612 224 385.612 224 c 2
 318.612 224 l 1
 287.579 78 l 2
 279.928 42 294.164 29 340.164 29 c 0
 390.164 29 440.353 44 457.782 126 c 0
EndSplineSet
EndChar

StartChar: afii10093
Encoding: 1099 1099 99
Width: 681
VWidth: 999
Flags: HW
HStem: -2 29<440 465 625 651> -2 31<38 63 188.805 304.466> 224 32<181 306.312> 401 29<38 63 224 249> 402 29<440 465 625 651>
VStem: 106 75<34.4717 224 256 394.233> 341 75<61.062 196.916> 508 75<33.7869 395.199>
LayerCount: 2
Fore
SplineSet
583.67 356 m 2
 589.622 384 582.179 396.5 550.022 400 c 2
 531.447 402 l 2
 526.554 402.5 524.085 405 525.148 410 c 2
 529.187 429 l 1
 531.612 431 l 1
 568.399 430 599.187 429 635.187 429 c 0
 673.187 429 705.399 430 742.612 431 c 1
 744.187 429 l 1
 740.148 410 l 2
 739.085 405 734.554 402.5 729.447 402 c 2
 710.022 400 l 2
 678.843 396.8 664.622 384 658.67 356 c 2
 598.729 74 l 2
 592.565 45 600.666 32.2998 631.164 29 c 2
 649.739 27 l 2
 654.633 26.5 658.102 24 657.039 19 c 2
 653 0 l 1
 650.575 -2 l 1
 613.787 -1 582 0 544 0 c 0
 508 0 476.787 -1 439.575 -2 c 1
 438 0 l 1
 442.039 19 l 2
 443.102 24 446.633 26.5 451.739 27 c 2
 471.164 29 l 2
 504.087 32.4004 517.565 45 523.729 74 c 2
 583.67 356 l 2
367.782 126 m 0
 379.048 179 366.612 224 295.612 224 c 2
 228.612 224 l 1
 196.729 74 l 2
 189.29 39 204.164 29 250.164 29 c 0
 300.164 29 350.353 44 367.782 126 c 0
121.729 74 m 2
 181.458 355 l 2
 187.622 384 182.624 395.3 147.811 399 c 2
 129.235 401 l 2
 124.342 401.5 121.873 404 123.148 410 c 2
 126.975 428 l 1
 129.399 430 l 1
 129.399 430 197.187 429 233.187 429 c 0
 272.187 429 340.399 430 340.399 430 c 1
 341.975 428 l 1
 338.148 410 l 2
 336.873 404 332.32 401.4 328.235 401 c 2
 308.811 399 l 2
 275.388 395.6 262.622 384 256.458 355 c 2
 235.414 256 l 1
 292.414 256 l 2
 388.414 256 464.888 230 444.907 136 c 0
 427.053 52 353.575 -2 242.575 -2 c 0
 203.175 -2 181.4 0 142 0 c 0
 101.4 0 37.5752 -2 37.5752 -2 c 1
 36 0 l 1
 40.0391 19 l 2
 41.1016 24 44.6328 26.5 49.7393 27 c 2
 69.1641 29 l 2
 106.372 32.7998 115.565 45 121.729 74 c 2
EndSplineSet
Colour: ff00ff
EndChar

StartChar: afii10094
Encoding: 1100 1100 100
Width: 447
VWidth: 999
Flags: HW
HStem: -2 31<38 63 188.805 304.466> 224 32<181 306.312> 401 29<38 63 224 249>
VStem: 106 75<34.4717 224 256 394.233> 341 75<61.062 196.916>
LayerCount: 2
Fore
SplineSet
367.782 126 m 0
 379.048 179 366.612 224 295.612 224 c 2
 228.612 224 l 1
 196.729 74 l 2
 189.29 39 204.164 29 250.164 29 c 0
 300.164 29 350.353 44 367.782 126 c 0
121.729 74 m 2
 181.458 355 l 2
 187.622 384 182.624 395.3 147.811 399 c 2
 129.235 401 l 2
 124.342 401.5 121.873 404 123.148 410 c 2
 126.975 428 l 1
 129.399 430 l 1
 129.399 430 197.187 429 233.187 429 c 0
 272.187 429 340.399 430 340.399 430 c 1
 341.975 428 l 1
 338.148 410 l 2
 336.873 404 332.32 401.4 328.235 401 c 2
 308.811 399 l 2
 275.388 395.6 262.622 384 256.458 355 c 2
 235.414 256 l 1
 292.414 256 l 2
 388.414 256 464.888 230 444.907 136 c 0
 427.053 52 353.575 -2 242.575 -2 c 0
 203.175 -2 181.4 0 142 0 c 0
 101.4 0 37.5752 -2 37.5752 -2 c 1
 36 0 l 1
 40.0391 19 l 2
 41.1016 24 44.6328 26.5 49.7393 27 c 2
 69.1641 29 l 2
 106.372 32.7998 115.565 45 121.729 74 c 2
EndSplineSet
EndChar

StartChar: afii10095
Encoding: 1101 1101 101
Width: 434
VWidth: 999
Flags: HMW
HStem: -10 31<133.489 237.744> 180 49<160.832 302.074> 207 41<92.6331 188.46> 408 31<122.738 236.146>
VStem: 314 77<116.594 208 230.421 318.818>
LayerCount: 2
Fore
SplineSet
363.163 236 m 1
 371.68 309 358.723 408 268.723 408 c 0
 188.723 408 155.607 351 128.642 290 c 1
 102.491 294 l 1
 117.844 338 128.071 372 141.762 427 c 1
 211.762 427 214.312 439 285.312 439 c 0
 408.312 439 462.206 335 438.825 225 c 0
 405.454 68 281.874 -10 175.874 -10 c 0
 93.874 -10 44.2266 34 55.2803 86 c 0
 58.2559 100 73.4443 115 91.4443 115 c 0
 102.444 115 123.594 111 121.579 78 c 0
 120.353 44 146.464 21 189.464 21 c 0
 283.464 21 341.633 130 358.212 208 c 1
 333.661 196 297.26 180 266.26 180 c 0
 222.26 180 198.999 207 163.999 207 c 0
 151.999 207 140.937 202 132.937 202 c 0
 126.937 202 127.85 211 128.699 215 c 0
 131.888 230 180.714 248 223.714 248 c 0
 268.714 248 281.676 229 319.676 229 c 0
 335.676 229 350.101 231 363.163 236 c 1
EndSplineSet
EndChar

StartChar: afii10096
Encoding: 1102 1102 102
Width: 686
VWidth: 999
Flags: HW
HStem: -10 35<422.78 523.403> -2 29<29 54 214 240> 198 39<171 268> 402 29<29 54 214 240> 406 33<403.08 503.112>
VStem: 97 74<33.7976 198 237 394.785> 268 80<113.871 198 237 323.327> 569 80<107.111 329.997>
LayerCount: 2
Fore
SplineSet
535.298 406 m 0
 461.298 406 414.53 313 396.038 226 c 0
 379.671 149 386.313 25 480.313 25 c 0
 521.313 25 580.266 53 608.323 185 c 0
 639.356 331 613.298 406 535.298 406 c 0
319.376 237 m 1
 354.67 356 437.312 439 552.312 439 c 0
 696.312 439 717.23 321 695.125 217 c 0
 673.869 117 594.874 -10 455.874 -10 c 0
 327.874 -10 290.618 97 310.086 198 c 1
 213.086 198 l 1
 186.729 74 l 2
 180.565 45 188.487 32.4004 220.164 29 c 2
 238.739 27 l 2
 243.633 26.5 247.102 24 246.039 19 c 2
 242 0 l 1
 239.575 -2 l 1
 239.575 -2 171 0 132 0 c 0
 97 0 28.5752 -2 28.5752 -2 c 1
 27 0 l 1
 31.0391 19 l 2
 32.1016 24 35.6328 26.5 40.7393 27 c 2
 60.1641 29 l 2
 93.2871 32.4004 106.565 45 112.729 74 c 2
 172.67 356 l 2
 178.622 384 171.079 396.5 139.022 400 c 2
 120.447 402 l 2
 115.554 402.5 113.085 405 114.148 410 c 2
 118.187 429 l 1
 120.612 431 l 1
 120.612 431 188.187 429 223.187 429 c 0
 262.187 429 331.612 431 331.612 431 c 1
 333.187 429 l 1
 329.148 410 l 2
 328.085 405 323.554 402.5 318.447 402 c 2
 299.022 400 l 2
 267.542 396.8 252.622 384 246.67 356 c 2
 221.376 237 l 1
 319.376 237 l 1
EndSplineSet
EndChar

StartChar: afii10097
Encoding: 1103 1103 103
Width: 429
VWidth: 999
Flags: HW
HStem: -2 29<20 35 214 235 350.164 398> 195 35<206.934 270> 204 26<156.293 175> 402 29<152.094 267.495 370 396>
VStem: 43 75<256.504 373.636> 270 75<29.5344 195 230 399.607>
LayerCount: 2
Fore
SplineSet
318.888 230 m 1
 347.796 366 l 2
 354.598 398 348.447 402 309.447 402 c 0
 223.447 402 196.221 368 186.23 321 c 0
 175.603 271 194.888 230 251.888 230 c 2
 318.888 230 l 1
138.907 136 m 0
 163.622 177 189.086 198 218.361 204 c 1
 163.361 204 93.8008 239 108.893 310 c 0
 115.057 339 147.612 431 318.612 431 c 0
 394.612 431 368.187 429 400.187 429 c 0
 434.087 429 487.612 431 487.612 431 c 1
 489.187 429 l 1
 484.085 405 l 2
 483.66 403 482.49 402.2 480.447 402 c 2
 455.022 400 l 2
 436.725 398.6 428.109 391 423.646 370 c 2
 361.367 77 l 2
 355.841 51 356.2 28.7002 371.951 28 c 2
 393.739 27 l 2
 401.654 26.5996 402.251 20 401.826 18 c 2
 397.575 -2 l 1
 397.575 -2 342.5 0 307 0 c 0
 270.7 0 213.575 -2 213.575 -2 c 1
 218.251 20 l 2
 219.102 24 221.675 26.7002 225.739 27 c 2
 240.951 28 l 2
 274.219 30.2002 278.077 38 286.367 77 c 2
 311.448 195 l 1
 284.448 195 l 2
 244.448 195 209.82 145 176.854 84 c 0
 154.14 43 115 0 82.7871 -1 c 2
 19.5752 -2 l 1
 17 0 l 1
 21.0391 19 l 2
 22.5264 26 28.6328 26.5 32.7393 27 c 2
 40.9512 28 l 2
 69.0742 31.4004 116.83 98 138.907 136 c 0
EndSplineSet
EndChar

StartChar: uni04AE
Encoding: 1198 1198 104
Width: 575
VWidth: 999
Flags: HW
HStem: -2 29<167 199 389 422> 618 29<2 22 164.594 221 395 428 544 573>
VStem: 254 80<35.8626 320.834>
DStem2: 312 335 99.6655 547 0.510948 -0.859612<-312.467 0> 314 335 341.265 310 0.483796 0.875181<0 305.726>
LayerCount: 2
Fore
SplineSet
269.729 74 m 2
 309.052 259 l 2
 311.391 270 312.973 292.5 309.628 301.7 c 2
 215.969 547 l 2
 195.677 600.2 188.41 614 153.147 617 c 2
 141.36 618 l 2
 138.402 618.2 131.572 619 132.848 625 c 2
 137.099 645 l 1
 139.524 647 l 1
 169.312 646 205.099 645 244.099 645 c 0
 284.099 645 318.312 646 358.524 647 c 1
 360.099 645 l 1
 356.061 626 l 2
 355.21 622 352.381 618.1 348.36 618 c 2
 319.147 617 l 2
 283.593 615.8 288.044 602.4 297.433 576 c 2
 383.206 335 l 1
 385.206 335 l 1
 564.433 576 l 2
 587.828 607.5 581.016 614.5 558.935 616 c 2
 529.36 618 l 2
 525.424 618.3 525.21 622 525.848 625 c 2
 530.099 645 l 1
 532.524 647 l 1
 572.312 646 600.099 645 623.099 645 c 0
 646.099 645 680.312 646 710.524 647 c 1
 712.099 645 l 1
 707.848 625 l 2
 706.785 620 702.487 618.6 696.36 618 c 2
 674.935 616 l 2
 638.912 612.6 624.886 594.6 602.295 565 c 2
 407.192 310 l 2
 399.14 299.4 395.791 286 391.901 267.7 c 2
 350.729 74 l 2
 344.14 43 357.181 31.9004 396.164 29 c 2
 422.739 27 l 2
 426.739 27 430.102 24 429.039 19 c 2
 425 0 l 1
 422.575 -2 l 1
 392.787 -1 333 0 294 0 c 0
 254 0 204.787 -1 166.575 -2 c 1
 165 0 l 1
 169.039 19 l 2
 170.102 24 173.739 27 178.739 27 c 2
 205.164 29 l 2
 244.602 32 262.928 42 269.729 74 c 2
EndSplineSet
Colour: ff00ff
EndChar

StartChar: uni04C0
Encoding: 1216 1216 105
Width: 293
VWidth: 999
Flags: HW
HStem: -2 29<20 52 242 274> 618 29<19 52 242 274>
VStem: 106 81<35.3322 609.22>
LayerCount: 2
Fore
SplineSet
309.008 574 m 2
 202.092 71 l 2
 195.715 41 209.123 32.0996 248.164 29 c 2
 273.739 27 l 2
 277.675 26.7002 281.102 24 280.039 19 c 2
 276 0 l 1
 273.575 -2 l 1
 226.5 0 196.5 0 147 0 c 0
 97.5 0 69 0 19.5752 -2 c 1
 18 0 l 1
 22.0391 19 l 2
 23.1016 24 26.6748 26.7002 30.7393 27 c 2
 58.1641 29 l 2
 100.423 32.0996 115.14 43 121.092 71 c 2
 228.008 574 l 2
 234.384 604 221.618 613.1 182.935 616 c 2
 156.36 618 l 2
 152.424 618.3 148.998 621 150.061 626 c 2
 154.099 645 l 1
 156.524 647 l 1
 206.312 646 233.599 645 283.099 645 c 0
 332.999 645 362.312 646 411.524 647 c 1
 413.099 645 l 1
 409.061 626 l 2
 407.998 621 404.445 618.4 399.36 618 c 2
 372.935 616 l 2
 332.476 612.9 314.959 602 309.008 574 c 2
EndSplineSet
Colour: ff00ff
EndChar

StartChar: uni04D0
Encoding: 1232 1232 106
Width: 695
VWidth: 999
Flags: HW
HStem: -2 29<4 63.4383 192 227 438 472 669 687> 241 42<240.956 437> 638 20<355.667 370> 698 31<313.536 404.309>
VStem: 234 70<736.681 803.162> 413 70<735.774 803.125>
DStem2: 106.983 102 152 79 0.392949 0.91956<-35.5134 182.05 227.744 482.534> 329.333 622.333 338 550 0.392949 0.91956<-557.738 -393.648 -343.43 -63.1089> 390 628 340 550 0.35377 -0.935333<55.2675 339.317 384.261 592.374>
LayerCount: 2
Fore
SplineSet
513.954 729 m 0
 546.954 729 573.567 746 577.181 763 c 0
 578.243 768 578.519 774 578.944 776 c 0
 582.132 791 595.32 806 618.32 806 c 0
 645.32 806 652.345 792 648.307 773 c 0
 637.253 721 573.364 698 507.364 698 c 0
 441.364 698 387.253 721 398.307 773 c 0
 402.345 792 415.32 806 442.32 806 c 0
 465.32 806 472.132 791 468.944 776 c 0
 468.519 774 466.243 768 465.181 763 c 0
 461.567 746 480.954 729 513.954 729 c 0
323.153 283 m 2
 497.153 283 l 1
 456.906 550 l 1
 454.906 550 l 1
 300.78 296.3 l 2
 294.285 285.5 300.953 283 323.153 283 c 2
168.792 79 m 2
 152.231 51.9004 161.217 31.5996 198.164 29 c 2
 226.739 27 l 2
 230.675 26.7002 234.102 24 233.039 19 c 2
 229 0 l 1
 226.575 -2 l 1
 189.787 -1 137 0 96 0 c 0
 57 0 40.7871 -1 3.5752 -2 c 1
 2 0 l 1
 6.03906 19 l 2
 7.10156 24 10.6748 26.7002 15.7393 27 c 0
 59.877 30 89.1445 40.2002 128.681 102 c 2
 461.574 622.3 l 2
 478.671 649.1 488.162 658 502.862 658 c 0
 516.862 658 520.288 647.3 523.485 628 c 2
 613.28 86 l 2
 618.99 47 635.917 31.5996 674.951 28 c 2
 685.739 27 l 2
 690.633 26.5 695.102 24 694.039 19 c 2
 690 0 l 1
 687.575 -2 l 1
 650.787 -1 612 0 571 0 c 0
 532 0 474.787 -1 437.575 -2 c 1
 437 0 l 1
 441.039 19 l 2
 442.102 24 444.654 26.5996 449.739 27 c 2
 478.164 29 l 2
 516.538 31.7002 533.416 44.2998 529.304 72 c 2
 504.227 241 l 1
 296.227 241 l 2
 272.227 241 265.391 236.6 257.612 224 c 2
 168.792 79 l 2
EndSplineSet
LCarets2: 1 0 
Colour: ff00ff
EndChar

StartChar: uni04D1
Encoding: 1233 1233 107
Width: 451
VWidth: 999
Flags: HW
HStem: -10 41<137.258 238.143 339.315 425.041> 409 30<147.012 252.929> 489 31<171.971 246.548>
VStem: 36 79<52.097 160.39> 53 74<295.655 377.485> 88 73<526.553 605.612> 257 73<526.548 606.379> 291 74<68.1358 233 264.049 375.745>
DStem2: 199 243 212 212 0.971457 0.237216<-65.5494 87.0019>
LayerCount: 2
Fore
SplineSet
452.433 576 m 0
 440.742 521 375.94 489 311.94 489 c 0
 246.94 489 198.954 522 210.433 576 c 0
 214.259 594 233.447 609 256.447 609 c 0
 278.447 609 287.471 595 284.07 579 c 0
 283.433 576 283.008 574 281.37 571 c 0
 279.732 568 279.095 565 278.669 563 c 0
 273.993 541 289.529 520 319.529 520 c 0
 348.529 520 373.78 540 378.457 562 c 0
 379.095 565 379.732 568 379.37 571 c 0
 378.795 573 379.22 575 379.857 578 c 0
 383.471 595 403.447 609 421.447 609 c 0
 445.447 609 456.471 595 452.433 576 c 0
340.525 233 m 1
 257.062 212 l 2
 179.096 192.4 146.246 147 136.681 102 c 0
 130.092 71 145.589 31 195.589 31 c 0
 223.589 31 262.266 53 292.729 74 c 0
 302.005 80 309.492 87 312.256 100 c 2
 340.525 233 l 1
301.203 48 m 1
 299.203 48 l 1
 275.802 32 l 2
 224.575 -2 203.874 -10 157.874 -10 c 0
 87.874 -10 40.0391 19 56.8301 98 c 0
 71.2842 166 149.55 219 250.651 243 c 2
 341.115 264 l 2
 344.327 265 348.178 269 349.666 276 c 0
 373.685 389 330.936 409 296.936 409 c 0
 258.936 409 210.96 395 204.37 364 c 0
 202.032 353 201.757 347 202.119 344 c 0
 203.27 340 202.781 333 201.293 326 c 0
 198.53 313 179.279 293 150.279 293 c 0
 127.279 293 117.617 304 122.719 328 c 0
 134.196 382 229.312 439 311.312 439 c 0
 384.312 439 452.573 412 422.391 270 c 2
 390.72 121 l 2
 380.941 75 373.227 34 412.227 34 c 0
 436.427 34 442.828 50 448.628 50 c 0
 452.628 50 457.928 42 456.439 35 c 0
 455.377 30 412.874 -10 363.874 -10 c 0
 310.475 -10 302.739 27 301.203 48 c 1
EndSplineSet
LCarets2: 1 0 
Colour: ff00ff
EndChar

StartChar: uni04D2
Encoding: 1234 1234 108
Width: 695
VWidth: 999
Flags: HW
HStem: -2 29<4 63.4383 192 227 438 472 669 687> 241 42<240.956 437> 638 20<355.667 370> 712 92<238.347 315.653 398.347 475.653>
VStem: 231 92<719.347 796.653> 391 92<719.347 796.653>
DStem2: 106.983 102 152 79 0.392949 0.91956<-35.5134 182.05 227.744 482.534> 329.333 622.333 338 550 0.392949 0.91956<-557.738 -393.648 -343.43 -63.1089> 390 628 340 550 0.35377 -0.935333<55.2675 339.317 384.261 592.374>
LayerCount: 2
Fore
SplineSet
392.118 758 m 0
 397.432 783 422.896 804 447.896 804 c 0
 472.896 804 489.432 783 484.118 758 c 0
 478.804 733 453.34 712 428.34 712 c 0
 403.34 712 386.804 733 392.118 758 c 0
552.118 758 m 0
 557.432 783 582.896 804 607.896 804 c 0
 632.896 804 649.432 783 644.118 758 c 0
 638.804 733 613.34 712 588.34 712 c 0
 563.34 712 546.804 733 552.118 758 c 0
323.153 283 m 2
 497.153 283 l 1
 456.906 550 l 1
 454.906 550 l 1
 300.78 296.3 l 2
 294.285 285.5 300.953 283 323.153 283 c 2
168.792 79 m 2
 152.231 51.9004 161.217 31.5996 198.164 29 c 2
 226.739 27 l 2
 230.675 26.7002 234.102 24 233.039 19 c 2
 229 0 l 1
 226.575 -2 l 1
 189.787 -1 137 0 96 0 c 0
 57 0 40.7871 -1 3.5752 -2 c 1
 2 0 l 1
 6.03906 19 l 2
 7.10156 24 10.6748 26.7002 15.7393 27 c 0
 59.877 30 89.1445 40.2002 128.681 102 c 2
 461.574 622.3 l 2
 478.671 649.1 488.162 658 502.862 658 c 0
 516.862 658 520.288 647.3 523.485 628 c 2
 613.28 86 l 2
 618.99 47 635.917 31.5996 674.951 28 c 2
 685.739 27 l 2
 690.633 26.5 695.102 24 694.039 19 c 2
 690 0 l 1
 687.575 -2 l 1
 650.787 -1 612 0 571 0 c 0
 532 0 474.787 -1 437.575 -2 c 1
 437 0 l 1
 441.039 19 l 2
 442.102 24 444.654 26.5996 449.739 27 c 2
 478.164 29 l 2
 516.538 31.7002 533.416 44.2998 529.304 72 c 2
 504.227 241 l 1
 296.227 241 l 2
 272.227 241 265.391 236.6 257.612 224 c 2
 168.792 79 l 2
EndSplineSet
LCarets2: 1 0 
Colour: ff00ff
EndChar

StartChar: uni04D3
Encoding: 1235 1235 109
Width: 451
VWidth: 999
Flags: HW
HStem: -10 41<137.258 238.143 339.315 425.041> 409 30<147.012 252.929> 527 92<94.3474 171.653 254.347 331.653>
VStem: 36 79<52.097 160.39> 53 74<295.655 377.485> 87 92<534.347 611.653> 247 92<534.347 611.653> 291 74<68.1358 233 264.049 375.745>
DStem2: 199 243 212 212 0.971457 0.237216<-65.5494 87.0019>
LayerCount: 2
Fore
SplineSet
208.795 573 m 0
 214.108 598 239.572 619 264.572 619 c 0
 289.572 619 306.108 598 300.795 573 c 0
 295.481 548 270.018 527 245.018 527 c 0
 220.018 527 203.481 548 208.795 573 c 0
368.795 573 m 0
 374.108 598 399.572 619 424.572 619 c 0
 449.572 619 466.108 598 460.795 573 c 0
 455.481 548 430.018 527 405.018 527 c 0
 380.018 527 363.481 548 368.795 573 c 0
340.525 233 m 1
 257.062 212 l 2
 179.096 192.4 146.246 147 136.681 102 c 0
 130.092 71 145.589 31 195.589 31 c 0
 223.589 31 262.266 53 292.729 74 c 0
 302.005 80 309.492 87 312.256 100 c 2
 340.525 233 l 1
301.203 48 m 1
 299.203 48 l 1
 275.802 32 l 2
 224.575 -2 203.874 -10 157.874 -10 c 0
 87.874 -10 40.0391 19 56.8301 98 c 0
 71.2842 166 149.55 219 250.651 243 c 2
 341.115 264 l 2
 344.327 265 348.178 269 349.666 276 c 0
 373.685 389 330.936 409 296.936 409 c 0
 258.936 409 210.96 395 204.37 364 c 0
 202.032 353 201.757 347 202.119 344 c 0
 203.27 340 202.781 333 201.293 326 c 0
 198.53 313 179.279 293 150.279 293 c 0
 127.279 293 117.617 304 122.719 328 c 0
 134.196 382 229.312 439 311.312 439 c 0
 384.312 439 452.573 412 422.391 270 c 2
 390.72 121 l 2
 380.941 75 373.227 34 412.227 34 c 0
 436.427 34 442.828 50 448.628 50 c 0
 452.628 50 457.928 42 456.439 35 c 0
 455.377 30 412.874 -10 363.874 -10 c 0
 310.475 -10 302.739 27 301.203 48 c 1
EndSplineSet
LCarets2: 1 0 
Colour: ff00ff
EndChar

StartChar: uni04D4
Encoding: 1236 1236 110
Width: 865
VWidth: 999
Flags: HW
HStem: -2 29<4 35 167 201 342 374> 0 39<514.23 740.226> 266 39<271 429> 329 34<512 654.005> 605 40<517.062 711.984> 618 28<296 333>
VStem: 429 83<40.8651 266 305 329 363 597.745> 671 33<247 312.081 407 445>
DStem2: 102.87 85 148 68 0.46188 0.886943<-25.6807 228.955 272.783 581.116>
LayerCount: 2
Fore
SplineSet
335.83 305 m 1
 493.83 305 l 1
 551.22 575 l 2
 553.771 587 554.684 596 551.108 598 c 1
 335.83 305 l 1
471 0 m 2
 435 0 341.575 -2 341.575 -2 c 1
 340 0 l 1
 343.826 18 l 2
 344.889 23 348.654 26.5996 353.739 27 c 2
 380.164 29 l 2
 422.645 32.2002 438.777 46 444.729 74 c 2
 485.54 266 l 1
 307.54 266 l 1
 162.454 68 l 2
 135.98 31.9004 137.695 31.5 173.164 29 c 2
 201.739 27 l 2
 205.675 26.7002 206.889 23 206.464 21 c 2
 202 0 l 1
 200.575 -2 l 1
 200.575 -2 133 0 94 0 c 0
 59 0 3.5752 -2 3.5752 -2 c 1
 2 0 l 1
 6.03906 19 l 2
 7.10156 24 11.6328 26.5 17.7393 27 c 2
 41.1641 29 l 2
 79.5654 32.2998 87.9658 40.2998 120.968 85 c 2
 483.646 577 l 2
 500.868 601.1 483.158 614.7 463.935 616 c 2
 433.36 618 l 2
 427.445 618.4 425.998 621 426.848 625 c 2
 431.099 645 l 1
 433.312 646 l 1
 609.099 645 l 1
 686.099 645 l 1
 908.099 645 l 1
 901.621 591 898.08 532 896.365 491 c 1
 866.303 486 l 1
 858.969 555 852.597 605 776.597 605 c 2
 676.597 605 l 2
 652.597 605 636.133 584 631.244 561 c 2
 589.158 363 l 1
 691.158 363 l 2
 726.158 363 738.559 379 751.511 407 c 1
 763.887 437 l 2
 765.737 441 769.588 445 773.588 445 c 2
 795.588 445 l 2
 797.588 445 798.162 443 797.737 441 c 0
 789.424 416 776.559 379 769.545 346 c 0
 762.317 312 758.753 267 757.139 250 c 1
 754.502 247 l 1
 731.502 247 l 2
 725.502 247 724.139 250 723.989 254 c 2
 725.578 285 l 1
 725.53 313 717.931 329 683.931 329 c 2
 581.931 329 l 1
 527.729 74 l 2
 521.99 47 534.29 39 556.29 39 c 2
 687.29 39 l 2
 763.29 39 806.256 100 841.56 172 c 1
 870.497 167 l 1
 848.444 115 824.903 56 809 0 c 1
 471 0 l 2
EndSplineSet
Colour: ff00ff
EndChar

StartChar: uni04D5
Encoding: 1237 1237 111
Width: 687
VWidth: 999
Flags: HW
HStem: -10 42<130.239 246.095> -10 49<441.951 572.545> 218 35<217.563 298 372 518.524> 409 30<145.729 252.328 445.807 530.397>
VStem: 39 72<49.3331 157.224> 50 73<295.734 386.882> 298 73<118.736 215> 572 76<285.698 379.656>
AnchorPoint: "top_akzent" 478.099 645 basechar 0
LayerCount: 2
Fore
SplineSet
346.622 384 m 0
 334.811 399 314.936 409 293.936 409 c 0
 254.936 409 206.747 394 200.158 363 c 0
 198.032 353 197.545 346 198.907 343 c 0
 200.057 339 199.568 332 198.081 325 c 0
 194.68 309 177.066 292 152.066 292 c 0
 121.066 292 117.381 317 121.632 337 c 0
 133.96 395 221.312 439 303.312 439 c 0
 327.312 439 403.675 436 426.434 369 c 1
 468.998 414 526.312 439 583.312 439 c 0
 697.312 439 727.283 373 720.057 339 c 0
 702.84 258 648.975 221 417.337 218 c 1
 394.807 112 441.29 39 516.29 39 c 0
 570.29 39 606.541 59 643.98 94 c 1
 658.854 84 l 1
 618.377 30 557.874 -10 491.874 -10 c 0
 400.874 -10 367.227 34 352.541 59 c 0
 349.028 66 344.154 76 342.005 80 c 1
 285.976 14 226.074 -10 177.874 -10 c 0
 72.874 -10 46.6523 36 61.1055 104 c 0
 81.0859 198 178.589 238 351.139 250 c 1
 366.931 329 363.945 362 346.622 384 c 0
343.699 215 m 1
 216.574 205 145.009 160 134.169 109 c 0
 124.604 64 134.802 32 198.802 32 c 0
 232.802 32 278.966 61 314.894 103 c 1
 322.932 122 333.072 165 343.699 215 c 1
425.776 253 m 1
 579.202 255 630.453 275 643.419 336 c 0
 650.221 368 623.085 405 575.085 405 c 0
 507.085 405 451.844 338 425.776 253 c 1
EndSplineSet
Colour: ff00ff
EndChar

StartChar: uni04D6
Encoding: 1238 1238 112
Width: 549
VWidth: 999
Flags: HW
HStem: -2 29<14 50> 0 39<183.683 419.99> 323 38<182 352.245> 416 20<367 392.5> 605 40<183.485 390.274> 618 28<14 50> 698 31<228.536 319.309>
VStem: 101 81<40.3443 323 361 603.225> 149 70<736.681 803.162> 328 70<735.774 803.125> 361 34<252 316.054 403 436> 438 29<499.793 534.346> 489 31<128.12 166.129>
LayerCount: 2
Fore
SplineSet
428.954 729 m 0
 461.954 729 488.567 746 492.181 763 c 0
 493.243 768 493.519 774 493.944 776 c 0
 497.132 791 510.32 806 533.32 806 c 0
 560.32 806 567.345 792 563.307 773 c 0
 552.253 721 488.364 698 422.364 698 c 0
 356.364 698 302.253 721 313.307 773 c 0
 317.345 792 330.32 806 357.32 806 c 0
 380.32 806 387.132 791 383.944 776 c 0
 383.519 774 381.243 768 380.181 763 c 0
 376.567 746 395.954 729 428.954 729 c 0
582.312 646 m 0
 582.611 638 577.206 542 573.491 501 c 1
 543.428 496 l 1
 536.095 565 526.597 605 451.597 605 c 2
 346.597 605 l 2
 322.597 605 308.471 595 303.37 571 c 2
 258.732 361 l 1
 385.732 361 l 2
 420.732 361 435.709 375 444.66 403 c 2
 452.975 428 l 2
 453.824 432 457.675 436 461.675 436 c 2
 483.675 436 l 1
 486.824 432 l 1
 475.322 392 467.945 362 463.694 342 c 0
 459.443 322 454.704 295 449.202 255 c 1
 444.564 252 l 1
 422.564 252 l 2
 417.564 252 416.627 257 417.265 260 c 2
 419.578 285 l 2
 422.743 314 411.656 323 377.656 323 c 2
 250.656 323 l 1
 197.304 72 l 2
 191.565 45 204.29 39 226.29 39 c 2
 362.29 39 l 2
 438.29 39 489.83 98 525.135 170 c 1
 555.072 165 l 1
 532.019 113 504.628 50 482.575 -2 c 1
 482.575 -2 403 0 355 0 c 2
 141 0 l 2
 102 0 60.7871 -1 13.5752 -2 c 1
 12 0 l 1
 16.251 20 l 2
 16.8887 23 19.7393 27 25.7393 27 c 2
 56.1641 29 l 2
 95.8018 32 110.353 44 116.304 72 c 2
 222.37 571 l 2
 228.959 602 218.297 613 180.935 616 c 2
 151.36 618 l 2
 144.36 618 144.21 622 144.848 625 c 2
 149.099 645 l 1
 151.524 647 l 1
 198.312 646 239.099 645 278.099 645 c 2
 531.099 645 l 2
 555.099 645 561.312 646 578.949 649 c 0
 581.949 649 582.736 648 582.312 646 c 0
EndSplineSet
LCarets2: 1 0 
Colour: ff00ff
EndChar

StartChar: uni04D7
Encoding: 1239 1239 113
Width: 427
VWidth: 999
Flags: HW
HStem: -10 49<195.372 321.672> 248 39<117 314.997> 405 34<173.337 282.104> 489 31<186.971 261.548>
VStem: 34 80<137.009 248> 103 73<526.553 605.612> 272 73<526.548 606.379> 315 80<259.5 367.016>
LayerCount: 2
Fore
SplineSet
467.433 576 m 0
 455.742 521 390.94 489 326.94 489 c 0
 261.94 489 213.954 522 225.433 576 c 0
 229.259 594 248.447 609 271.447 609 c 0
 293.447 609 302.471 595 299.07 579 c 0
 298.433 576 298.008 574 296.37 571 c 0
 294.732 568 294.095 565 293.669 563 c 0
 288.993 541 304.529 520 334.529 520 c 0
 363.529 520 388.78 540 393.457 562 c 0
 394.095 565 394.732 568 394.37 571 c 0
 393.795 573 394.22 575 394.857 578 c 0
 398.471 595 418.447 609 436.447 609 c 0
 460.447 609 471.471 595 467.433 576 c 0
178.004 287 m 1
 362.004 287 l 2
 372.004 287 377.066 292 378.979 301 c 0
 396.834 385 354.085 405 318.085 405 c 0
 295.085 405 220.022 400 178.004 287 c 1
401.193 95 m 1
 411.98 94 416.918 89 417.792 79 c 1
 368.739 27 301.874 -10 229.874 -10 c 0
 92.874 -10 51.8545 84 76.2988 199 c 0
 108.607 351 230.312 439 325.312 439 c 0
 457.312 439 469.183 349 451.327 265 c 0
 448.989 254 440.714 248 429.714 248 c 2
 166.714 248 l 1
 135.043 99 208.29 39 264.29 39 c 0
 319.29 39 358.115 57 401.193 95 c 1
EndSplineSet
LCarets2: 1 0 
Colour: ff00ff
EndChar

StartChar: uni04D8
Encoding: 1240 1240 114
Width: 644
VWidth: 999
Flags: HW
HStem: -12 34<246.269 393.278> 216 44<122 511> 624 34<207.892 368.818>
VStem: 521 90<221.919 443.038>
LayerCount: 2
Fore
SplineSet
208.167 523 m 1
 190.269 547 l 1
 284.998 621 339.862 658 449.862 658 c 0
 664.862 658 714.09 485 680.293 326 c 0
 638.845 131 506.449 -12 313.449 -12 c 0
 121.449 -12 78.082 118 97.2646 260 c 1
 575.265 260 l 1
 578.603 271 581.153 283 584.129 297 c 0
 623.665 483 561.636 624 426.636 624 c 0
 333.636 624 272.22 575 208.167 523 c 1
167.912 216 m 1
 171.28 86 229.676 22 327.676 22 c 0
 433.676 22 517.656 116 556.912 216 c 1
 167.912 216 l 1
EndSplineSet
Colour: ff00ff
EndChar

StartChar: afii10846
Encoding: 1241 1241 115
Width: 427
VWidth: 999
Flags: HW
HStem: -11 34<145.896 254.663> 141 39<113.003 311> 389 49<106.328 232.628>
VStem: 33 80<60.984 168.5> 314 80<180 290.991>
AnchorPoint: "top_akzent" 348.099 645 basechar 0
LayerCount: 2
Fore
SplineSet
340.971 141 m 1
 156.971 141 l 2
 146.971 141 141.907 136 139.995 127 c 0
 122.14 43 164.889 23 200.889 23 c 0
 223.889 23 298.951 28 340.971 141 c 1
117.781 333 m 1
 106.994 334 102.057 339 101.183 349 c 1
 150.235 401 217.1 438 289.1 438 c 0
 426.1 438 467.119 344 442.676 229 c 0
 410.367 77 288.662 -11 193.662 -11 c 0
 61.6621 -11 49.792 79 67.6465 163 c 0
 69.9844 174 78.2598 180 89.2598 180 c 2
 352.26 180 l 1
 383.931 329 310.685 389 254.685 389 c 0
 199.685 389 160.858 371 117.781 333 c 1
EndSplineSet
Colour: ff00ff
EndChar

StartChar: uni04DA
Encoding: 1242 1242 116
Width: 644
VWidth: 999
Flags: HW
HStem: -12 34<246.269 393.278> 216 44<122 511> 624 34<207.892 368.818> 704 96<191.332 270.668 380.332 459.668>
VStem: 183 96<712.332 791.668> 372 96<712.332 791.668> 521 90<221.919 443.038>
LayerCount: 2
Fore
SplineSet
531.843 752 m 0
 537.369 778 564.045 800 590.045 800 c 0
 616.045 800 633.369 778 627.843 752 c 0
 622.316 726 595.64 704 569.64 704 c 0
 543.64 704 526.316 726 531.843 752 c 0
342.843 752 m 0
 348.369 778 375.045 800 401.045 800 c 0
 427.045 800 444.369 778 438.843 752 c 0
 433.316 726 406.64 704 380.64 704 c 0
 354.64 704 337.316 726 342.843 752 c 0
208.167 523 m 1
 190.269 547 l 1
 284.998 621 339.862 658 449.862 658 c 0
 664.862 658 714.09 485 680.293 326 c 0
 638.845 131 506.449 -12 313.449 -12 c 0
 121.449 -12 78.082 118 97.2646 260 c 1
 575.265 260 l 1
 578.603 271 581.153 283 584.129 297 c 0
 623.665 483 561.636 624 426.636 624 c 0
 333.636 624 272.22 575 208.167 523 c 1
167.912 216 m 1
 171.28 86 229.676 22 327.676 22 c 0
 433.676 22 517.656 116 556.912 216 c 1
 167.912 216 l 1
EndSplineSet
LCarets2: 1 0 
Colour: ff00ff
EndChar

StartChar: uni04DB
Encoding: 1243 1243 117
Width: 427
VWidth: 999
Flags: HW
HStem: -11 34<145.896 254.663> 141 39<113.003 311> 389 49<106.328 232.628> 527 92<94.3474 171.653 254.347 331.653>
VStem: 33 80<60.984 168.5> 87 92<534.347 611.653> 247 92<534.347 611.653> 314 80<180 290.991>
LayerCount: 2
Fore
SplineSet
208.795 573 m 0
 214.108 598 239.572 619 264.572 619 c 0
 289.572 619 306.108 598 300.795 573 c 0
 295.481 548 270.018 527 245.018 527 c 0
 220.018 527 203.481 548 208.795 573 c 0
368.795 573 m 0
 374.108 598 399.572 619 424.572 619 c 0
 449.572 619 466.108 598 460.795 573 c 0
 455.481 548 430.018 527 405.018 527 c 0
 380.018 527 363.481 548 368.795 573 c 0
340.971 141 m 1
 156.971 141 l 2
 146.971 141 141.907 136 139.995 127 c 0
 122.14 43 164.889 23 200.889 23 c 0
 223.889 23 298.951 28 340.971 141 c 1
117.781 333 m 1
 106.994 334 102.057 339 101.183 349 c 1
 150.235 401 217.1 438 289.1 438 c 0
 426.1 438 467.119 344 442.676 229 c 0
 410.367 77 288.662 -11 193.662 -11 c 0
 61.6621 -11 49.792 79 67.6465 163 c 0
 69.9844 174 78.2598 180 89.2598 180 c 2
 352.26 180 l 1
 383.931 329 310.685 389 254.685 389 c 0
 199.685 389 160.858 371 117.781 333 c 1
EndSplineSet
LCarets2: 1 0 
Colour: ff00ff
EndChar

StartChar: uni04E0
Encoding: 1248 1248 118
Width: 608
VWidth: 999
Flags: HW
HStem: -211 37<215 357> 605 39<141 167 167 446>
VStem: 475 89<-42 146>
DStem2: 250 252 367 288 0.48636 0.873758<88.8042 404.592>
LayerCount: 2
Fore
SplineSet
304.099 645 m 2
 659.099 645 l 2
 680.099 645 685.823 639 684.123 631 c 0
 681.998 621 672.597 605 660.408 590 c 2
 428.216 288 l 1
 556.478 261 598.435 162 574.841 51 c 0
 545.295 -88 387.15 -211 227.15 -211 c 0
 147.15 -211 4.58984 -176 18.6191 -110 c 0
 23.5078 -87 39.2471 -60 73.2471 -60 c 0
 100.247 -60 125.271 -74 133.807 -95 c 0
 155.392 -144 199.016 -174 254.016 -174 c 0
 341.016 -174 463.734 -53 483.928 42 c 0
 517.724 201 414.202 255 345.202 255 c 0
 329.202 255 318.202 255 303.564 252 c 1
 574.597 605 l 1
 325.597 605 l 1
 251.384 604 204.742 521 191.39 477 c 1
 165.814 479 l 1
 226.775 667 l 1
 248.713 662 280.099 645 304.099 645 c 2
EndSplineSet
Colour: ff00ff
EndChar

StartChar: uni04E1
Encoding: 1249 1249 119
Width: 416
VWidth: 999
Flags: HW
HStem: -235 35<149 244> 103 34<216 268> 395 34<107 295>
VStem: 40 27<303 337> 312 81<-120 61>
DStem2: 127 107 216 137 0.505072 0.863077<70.4402 332.658>
LayerCount: 2
Fore
SplineSet
149.743 107 m 1
 378.96 395 l 1
 233.96 395 l 2
 203.96 395 165.496 374 129.979 301 c 1
 104.617 304 l 1
 123.032 353 138.385 397 148.95 442 c 1
 173.95 442 l 1
 174.675 436 182.187 429 197.187 429 c 2
 400.187 429 l 2
 429.187 429 466.462 435 468.462 435 c 0
 475.462 435 481.037 433 480.187 429 c 0
 479.337 425 470.998 414 449.26 387 c 2
 245.12 137 l 1
 341.12 137 410.854 84 388.324 -22 c 0
 363.029 -141 258.049 -235 135.049 -235 c 0
 50.0488 -235 5.01562 -174 11.8174 -142 c 0
 15.6426 -124 29.4688 -106 51.4688 -106 c 0
 74.4688 -106 85.3438 -116 88.2422 -140 c 0
 91.5654 -162 110.488 -200 150.488 -200 c 0
 200.488 -200 280.967 -146 303.923 -38 c 0
 325.391 63 302.894 103 224.894 103 c 0
 213.894 103 182.405 96 163.556 92 c 1
 149.743 107 l 1
EndSplineSet
Colour: ff00ff
EndChar

StartChar: uni04E6
Encoding: 1254 1254 120
Width: 698
VWidth: 999
Flags: HW
HStem: -10 34<291.757 439.305> 624 34<260.807 413.377> 704 96<212.332 291.668 401.332 480.668>
VStem: 37 92<199.09 439.608> 204 96<712.332 791.668> 393 96<712.332 791.668> 570 92<197.944 451.367>
LayerCount: 2
Fore
SplineSet
552.843 752 m 0
 558.369 778 585.045 800 611.045 800 c 0
 637.045 800 654.369 778 648.843 752 c 0
 643.316 726 616.64 704 590.64 704 c 0
 564.64 704 547.316 726 552.843 752 c 0
363.843 752 m 0
 369.369 778 396.045 800 422.045 800 c 0
 448.045 800 465.369 778 459.843 752 c 0
 454.316 726 427.64 704 401.64 704 c 0
 375.64 704 358.316 726 363.843 752 c 0
461.636 624 m 0
 370.636 624 243.143 537 198.506 327 c 0
 157.695 135 253.102 24 373.102 24 c 0
 487.102 24 597.845 131 635.893 310 c 0
 680.104 518 597.636 624 461.636 624 c 0
731.931 329 m 0
 689.42 129 536.874 -10 345.874 -10 c 0
 173.874 -10 61.0186 113 102.893 310 c 0
 144.554 506 302.862 658 481.862 658 c 0
 656.862 658 774.018 527 731.931 329 c 0
EndSplineSet
LCarets2: 1 0 
Colour: ff00ff
EndChar

StartChar: uni04E7
Encoding: 1255 1255 121
Width: 484
VWidth: 999
Flags: HW
HStem: -10 33<205.005 309.227> 406 33<180.317 289.2> 528 92<125.347 202.653 285.347 362.653>
VStem: 36 85<119.996 319.458> 118 92<535.347 612.653> 278 92<535.347 612.653> 363 85<113.472 321.738>
LayerCount: 2
Fore
SplineSet
79.5742 205 m 0
 108.694 342 203.312 439 336.312 439 c 0
 484.312 439 515.593 318 493.487 214 c 0
 472.231 114 380.874 -10 238.874 -10 c 0
 104.874 -10 57.8936 103 79.5742 205 c 0
318.298 406 m 0
 238.298 406 187.955 315 169.463 228 c 0
 153.096 151 163.889 23 262.889 23 c 0
 307.889 23 373.628 50 401.686 182 c 0
 432.931 329 400.298 406 318.298 406 c 0
240.008 574 m 0
 245.321 599 270.785 620 295.785 620 c 0
 320.785 620 337.321 599 332.008 574 c 0
 326.693 549 301.229 528 276.229 528 c 0
 251.229 528 234.693 549 240.008 574 c 0
400.008 574 m 0
 405.321 599 430.785 620 455.785 620 c 0
 480.785 620 497.321 599 492.008 574 c 0
 486.693 549 461.229 528 436.229 528 c 0
 411.229 528 394.693 549 400.008 574 c 0
EndSplineSet
LCarets2: 1 0 
Colour: ff00ff
EndChar

StartChar: uni04E8
Encoding: 1256 1256 122
Width: 698
VWidth: 999
Flags: HW
HStem: -10 34<291.757 439.305> 266 57<382.324 529.392> 312 58<172.336 335.102> 624 34<260.807 413.377>
VStem: 37 92<199.09 439.608> 570 92<197.944 451.367>
LayerCount: 2
Fore
SplineSet
461.636 624 m 0
 370.636 624 243.143 537 198.506 327 c 0
 198.272 325.9 198.038 324.8 197.805 323.7 c 1
 243.664 355.5 309.046 370 346.646 370 c 0
 444.646 370 464.656 323 527.656 323 c 0
 558.855 323 606.849 335.2 644.053 357.8 c 1
 666.548 534.2 586.835 624 461.636 624 c 0
731.931 329 m 0
 689.42 129 536.874 -10 345.874 -10 c 0
 173.874 -10 61.0186 113 102.893 310 c 0
 144.554 506 302.862 658 481.862 658 c 0
 656.862 658 774.018 527 731.931 329 c 0
637.02 315.3 m 1
 587.142 277.3 535.14 266 497.54 266 c 0
 405.54 266 391.317 312 316.317 312 c 0
 286.518 312 231.112 306.8 191.332 282.9 c 1
 173.003 118.1 262.602 24 373.102 24 c 0
 487.102 24 597.845 131 635.893 310 c 0
 636.275 311.8 636.637 313.5 637.02 315.3 c 1
EndSplineSet
Colour: ff00ff
EndChar

StartChar: uni04E9
Encoding: 1257 1257 123
Width: 484
VWidth: 999
Flags: HMW
HStem: -12 36<192 318> 179 49<194 339> 207 42<108 228> 409 33<173 294>
VStem: 34 79<124 320> 367 79<113 318>
AnchorPoint: "unten_punkt" 223.257 -107 basechar 0
AnchorPoint: "top_akzent" 373.099 645 basechar 0
LayerCount: 2
Fore
SplineSet
79.5742 205 m 0
 108.694 342 203.312 439 336.312 439 c 0
 484.312 439 515.593 318 493.487 214 c 0
 472.231 114 380.874 -10 238.874 -10 c 0
 104.874 -10 57.8936 103 79.5742 205 c 0
411.205 240.9 m 1
 422.488 349.5 388.498 406 318.298 406 c 0
 239.698 406 189.735 318.2 170.44 232.6 c 1
 195.475 241.7 230.526 249 255.927 249 c 0
 300.927 249 318.676 229 356.676 229 c 0
 375.476 229 395.508 234.8 411.205 240.9 c 1
407.666 213.9 m 1
 382.711 200 338.248 179 302.048 179 c 0
 259.048 179 230.999 207 195.999 207 c 0
 189.399 207 176.653 204.9 165.349 203 c 1
 156.225 126.2 173.989 23 262.889 23 c 0
 307.889 23 373.628 50 401.686 182 c 0
 404.023 193 405.998 203.7 407.666 213.9 c 1
EndSplineSet
Colour: ff9ccc
EndChar

StartChar: uni04EA
Encoding: 1258 1258 124
Width: 698
VWidth: 999
Flags: HW
HStem: -10 34<291.757 439.305> 266 57<382.324 529.392> 312 58<172.336 335.102> 624 34<260.807 413.377> 706 96<209.332 288.668 398.332 477.668>
VStem: 37 92<199.09 439.608> 201 96<714.332 793.668> 390 96<714.332 793.668> 570 92<197.944 451.367>
LayerCount: 2
Fore
SplineSet
550.268 754 m 0
 555.794 780 582.471 802 608.471 802 c 0
 634.471 802 651.794 780 646.268 754 c 0
 640.741 728 614.064 706 588.064 706 c 0
 562.064 706 544.741 728 550.268 754 c 0
361.268 754 m 0
 366.794 780 393.471 802 419.471 802 c 0
 445.471 802 462.794 780 457.268 754 c 0
 451.741 728 425.064 706 399.064 706 c 0
 373.064 706 355.741 728 361.268 754 c 0
461.636 624 m 0
 370.636 624 243.143 537 198.506 327 c 0
 198.272 325.9 198.038 324.8 197.805 323.7 c 1
 243.664 355.5 309.046 370 346.646 370 c 0
 444.646 370 464.656 323 527.656 323 c 0
 558.855 323 606.849 335.2 644.053 357.8 c 1
 666.548 534.2 586.835 624 461.636 624 c 0
731.931 329 m 0
 689.42 129 536.874 -10 345.874 -10 c 0
 173.874 -10 61.0186 113 102.893 310 c 0
 144.554 506 302.862 658 481.862 658 c 0
 656.862 658 774.018 527 731.931 329 c 0
637.02 315.3 m 1
 587.142 277.3 535.14 266 497.54 266 c 0
 405.54 266 391.317 312 316.317 312 c 0
 286.518 312 231.112 306.8 191.332 282.9 c 1
 173.003 118.1 262.602 24 373.102 24 c 0
 487.102 24 597.845 131 635.893 310 c 0
 636.275 311.8 636.637 313.5 637.02 315.3 c 1
EndSplineSet
LCarets2: 1 0 
Colour: ff00ff
EndChar

StartChar: uni04EB
Encoding: 1259 1259 125
Width: 484
VWidth: 999
Flags: HW
HStem: -12 36<192 318> 179 49<194 339> 207 42<108 228> 409 33<173 294> 527 92<127.347 204.653 287.347 364.653>
VStem: 34 79<124 320> 120 92<534.347 611.653> 280 92<534.347 611.653> 367 79<113 318>
LayerCount: 2
Fore
SplineSet
79.5742 205 m 0
 108.694 342 203.312 439 336.312 439 c 0
 484.312 439 515.593 318 493.487 214 c 0
 472.231 114 380.874 -10 238.874 -10 c 0
 104.874 -10 57.8936 103 79.5742 205 c 0
241.795 573 m 0
 247.108 598 272.572 619 297.572 619 c 0
 322.572 619 339.108 598 333.795 573 c 0
 328.481 548 303.018 527 278.018 527 c 0
 253.018 527 236.481 548 241.795 573 c 0
401.795 573 m 0
 407.108 598 432.572 619 457.572 619 c 0
 482.572 619 499.108 598 493.795 573 c 0
 488.481 548 463.018 527 438.018 527 c 0
 413.018 527 396.481 548 401.795 573 c 0
411.205 240.9 m 1
 422.488 349.5 388.498 406 318.298 406 c 0
 239.698 406 189.735 318.2 170.44 232.6 c 1
 195.475 241.7 230.526 249 255.927 249 c 0
 300.927 249 318.676 229 356.676 229 c 0
 375.476 229 395.508 234.8 411.205 240.9 c 1
407.666 213.9 m 1
 382.711 200 338.248 179 302.048 179 c 0
 259.048 179 230.999 207 195.999 207 c 0
 189.399 207 176.653 204.9 165.349 203 c 1
 156.225 126.2 173.989 23 262.889 23 c 0
 307.889 23 373.628 50 401.686 182 c 0
 404.023 193 405.998 203.7 407.666 213.9 c 1
EndSplineSet
LCarets2: 1 0 
Colour: ff00ff
EndChar

StartChar: uni04EF
Encoding: 1263 1263 126
Width: 505
VWidth: 999
Flags: HW
HStem: -232 55<89.5 154.725> 402 29<10 58.2034 152.914 203 331 382.132 452.185 494> 538 44<129.088 407.515>
VStem: 128 281<538.205 582>
DStem2: 157 357 79 353 0.395054 -0.918658<-33.6182 280.47> 214 -28 238 -74 0.395374 0.91852<-166.96 31.2484 137.607 450.173>
LayerCount: 2
Fore
SplineSet
292.148 410 m 2
 291.085 405 284.533 402.4 279.447 402 c 0
 240.311 399 225.01 391 232.883 357 c 2
 288.043 99 l 1
 307.42 129 374.738 234 453.032 353 c 1
 483.714 392.9 455.311 399 424.447 402 c 0
 419.554 402.5 414.873 404 415.936 409 c 2
 419.975 428 l 1
 422.612 431 l 1
 459.399 430 481.187 429 516.187 429 c 0
 544.187 429 560.399 430 585.612 431 c 1
 588.187 429 l 1
 584.148 410 l 2
 583.085 405 578.575 402.6 571.447 402 c 0
 533.811 399 506.158 363 485.994 334 c 0
 409.188 222 343.673 118.9 222.271 -74 c 0
 176.967 -146 120.687 -232 49.6865 -232 c 0
 30.6865 -232 -5.97461 -221 1.67676 -185 c 0
 8.05371 -155 31.9668 -146 47.9668 -146 c 0
 62.9668 -146 71.6914 -152 75.9912 -160 c 1
 83.8652 -170 89.3779 -177 99.3779 -177 c 0
 114.378 -177 170.082 -89 208.049 -28 c 1
 216.599 -16 220.725 -6 222.638 3 c 0
 224.764 13 221.502 40 217.753 60 c 2
 154.032 353 l 2
 145.788 390.9 135.811 399 103.447 402 c 0
 97.5537 402.5 94.085 405 94.9355 409 c 2
 99.1865 429 l 1
 101.612 431 l 1
 121.399 430 151.187 429 185.187 429 c 0
 221.187 429 257.399 430 294.612 431 c 1
 295.975 428 l 1
 292.148 410 l 2
499.355 538 m 2
 255.355 538 l 2
 246.355 538 244.056 546 245.544 553 c 0
 248.095 565 262.708 582 273.708 582 c 2
 518.708 582 l 2
 528.708 582 531.008 574 529.732 568 c 0
 527.182 556 512.355 538 499.355 538 c 2
EndSplineSet
LCarets2: 1 0 
Colour: ff00ff
EndChar

StartChar: uni04F1
Encoding: 1265 1265 127
Width: 505
VWidth: 999
Flags: HW
HStem: -232 55<89.5 154.725> 402 29<10 58.2034 152.914 203 331 382.132 452.185 494> 527 92<160.347 237.653 320.347 397.653>
VStem: 153 92<534.347 611.653> 313 92<534.347 611.653>
DStem2: 157 357 79 353 0.395054 -0.918658<-33.6182 280.47> 214 -28 238 -74 0.395374 0.91852<-166.96 31.2484 137.607 450.173>
LayerCount: 2
Fore
SplineSet
292.148 410 m 2
 291.085 405 284.533 402.4 279.447 402 c 0
 240.311 399 225.01 391 232.883 357 c 2
 288.043 99 l 1
 307.42 129 374.738 234 453.032 353 c 1
 483.714 392.9 455.311 399 424.447 402 c 0
 419.554 402.5 414.873 404 415.936 409 c 2
 419.975 428 l 1
 422.612 431 l 1
 459.399 430 481.187 429 516.187 429 c 0
 544.187 429 560.399 430 585.612 431 c 1
 588.187 429 l 1
 584.148 410 l 2
 583.085 405 578.575 402.6 571.447 402 c 0
 533.811 399 506.158 363 485.994 334 c 0
 409.188 222 343.673 118.9 222.271 -74 c 0
 176.967 -146 120.687 -232 49.6865 -232 c 0
 30.6865 -232 -5.97461 -221 1.67676 -185 c 0
 8.05371 -155 31.9668 -146 47.9668 -146 c 0
 62.9668 -146 71.6914 -152 75.9912 -160 c 1
 83.8652 -170 89.3779 -177 99.3779 -177 c 0
 114.378 -177 170.082 -89 208.049 -28 c 1
 216.599 -16 220.725 -6 222.638 3 c 0
 224.764 13 221.502 40 217.753 60 c 2
 154.032 353 l 2
 145.788 390.9 135.811 399 103.447 402 c 0
 97.5537 402.5 94.085 405 94.9355 409 c 2
 99.1865 429 l 1
 101.612 431 l 1
 121.399 430 151.187 429 185.187 429 c 0
 221.187 429 257.399 430 294.612 431 c 1
 295.975 428 l 1
 292.148 410 l 2
274.795 573 m 0
 280.108 598 305.572 619 330.572 619 c 0
 355.572 619 372.108 598 366.795 573 c 0
 361.481 548 336.018 527 311.018 527 c 0
 286.018 527 269.481 548 274.795 573 c 0
434.795 573 m 0
 440.108 598 465.572 619 490.572 619 c 0
 515.572 619 532.108 598 526.795 573 c 0
 521.481 548 496.018 527 471.018 527 c 0
 446.018 527 429.481 548 434.795 573 c 0
EndSplineSet
LCarets2: 1 0 
Colour: ff00ff
EndChar

StartChar: uni04F3
Encoding: 1267 1267 128
Width: 505
VWidth: 999
Flags: HW
HStem: -232 55<89.5 154.725> 402 29<10 58.2034 152.914 203 331 382.132 452.185 494>
DStem2: 157 357 79 353 0.395054 -0.918658<-33.6182 280.47> 214 -28 238 -74 0.395374 0.91852<-166.96 31.2484 137.607 450.173>
LayerCount: 2
Fore
SplineSet
292.148 410 m 2
 291.085 405 284.533 402.4 279.447 402 c 0
 240.311 399 225.01 391 232.883 357 c 2
 288.043 99 l 1
 307.42 129 374.738 234 453.032 353 c 1
 483.714 392.9 455.311 399 424.447 402 c 0
 419.554 402.5 414.873 404 415.936 409 c 2
 419.975 428 l 1
 422.612 431 l 1
 459.399 430 481.187 429 516.187 429 c 0
 544.187 429 560.399 430 585.612 431 c 1
 588.187 429 l 1
 584.148 410 l 2
 583.085 405 578.575 402.6 571.447 402 c 0
 533.811 399 506.158 363 485.994 334 c 0
 409.188 222 343.673 118.9 222.271 -74 c 0
 176.967 -146 120.687 -232 49.6865 -232 c 0
 30.6865 -232 -5.97461 -221 1.67676 -185 c 0
 8.05371 -155 31.9668 -146 47.9668 -146 c 0
 62.9668 -146 71.6914 -152 75.9912 -160 c 1
 83.8652 -170 89.3779 -177 99.3779 -177 c 0
 114.378 -177 170.082 -89 208.049 -28 c 1
 216.599 -16 220.725 -6 222.638 3 c 0
 224.764 13 221.502 40 217.753 60 c 2
 154.032 353 l 2
 145.788 390.9 135.811 399 103.447 402 c 0
 97.5537 402.5 94.085 405 94.9355 409 c 2
 99.1865 429 l 1
 101.612 431 l 1
 121.399 430 151.187 429 185.187 429 c 0
 221.187 429 257.399 430 294.612 431 c 1
 295.975 428 l 1
 292.148 410 l 2
592.723 615 m 0
 591.447 609 588.959 602 581.684 596 c 2
 444.303 486 l 2
 441.877 484 439.877 484 437.877 484 c 0
 432.877 484 424.94 489 426.641 497 c 0
 426.854 498 427.278 500 428.491 501 c 2
 536.036 640 l 2
 542.949 649 550.587 652 562.587 652 c 0
 583.587 652 596.676 633.6 592.723 615 c 0
461.998 621 m 0
 460.935 616 458.659 610 453.597 605 c 2
 325.877 484 l 2
 323.452 482 320.239 481 317.239 481 c 0
 311.239 481 304.303 486 306.003 494 c 0
 306.216 495 306.428 496 307.641 497 c 2
 402.674 643 l 2
 411.438 656 427.649 657 431.649 657 c 0
 452.55 657 466.355 641.5 461.998 621 c 0
EndSplineSet
LCarets2: 1 0 
Colour: ff00ff
EndChar

StartChar: uni1E00
Encoding: 7680 7680 129
Width: 695
VWidth: 999
Flags: HW
HStem: -215 27<301.794 369.684> -76 27<301.294 370.499> -2 29<4 63.4383 192 227 438 472 669 687> 241 42<240.956 437> 638 20<355.667 370>
VStem: 251 31<-170.178 -93.447> 390 31<-169.958 -93.519>
DStem2: 106.983 102 152 79 0.392949 0.91956<-35.5134 182.05 227.744 482.534> 329.333 622.333 338 550 0.392949 0.91956<-557.738 -393.648 -343.43 -63.1089> 390 628 340 550 0.35377 -0.935333<55.2675 339.317 384.261 592.374>
LayerCount: 2
Fore
SplineSet
319.846 -76 m 0
 288.846 -76 264.319 -102 257.942 -132 c 0
 251.991 -160 265.039 -188 296.039 -188 c 0
 327.039 -188 351.991 -160 357.942 -132 c 0
 364.532 -101 349.846 -76 319.846 -76 c 0
220.942 -132 m 0
 230.72 -86 279.585 -49 325.585 -49 c 0
 371.585 -49 404.933 -85 394.942 -132 c 0
 385.378 -177 338.301 -215 290.301 -215 c 0
 244.301 -215 211.165 -178 220.942 -132 c 0
323.153 283 m 2
 497.153 283 l 1
 456.906 550 l 1
 454.906 550 l 1
 300.78 296.3 l 2
 294.285 285.5 300.953 283 323.153 283 c 2
168.792 79 m 2
 152.231 51.9004 161.217 31.5996 198.164 29 c 2
 226.739 27 l 2
 230.675 26.7002 234.102 24 233.039 19 c 2
 229 0 l 1
 226.575 -2 l 1
 189.787 -1 137 0 96 0 c 0
 57 0 40.7871 -1 3.5752 -2 c 1
 2 0 l 1
 6.03906 19 l 2
 7.10156 24 10.6748 26.7002 15.7393 27 c 0
 59.877 30 89.1445 40.2002 128.681 102 c 2
 461.574 622.3 l 2
 478.671 649.1 488.162 658 502.862 658 c 0
 516.862 658 520.288 647.3 523.485 628 c 2
 613.28 86 l 2
 618.99 47 635.917 31.5996 674.951 28 c 2
 685.739 27 l 2
 690.633 26.5 695.102 24 694.039 19 c 2
 690 0 l 1
 687.575 -2 l 1
 650.787 -1 612 0 571 0 c 0
 532 0 474.787 -1 437.575 -2 c 1
 437 0 l 1
 441.039 19 l 2
 442.102 24 444.654 26.5996 449.739 27 c 2
 478.164 29 l 2
 516.538 31.7002 533.416 44.2998 529.304 72 c 2
 504.227 241 l 1
 296.227 241 l 2
 272.227 241 265.391 236.6 257.612 224 c 2
 168.792 79 l 2
EndSplineSet
LCarets2: 1 0 
Colour: ff00ff
EndChar

StartChar: uni1E01
Encoding: 7681 7681 130
Width: 451
VWidth: 999
Flags: HW
HStem: -216 27<189.794 257.684> -77 27<189.294 258.499> -10 41<137.258 238.143 339.315 425.041> 409 30<147.012 252.929>
VStem: 36 79<52.097 160.39> 53 74<295.655 377.485> 139 31<-171.178 -94.447> 278 31<-170.958 -94.519> 291 74<68.1358 233 264.049 375.745>
DStem2: 199 243 212 212 0.971457 0.237216<-65.5494 87.0019>
LayerCount: 2
Fore
SplineSet
207.633 -77 m 0
 176.633 -77 152.106 -103 145.73 -133 c 0
 139.778 -161 152.827 -189 183.827 -189 c 0
 214.827 -189 239.778 -161 245.73 -133 c 0
 252.319 -102 237.633 -77 207.633 -77 c 0
108.73 -133 m 0
 118.508 -87 167.372 -50 213.372 -50 c 0
 259.372 -50 292.72 -86 282.73 -133 c 0
 273.165 -178 226.088 -216 178.088 -216 c 0
 132.088 -216 98.9521 -179 108.73 -133 c 0
340.525 233 m 1
 257.062 212 l 2
 179.096 192.4 146.246 147 136.681 102 c 0
 130.092 71 145.589 31 195.589 31 c 0
 223.589 31 262.266 53 292.729 74 c 0
 302.005 80 309.492 87 312.256 100 c 2
 340.525 233 l 1
301.203 48 m 1
 299.203 48 l 1
 275.802 32 l 2
 224.575 -2 203.874 -10 157.874 -10 c 0
 87.874 -10 40.0391 19 56.8301 98 c 0
 71.2842 166 149.55 219 250.651 243 c 2
 341.115 264 l 2
 344.327 265 348.178 269 349.666 276 c 0
 373.685 389 330.936 409 296.936 409 c 0
 258.936 409 210.96 395 204.37 364 c 0
 202.032 353 201.757 347 202.119 344 c 0
 203.27 340 202.781 333 201.293 326 c 0
 198.53 313 179.279 293 150.279 293 c 0
 127.279 293 117.617 304 122.719 328 c 0
 134.196 382 229.312 439 311.312 439 c 0
 384.312 439 452.573 412 422.391 270 c 2
 390.72 121 l 2
 380.941 75 373.227 34 412.227 34 c 0
 436.427 34 442.828 50 448.628 50 c 0
 452.628 50 457.928 42 456.439 35 c 0
 455.377 30 412.874 -10 363.874 -10 c 0
 310.475 -10 302.739 27 301.203 48 c 1
EndSplineSet
LCarets2: 1 0 
Colour: ff00ff
EndChar

StartChar: uni1E02
Encoding: 7682 7682 131
Width: 582
VWidth: 999
Flags: HW
HStem: -2 34<19 54 194.805 379.143> 332 34<187 348.649> 613 34<19 54 190.534 342.72> 693 96<243.332 322.668>
VStem: 106 81<39.6512 332 366 608.096> 235 96<701.332 780.668> 405 77<424.289 559.02> 452 89<97.5427 249.544>
LayerCount: 2
Fore
SplineSet
392.504 741 m 0
 398.031 767 424.707 789 450.707 789 c 0
 476.707 789 494.031 767 488.504 741 c 0
 482.978 715 456.302 693 430.302 693 c 0
 404.302 693 386.978 715 392.504 741 c 0
308.157 570 m 2
 264.796 366 l 1
 338.796 366 l 2
 421.796 366 489.173 396 507.239 481 c 0
 528.921 583 460.297 613 404.297 613 c 0
 317.297 613 315.172 603 308.157 570 c 2
257.568 332 m 1
 203.579 78 l 2
 196.565 45 206.802 32 276.802 32 c 0
 428.802 32 471.556 92 487.072 165 c 0
 506.202 255 463.568 332 326.568 332 c 2
 257.568 332 l 1
21.0391 19 m 2
 22.1016 24 24.6748 26.7002 29.7393 27 c 2
 60.1641 29 l 2
 102.459 31.7998 113.652 36 121.092 71 c 2
 228.008 574 l 2
 235.234 608 227.04 613.2 184.935 616 c 2
 155.36 618 l 2
 150.424 618.3 148.998 621 149.848 625 c 2
 154.099 645 l 1
 156.524 647 l 1
 203.312 646 244.099 645 283.099 645 c 0
 323.099 645 369.524 647 404.524 647 c 0
 590.524 647 601.031 560 586.79 493 c 0
 575.248 438.7 521.444 387.4 465.945 362 c 1
 465.521 360 l 1
 547.206 335 600.516 280 580.11 184 c 0
 561.83 98 487.575 -2 288.575 -2 c 0
 199.575 -2 186 0 146 0 c 0
 107 0 65.7871 -1 18.5752 -2 c 1
 17 0 l 1
 21.0391 19 l 2
EndSplineSet
LCarets2: 1 0 
Colour: ff00ff
EndChar

StartChar: uni1E03
Encoding: 7683 7683 132
Width: 487
VWidth: 999
Flags: HW
HStem: -12 21<89.25 98.75> -10 34<181.746 288.02> 395 44<193.784 307.52> 523 96<225.332 304.668> 678 20<130.465 147.5>
VStem: 78 75<47.054 370.44 384 639.899> 217 96<531.332 610.668> 365 85<133.468 325.831>
LayerCount: 2
Fore
SplineSet
338.37 571 m 0
 343.896 597 370.572 619 396.572 619 c 0
 422.572 619 439.896 597 434.37 571 c 0
 428.844 545 402.167 523 376.167 523 c 0
 350.167 523 332.844 545 338.37 571 c 0
168.092 71 m 1
 182.777 46 199.102 24 230.102 24 c 0
 325.102 24 388.381 110 412.612 224 c 0
 433.23 321 399.96 395 338.96 395 c 0
 327.96 395 275.535 393 228.032 353 c 1
 168.092 71 l 1
197.669 563 m 2
 211.485 628 204.249 641 184.249 641 c 1
 152.674 643 l 2
 149.517 643.2 147.099 645 147.736 648 c 2
 150.838 672 l 1
 191.976 675 264.139 688 291.364 698 c 1
 300.364 698 303.727 695 302.239 688 c 2
 302.239 688 290.736 648 276.921 583 c 2
 234.622 384 l 1
 276.486 421 320.312 439 368.312 439 c 0
 455.312 439 527.371 364 501.438 242 c 0
 467.643 83 330.874 -10 228.874 -10 c 0
 185.874 -10 156.425 2 132.739 27 c 1
 120.976 14 102.862 -3 91.4492 -12 c 1
 81.9492 -12 76.7041 -10.7998 71.5117 -7 c 1
 80.3457 14.7998 84.8018 32 93.0918 71 c 2
 197.669 563 l 2
EndSplineSet
LCarets2: 1 0 
Colour: ff00ff
EndChar

StartChar: uni1E04
Encoding: 7684 7684 133
Width: 582
VWidth: 999
Flags: HW
HStem: -163 96<230.332 309.668> -2 34<19 54 194.805 379.143> 332 34<187 348.649> 613 34<19 54 190.534 342.72>
VStem: 106 81<39.6512 332 366 608.096> 222 96<-154.668 -75.332> 405 77<424.289 559.02> 452 89<97.5427 249.544>
LayerCount: 2
Fore
SplineSet
197.556 -115 m 0
 203.082 -89 229.759 -67 255.759 -67 c 0
 281.759 -67 299.082 -89 293.556 -115 c 0
 288.029 -141 261.354 -163 235.354 -163 c 0
 209.354 -163 192.029 -141 197.556 -115 c 0
308.157 570 m 2
 264.796 366 l 1
 338.796 366 l 2
 421.796 366 489.173 396 507.239 481 c 0
 528.921 583 460.297 613 404.297 613 c 0
 317.297 613 315.172 603 308.157 570 c 2
257.568 332 m 1
 203.579 78 l 2
 196.565 45 206.802 32 276.802 32 c 0
 428.802 32 471.556 92 487.072 165 c 0
 506.202 255 463.568 332 326.568 332 c 2
 257.568 332 l 1
21.0391 19 m 2
 22.1016 24 24.6748 26.7002 29.7393 27 c 2
 60.1641 29 l 2
 102.459 31.7998 113.652 36 121.092 71 c 2
 228.008 574 l 2
 235.234 608 227.04 613.2 184.935 616 c 2
 155.36 618 l 2
 150.424 618.3 148.998 621 149.848 625 c 2
 154.099 645 l 1
 156.524 647 l 1
 203.312 646 244.099 645 283.099 645 c 0
 323.099 645 369.524 647 404.524 647 c 0
 590.524 647 601.031 560 586.79 493 c 0
 575.248 438.7 521.444 387.4 465.945 362 c 1
 465.521 360 l 1
 547.206 335 600.516 280 580.11 184 c 0
 561.83 98 487.575 -2 288.575 -2 c 0
 199.575 -2 186 0 146 0 c 0
 107 0 65.7871 -1 18.5752 -2 c 1
 17 0 l 1
 21.0391 19 l 2
EndSplineSet
LCarets2: 1 0 
Colour: ff00ff
EndChar

StartChar: uni1E05
Encoding: 7685 7685 134
Width: 487
VWidth: 999
Flags: HW
HStem: -163 96<185.332 264.668> -12 21<89.25 98.75> -10 34<181.746 288.02> 395 44<193.784 307.52> 678 20<130.465 147.5>
VStem: 78 75<47.054 370.44 384 639.899> 177 96<-154.668 -75.332> 365 85<133.468 325.831>
LayerCount: 2
Fore
SplineSet
152.556 -115 m 0
 158.082 -89 184.759 -67 210.759 -67 c 0
 236.759 -67 254.082 -89 248.556 -115 c 0
 243.029 -141 216.354 -163 190.354 -163 c 0
 164.354 -163 147.029 -141 152.556 -115 c 0
168.092 71 m 1
 182.777 46 199.102 24 230.102 24 c 0
 325.102 24 388.381 110 412.612 224 c 0
 433.23 321 399.96 395 338.96 395 c 0
 327.96 395 275.535 393 228.032 353 c 1
 168.092 71 l 1
197.669 563 m 2
 211.485 628 204.249 641 184.249 641 c 1
 152.674 643 l 2
 149.517 643.2 147.099 645 147.736 648 c 2
 150.838 672 l 1
 191.976 675 264.139 688 291.364 698 c 1
 300.364 698 303.727 695 302.239 688 c 2
 302.239 688 290.736 648 276.921 583 c 2
 234.622 384 l 1
 276.486 421 320.312 439 368.312 439 c 0
 455.312 439 527.371 364 501.438 242 c 0
 467.643 83 330.874 -10 228.874 -10 c 0
 185.874 -10 156.425 2 132.739 27 c 1
 120.976 14 102.862 -3 91.4492 -12 c 1
 81.9492 -12 76.7041 -10.7998 71.5117 -7 c 1
 80.3457 14.7998 84.8018 32 93.0918 71 c 2
 197.669 563 l 2
EndSplineSet
LCarets2: 1 0 
Colour: ff00ff
EndChar

StartChar: uni1E06
Encoding: 7686 7686 135
Width: 582
VWidth: 999
Flags: HW
HStem: -106 44<137 148 148 415> -2 34<19 54 194.805 379.143> 332 34<187 348.649> 613 34<19 54 190.534 342.72>
VStem: 106 81<39.6512 332 366 608.096> 405 77<424.289 559.02> 452 89<97.5427 249.544>
LayerCount: 2
Fore
SplineSet
345.155 -131 m 2
 140.155 -131 l 2
 132.155 -131 129.855 -123 131.344 -116 c 0
 133.895 -104 147.508 -87 159.508 -87 c 2
 364.508 -87 l 2
 373.508 -87 376.02 -94 374.532 -101 c 0
 371.981 -113 358.155 -131 345.155 -131 c 2
308.157 570 m 2
 264.796 366 l 1
 338.796 366 l 2
 421.796 366 489.173 396 507.239 481 c 0
 528.921 583 460.297 613 404.297 613 c 0
 317.297 613 315.172 603 308.157 570 c 2
257.568 332 m 1
 203.579 78 l 2
 196.565 45 206.802 32 276.802 32 c 0
 428.802 32 471.556 92 487.072 165 c 0
 506.202 255 463.568 332 326.568 332 c 2
 257.568 332 l 1
21.0391 19 m 2
 22.1016 24 24.6748 26.7002 29.7393 27 c 2
 60.1641 29 l 2
 102.459 31.7998 113.652 36 121.092 71 c 2
 228.008 574 l 2
 235.234 608 227.04 613.2 184.935 616 c 2
 155.36 618 l 2
 150.424 618.3 148.998 621 149.848 625 c 2
 154.099 645 l 1
 156.524 647 l 1
 203.312 646 244.099 645 283.099 645 c 0
 323.099 645 369.524 647 404.524 647 c 0
 590.524 647 601.031 560 586.79 493 c 0
 575.248 438.7 521.444 387.4 465.945 362 c 1
 465.521 360 l 1
 547.206 335 600.516 280 580.11 184 c 0
 561.83 98 487.575 -2 288.575 -2 c 0
 199.575 -2 186 0 146 0 c 0
 107 0 65.7871 -1 18.5752 -2 c 1
 17 0 l 1
 21.0391 19 l 2
EndSplineSet
LCarets2: 1 0 
Colour: ff00ff
EndChar

StartChar: uni1E07
Encoding: 7687 7687 136
Width: 487
VWidth: 999
Flags: HW
HStem: -110 44<107 118 118 385> -12 21<89.25 98.75> -10 34<181.746 288.02> 395 44<193.784 307.52> 678 20<130.465 147.5>
VStem: 78 75<47.054 370.44 384 639.899> 365 85<133.468 325.831>
LayerCount: 2
Fore
SplineSet
315.155 -131 m 2
 110.155 -131 l 2
 102.155 -131 99.8555 -123 101.344 -116 c 0
 103.895 -104 117.508 -87 129.508 -87 c 2
 334.508 -87 l 2
 343.508 -87 346.02 -94 344.532 -101 c 0
 341.981 -113 328.155 -131 315.155 -131 c 2
168.092 71 m 1
 182.777 46 199.102 24 230.102 24 c 0
 325.102 24 388.381 110 412.612 224 c 0
 433.23 321 399.96 395 338.96 395 c 0
 327.96 395 275.535 393 228.032 353 c 1
 168.092 71 l 1
197.669 563 m 2
 211.485 628 204.249 641 184.249 641 c 1
 152.674 643 l 2
 149.517 643.2 147.099 645 147.736 648 c 2
 150.838 672 l 1
 191.976 675 264.139 688 291.364 698 c 1
 300.364 698 303.727 695 302.239 688 c 2
 302.239 688 290.736 648 276.921 583 c 2
 234.622 384 l 1
 276.486 421 320.312 439 368.312 439 c 0
 455.312 439 527.371 364 501.438 242 c 0
 467.643 83 330.874 -10 228.874 -10 c 0
 185.874 -10 156.425 2 132.739 27 c 1
 120.976 14 102.862 -3 91.4492 -12 c 1
 81.9492 -12 76.7041 -10.7998 71.5117 -7 c 1
 80.3457 14.7998 84.8018 32 93.0918 71 c 2
 197.669 563 l 2
EndSplineSet
LCarets2: 1 0 
Colour: ff00ff
EndChar

StartChar: uni1E08
Encoding: 7688 7688 137
Width: 644
VWidth: 999
Flags: HW
HStem: -200 29<290.047 390.231> -96 32<365.31 395.355> -12 42<270 460> 621 37<278 443> 697 122
VStem: 37 87<204 436> 269 201 400 62<-165.259 -97.4563>
DStem2: 316 -96 365 -67 0.384615 0.923077<45.6154 104>
LayerCount: 2
Fore
SplineSet
582.084 819 m 1
 607.856 805.7 624.858 788.3 633.031 767 c 1
 476.702 709 l 2
 453.79 700 441.152 697 432.152 697 c 0
 423.152 697 418.64 704 420.34 712 c 0
 421.828 719 424.891 724 439.804 733 c 2
 582.084 819 l 1
346.595 -96 m 0
 327.595 -96 317.382 -97 300.319 -102 c 1
 295.595 -96 l 1
 349.675 -10 l 1
 137.215 -8.40039 69.9033 154.8 103.955 315 c 0
 145.829 512 329.862 658 495.862 658 c 0
 618.862 658 648.935 616 705.297 613 c 1
 697.819 559 695.404 510 694.351 458 c 1
 663.501 454 l 1
 655.78 540 614.998 621 476.998 621 c 0
 397.998 621 238.143 537 194.994 334 c 0
 163.961 188 205.589 31 360.589 31 c 0
 453.589 31 528.179 62 615.758 140 c 1
 626.758 140 632.482 134 635.569 125 c 1
 558.256 45.9004 471.549 0.700195 385.136 -8.2998 c 1
 350.759 -67 l 1
 359.184 -65 368.396 -64 377.396 -64 c 0
 417.396 -64 443.295 -88 435.218 -126 c 0
 426.078 -169 373.488 -200 312.488 -200 c 0
 280.488 -200 264.764 -194 242.103 -183 c 1
 244.652 -171 249.141 -164 257.629 -157 c 1
 282.503 -167 292.652 -171 312.652 -171 c 0
 342.652 -171 366.629 -157 372.155 -131 c 0
 376.619 -110 369.595 -96 346.595 -96 c 0
EndSplineSet
LCarets2: 1 0 
Colour: ff00ff
EndChar

StartChar: uni1E09
Encoding: 7689 7689 138
Width: 415
VWidth: 999
Flags: HW
HStem: -200 29<151.047 251.231> -96 32<226.31 256.355> -10 44<191.859 321.109> 405 34<184.96 286.704>
VStem: 37 85<118.042 314.991> 261 62<-165.259 -97.4563> 310 83<300.625 386.29>
DStem2: 177 -96 226 -67 0.384615 0.923077<45.6154 104>
LayerCount: 2
Fore
SplineSet
428.625 671 m 1
 431.838 672 438.051 673 443.051 673 c 0
 449.45 673 474.838 672 493.162 650 c 1
 493.823 639 l 1
 355.655 530 l 2
 337.467 515 328.616 511 321.616 511 c 0
 314.616 511 308.892 517 310.38 524 c 0
 312.761 535.2 316.91 539.2 327.731 552 c 2
 428.625 671 l 1
207.595 -96 m 0
 188.595 -96 178.382 -97 161.319 -102 c 1
 156.595 -96 l 1
 211.244 -9.2002 l 1
 99.6367 -0.299805 55.2588 85.9004 81.2119 208 c 0
 111.395 350 229.312 439 337.312 439 c 0
 433.312 439 475.897 390 464.632 337 c 0
 458.468 308 429.491 294 408.491 294 c 0
 387.491 294 377.617 304 379.931 329 c 0
 382.945 362 384.085 405 325.085 405 c 0
 259.085 405 194.27 340 170.888 230 c 0
 146.019 113 185.227 34 262.227 34 c 0
 305.227 34 356.753 60 397.318 105 c 1
 406.105 104 413.256 100 415.343 91 c 1
 353.315 15.5996 300.118 -6.5 245.359 -9.59961 c 1
 211.759 -67 l 1
 220.184 -65 229.396 -64 238.396 -64 c 0
 278.396 -64 304.295 -88 296.218 -126 c 0
 287.078 -169 234.488 -200 173.488 -200 c 0
 141.488 -200 125.764 -194 103.103 -183 c 1
 105.652 -171 110.141 -164 118.629 -157 c 1
 143.503 -167 153.652 -171 173.652 -171 c 0
 203.652 -171 227.629 -157 233.155 -131 c 0
 237.619 -110 230.595 -96 207.595 -96 c 0
EndSplineSet
LCarets2: 1 0 
Colour: ff00ff
EndChar

StartChar: uni1E0A
Encoding: 7690 7690 139
Width: 697
VWidth: 999
Flags: HW
HStem: -2 34<19 54 193.238 414.496> 613 34<19 54 194.838 370.214> 697 96<256.332 335.668>
VStem: 106 81<39.3746 605.565> 248 96<705.332 784.668> 562 92<179.249 418.917>
LayerCount: 2
Fore
SplineSet
406.354 745 m 0
 411.881 771 438.558 793 464.558 793 c 0
 490.558 793 507.881 771 502.354 745 c 0
 496.828 719 470.152 697 444.152 697 c 0
 418.152 697 400.828 719 406.354 745 c 0
20.8262 18 m 2
 21.8887 23 25.6748 26.7002 29.7393 27 c 2
 60.1641 29 l 2
 95.5527 31.2998 114.928 42 121.729 74 c 2
 227.582 572 l 2
 235.234 608 224.918 613.1 184.935 616 c 2
 157.36 618 l 2
 152.445 618.4 148.998 621 150.061 626 c 2
 154.099 645 l 1
 156.524 647 l 1
 203.312 646 244.099 645 283.099 645 c 0
 323.099 645 382.524 647 446.524 647 c 0
 638.524 647 759.003 494 719.468 308 c 0
 667.179 62 467.575 -2 326.575 -2 c 0
 223.575 -2 185 0 146 0 c 0
 106 0 65.7871 -1 18.5752 -2 c 1
 17 0 l 1
 20.8262 18 l 2
202.517 73 m 2
 195.715 41 204.802 32 302.802 32 c 0
 443.802 32 579.43 82 622.366 284 c 0
 655.1 438 617.297 613 401.297 613 c 0
 352.297 613 316.447 609 309.008 574 c 2
 202.517 73 l 2
EndSplineSet
LCarets2: 1 0 
Colour: ff00ff
EndChar

StartChar: uni1E0B
Encoding: 7691 7691 140
Width: 503
VWidth: 999
Flags: HW
HStem: -10 47<180.902 274.468> 404 35<185.076 305.022> 523 96<141.332 220.668> 678 20<395.466 412.5>
VStem: 39 85<106.314 313> 133 96<531.332 610.668> 343 75<78.2465 372.939 417 639.899>
LayerCount: 2
Fore
SplineSet
254.37 571 m 0
 259.896 597 286.572 619 312.572 619 c 0
 338.572 619 355.896 597 350.37 571 c 0
 344.844 545 318.167 523 292.167 523 c 0
 266.167 523 248.844 545 254.37 571 c 0
362.98 94 m 1
 416.332 345 l 1
 400.409 383 377.873 404 330.873 404 c 0
 310.873 404 268.235 401 227.245 354 c 0
 207.781 333 186.279 293 170.975 221 c 0
 144.405 96 186.864 37 240.864 37 c 0
 266.864 37 310.328 58 362.98 94 c 1
541.921 583 m 2
 442.656 116 l 2
 432.028 66 434.396 60.2002 455.328 58 c 2
 502.266 53 l 1
 500.377 30 l 1
 436.039 19 389.275 6 363.449 -12 c 1
 340.449 -12 l 1
 357.328 58 l 1
 355.541 59 l 1
 301.676 22 244.874 -10 204.874 -10 c 0
 96.874 -10 56.0049 80 82.1494 203 c 0
 97.8779 277 134.419 336 186.559 379 c 1
 234.636 417 283.312 439 349.312 439 c 0
 369.312 439 411.399 430 431.636 417 c 1
 462.669 563 l 2
 476.485 628 469.249 641 449.249 641 c 1
 417.674 643 l 2
 414.517 643.2 412.099 645 412.736 648 c 2
 415.838 672 l 1
 456.976 675 529.139 688 556.364 698 c 1
 565.364 698 568.727 695 567.239 688 c 2
 567.239 688 555.736 648 541.921 583 c 2
EndSplineSet
LCarets2: 1 0 
Colour: ff00ff
EndChar

StartChar: uni1E0C
Encoding: 7692 7692 141
Width: 697
VWidth: 999
Flags: HW
HStem: -163 96<250.332 329.668> -2 34<19 54 193.238 414.496> 613 34<19 54 194.838 370.214>
VStem: 106 81<39.3746 605.565> 242 96<-154.668 -75.332> 562 92<179.249 418.917>
LayerCount: 2
Fore
SplineSet
217.556 -115 m 0
 223.082 -89 249.759 -67 275.759 -67 c 0
 301.759 -67 319.082 -89 313.556 -115 c 0
 308.029 -141 281.354 -163 255.354 -163 c 0
 229.354 -163 212.029 -141 217.556 -115 c 0
20.8262 18 m 2
 21.8887 23 25.6748 26.7002 29.7393 27 c 2
 60.1641 29 l 2
 95.5527 31.2998 114.928 42 121.729 74 c 2
 227.582 572 l 2
 235.234 608 224.918 613.1 184.935 616 c 2
 157.36 618 l 2
 152.445 618.4 148.998 621 150.061 626 c 2
 154.099 645 l 1
 156.524 647 l 1
 203.312 646 244.099 645 283.099 645 c 0
 323.099 645 382.524 647 446.524 647 c 0
 638.524 647 759.003 494 719.468 308 c 0
 667.179 62 467.575 -2 326.575 -2 c 0
 223.575 -2 185 0 146 0 c 0
 106 0 65.7871 -1 18.5752 -2 c 1
 17 0 l 1
 20.8262 18 l 2
202.517 73 m 2
 195.715 41 204.802 32 302.802 32 c 0
 443.802 32 579.43 82 622.366 284 c 0
 655.1 438 617.297 613 401.297 613 c 0
 352.297 613 316.447 609 309.008 574 c 2
 202.517 73 l 2
EndSplineSet
LCarets2: 1 0 
Colour: ff00ff
EndChar

StartChar: uni1E0D
Encoding: 7693 7693 142
Width: 503
VWidth: 999
Flags: HW
HStem: -163 96<195.332 274.668> -10 47<180.902 274.468> 404 35<185.076 305.022> 678 20<395.466 412.5>
VStem: 39 85<106.314 313> 187 96<-154.668 -75.332> 343 75<78.2465 372.939 417 639.899>
LayerCount: 2
Fore
SplineSet
162.556 -115 m 0
 168.082 -89 194.759 -67 220.759 -67 c 0
 246.759 -67 264.082 -89 258.556 -115 c 0
 253.029 -141 226.354 -163 200.354 -163 c 0
 174.354 -163 157.029 -141 162.556 -115 c 0
362.98 94 m 1
 416.332 345 l 1
 400.409 383 377.873 404 330.873 404 c 0
 310.873 404 268.235 401 227.245 354 c 0
 207.781 333 186.279 293 170.975 221 c 0
 144.405 96 186.864 37 240.864 37 c 0
 266.864 37 310.328 58 362.98 94 c 1
541.921 583 m 2
 442.656 116 l 2
 432.028 66 434.396 60.2002 455.328 58 c 2
 502.266 53 l 1
 500.377 30 l 1
 436.039 19 389.275 6 363.449 -12 c 1
 340.449 -12 l 1
 357.328 58 l 1
 355.541 59 l 1
 301.676 22 244.874 -10 204.874 -10 c 0
 96.874 -10 56.0049 80 82.1494 203 c 0
 97.8779 277 134.419 336 186.559 379 c 1
 234.636 417 283.312 439 349.312 439 c 0
 369.312 439 411.399 430 431.636 417 c 1
 462.669 563 l 2
 476.485 628 469.249 641 449.249 641 c 1
 417.674 643 l 2
 414.517 643.2 412.099 645 412.736 648 c 2
 415.838 672 l 1
 456.976 675 529.139 688 556.364 698 c 1
 565.364 698 568.727 695 567.239 688 c 2
 567.239 688 555.736 648 541.921 583 c 2
EndSplineSet
LCarets2: 1 0 
Colour: ff00ff
EndChar

